ISO-10303-21;
HEADER;
/* Generated by software containing ST-Developer
 * from STEP Tools, Inc. (www.steptools.com) 
 */
/* OPTION: using custom renumber hook */

FILE_DESCRIPTION(
/* description */ ('STEP AP242 Edition 2',
'CAx-IF Rec.Pracs.---Representation and Presentation of Product Manufa
cturing Information (PMI)---4.0---2014-10-13',
'CAx-IF Rec.Pracs.---3D Tessellated Geometry---0.4---2014-09-14','2;1',
'CAx-IF Rec.Pracs.---User Defined Attributes---1.5---2016-08-15'),
/* implementation_level */ '2;1');

FILE_NAME(
/* name */ 'end cap',
/* time_stamp */ '2026-08-03T01:29:13Z',
/* author */ (''),
/* organization */ (''),
/* preprocessor_version */ 'ST-DEVELOPER v20',
/* originating_system */ 'ONSHAPE BY PTC INC, 1.218',
/* authorisation */ '  ');

FILE_SCHEMA (('AP242_MANAGED_MODEL_BASED_3D_ENGINEERING_MIM_LF { 1 0 10303 442 3 1 4 }'));
ENDSEC;

DATA;
#10=SHAPE_REPRESENTATION_RELATIONSHIP('','',#100,#11);
#11=ADVANCED_BREP_SHAPE_REPRESENTATION('',(#98),#169);
#12=TOROIDAL_SURFACE('',#115,0.0068167652948829,0.00239151995488679);
#13=CONICAL_SURFACE('',#107,0.00822656694799662,1.49963847538435);
#14=CYLINDRICAL_SURFACE('',#105,0.00822656694799662);
#15=CYLINDRICAL_SURFACE('',#109,0.00203898828476667);
#16=CYLINDRICAL_SURFACE('',#113,0.00920828524976969);
#17=ORIENTED_EDGE('',*,*,#31,.F.);
#18=ORIENTED_EDGE('',*,*,#32,.T.);
#19=ORIENTED_EDGE('',*,*,#33,.F.);
#20=ORIENTED_EDGE('',*,*,#31,.T.);
#21=ORIENTED_EDGE('',*,*,#34,.F.);
#22=ORIENTED_EDGE('',*,*,#33,.T.);
#23=ORIENTED_EDGE('',*,*,#35,.F.);
#24=ORIENTED_EDGE('',*,*,#34,.T.);
#25=ORIENTED_EDGE('',*,*,#36,.T.);
#26=ORIENTED_EDGE('',*,*,#35,.T.);
#27=ORIENTED_EDGE('',*,*,#37,.T.);
#28=ORIENTED_EDGE('',*,*,#32,.F.);
#29=ORIENTED_EDGE('',*,*,#36,.F.);
#30=ORIENTED_EDGE('',*,*,#37,.F.);
#31=EDGE_CURVE('',#38,#38,#45,.T.);
#32=EDGE_CURVE('',#39,#39,#46,.T.);
#33=EDGE_CURVE('',#40,#40,#47,.T.);
#34=EDGE_CURVE('',#41,#41,#48,.T.);
#35=EDGE_CURVE('',#42,#42,#49,.T.);
#36=EDGE_CURVE('',#43,#43,#50,.F.);
#37=EDGE_CURVE('',#44,#44,#51,.T.);
#38=VERTEX_POINT('',#149);
#39=VERTEX_POINT('',#151);
#40=VERTEX_POINT('',#154);
#41=VERTEX_POINT('',#157);
#42=VERTEX_POINT('',#160);
#43=VERTEX_POINT('',#163);
#44=VERTEX_POINT('',#166);
#45=CIRCLE('',#103,0.00822656694799662);
#46=CIRCLE('',#104,0.00920828524976969);
#47=CIRCLE('',#106,0.00822656694799662);
#48=CIRCLE('',#108,0.00203898828476667);
#49=CIRCLE('',#110,0.00203898828476667);
#50=CIRCLE('',#112,0.0068167652948829);
#51=CIRCLE('',#114,0.00920828524976969);
#52=EDGE_LOOP('',(#17));
#53=EDGE_LOOP('',(#18));
#54=EDGE_LOOP('',(#19));
#55=EDGE_LOOP('',(#20));
#56=EDGE_LOOP('',(#21));
#57=EDGE_LOOP('',(#22));
#58=EDGE_LOOP('',(#23));
#59=EDGE_LOOP('',(#24));
#60=EDGE_LOOP('',(#25));
#61=EDGE_LOOP('',(#26));
#62=EDGE_LOOP('',(#27));
#63=EDGE_LOOP('',(#28));
#64=EDGE_LOOP('',(#29));
#65=EDGE_LOOP('',(#30));
#66=FACE_BOUND('',#52,.T.);
#67=FACE_BOUND('',#53,.T.);
#68=FACE_BOUND('',#54,.T.);
#69=FACE_BOUND('',#55,.T.);
#70=FACE_BOUND('',#56,.T.);
#71=FACE_BOUND('',#57,.T.);
#72=FACE_BOUND('',#58,.T.);
#73=FACE_BOUND('',#59,.T.);
#74=FACE_BOUND('',#60,.T.);
#75=FACE_BOUND('',#61,.T.);
#76=FACE_BOUND('',#62,.T.);
#77=FACE_BOUND('',#63,.T.);
#78=FACE_BOUND('',#64,.T.);
#79=FACE_BOUND('',#65,.T.);
#80=PLANE('',#102);
#81=PLANE('',#111);
#82=ADVANCED_FACE('',(#66,#67),#80,.F.);
#83=ADVANCED_FACE('',(#68,#69),#14,.F.);
#84=ADVANCED_FACE('',(#70,#71),#13,.F.);
#85=ADVANCED_FACE('',(#72,#73),#15,.F.);
#86=ADVANCED_FACE('',(#74,#75),#81,.F.);
#87=ADVANCED_FACE('',(#76,#77),#16,.T.);
#88=ADVANCED_FACE('',(#78,#79),#12,.T.);
#89=CLOSED_SHELL('',(#82,#83,#84,#85,#86,#87,#88));
#90=STYLED_ITEM('',(#91),#98);
#91=PRESENTATION_STYLE_ASSIGNMENT((#92));
#92=SURFACE_STYLE_USAGE(.BOTH.,#93);
#93=SURFACE_SIDE_STYLE('',(#94));
#94=SURFACE_STYLE_FILL_AREA(#95);
#95=FILL_AREA_STYLE('',(#96));
#96=FILL_AREA_STYLE_COLOUR('',#97);
#97=COLOUR_RGB('',0.615686274509804,0.811764705882353,0.929411764705882);
#98=MANIFOLD_SOLID_BREP('Part 1',#89);
#99=SHAPE_DEFINITION_REPRESENTATION(#174,#100);
#100=SHAPE_REPRESENTATION('Part 1',(#101),#169);
#101=AXIS2_PLACEMENT_3D('',#146,#116,#117);
#102=AXIS2_PLACEMENT_3D('',#147,#118,#119);
#103=AXIS2_PLACEMENT_3D('',#148,#120,#121);
#104=AXIS2_PLACEMENT_3D('',#150,#122,#123);
#105=AXIS2_PLACEMENT_3D('',#152,#124,#125);
#106=AXIS2_PLACEMENT_3D('',#153,#126,#127);
#107=AXIS2_PLACEMENT_3D('',#155,#128,#129);
#108=AXIS2_PLACEMENT_3D('',#156,#130,#131);
#109=AXIS2_PLACEMENT_3D('',#158,#132,#133);
#110=AXIS2_PLACEMENT_3D('',#159,#134,#135);
#111=AXIS2_PLACEMENT_3D('',#161,#136,#137);
#112=AXIS2_PLACEMENT_3D('',#162,#138,#139);
#113=AXIS2_PLACEMENT_3D('',#164,#140,#141);
#114=AXIS2_PLACEMENT_3D('',#165,#142,#143);
#115=AXIS2_PLACEMENT_3D('',#167,#144,#145);
#116=DIRECTION('',(0.,0.,1.));
#117=DIRECTION('',(1.,0.,0.));
#118=DIRECTION('',(0.,0.,-1.));
#119=DIRECTION('',(-1.,0.,0.));
#120=DIRECTION('',(0.,0.,1.));
#121=DIRECTION('',(1.,0.,0.));
#122=DIRECTION('',(0.,0.,1.));
#123=DIRECTION('',(1.,0.,0.));
#124=DIRECTION('',(0.,0.,1.));
#125=DIRECTION('',(1.,0.,0.));
#126=DIRECTION('',(0.,0.,1.));
#127=DIRECTION('',(1.,0.,0.));
#128=DIRECTION('',(0.,0.,1.));
#129=DIRECTION('',(1.,0.,0.));
#130=DIRECTION('',(0.,0.,1.));
#131=DIRECTION('',(1.,0.,0.));
#132=DIRECTION('',(0.,0.,1.));
#133=DIRECTION('',(1.,0.,0.));
#134=DIRECTION('',(0.,0.,1.));
#135=DIRECTION('',(1.,0.,0.));
#136=DIRECTION('',(0.,0.,1.));
#137=DIRECTION('',(1.,0.,0.));
#138=DIRECTION('',(0.,0.,1.));
#139=DIRECTION('',(1.,0.,0.));
#140=DIRECTION('',(0.,0.,1.));
#141=DIRECTION('',(1.,0.,0.));
#142=DIRECTION('',(0.,0.,1.));
#143=DIRECTION('',(1.,0.,0.));
#144=DIRECTION('',(0.,0.,1.));
#145=DIRECTION('',(1.,0.,0.));
#146=CARTESIAN_POINT('',(0.,0.,0.));
#147=CARTESIAN_POINT('',(0.00871742609888315,0.,0.00902754813432693));
#148=CARTESIAN_POINT('',(0.,0.,0.00902754813432693));
#149=CARTESIAN_POINT('',(0.00822656694799662,0.,0.00902754813432693));
#150=CARTESIAN_POINT('',(0.,0.,0.00902754813432693));
#151=CARTESIAN_POINT('',(0.00920828524976969,0.,0.00902754813432693));
#152=CARTESIAN_POINT('',(0.,0.,0.00743044726550579));
#153=CARTESIAN_POINT('',(0.,0.,0.0054138214327395));
#154=CARTESIAN_POINT('',(0.00822656694799662,0.,0.0054138214327395));
#155=CARTESIAN_POINT('',(0.,0.,0.0054138214327395));
#156=CARTESIAN_POINT('',(0.,0.,0.00497278198599815));
#157=CARTESIAN_POINT('',(0.00203898828476667,0.,0.00497278198599815));
#158=CARTESIAN_POINT('',(0.,0.,0.00743044726550579));
#159=CARTESIAN_POINT('',(0.,0.,0.00362119311466813));
#160=CARTESIAN_POINT('',(0.00203898828476667,0.,0.00362119311466813));
#161=CARTESIAN_POINT('',(0.00562363676726818,0.,0.00362119311466813));
#162=CARTESIAN_POINT('',(0.,0.,0.00362119311466813));
#163=CARTESIAN_POINT('',(0.0068167652948829,0.,0.00362119311466813));
#164=CARTESIAN_POINT('',(0.,0.,0.00743044726550579));
#165=CARTESIAN_POINT('',(0.,0.,0.00601271306955492));
#166=CARTESIAN_POINT('',(0.00920828524976969,0.,0.00601271306955492));
#167=CARTESIAN_POINT('',(0.,0.,0.00601271306955492));
#168=MECHANICAL_DESIGN_GEOMETRIC_PRESENTATION_REPRESENTATION('',(#90),#169);
#169=(
GEOMETRIC_REPRESENTATION_CONTEXT(3)
GLOBAL_UNCERTAINTY_ASSIGNED_CONTEXT((#170))
GLOBAL_UNIT_ASSIGNED_CONTEXT((#173,#172,#171))
REPRESENTATION_CONTEXT('Part 1','TOP_LEVEL_ASSEMBLY_PART')
);
#170=UNCERTAINTY_MEASURE_WITH_UNIT(LENGTH_MEASURE(1.E-8),#173,
'DISTANCE_ACCURACY_VALUE','Maximum Tolerance applied to model');
#171=(
NAMED_UNIT(*)
SI_UNIT($,.STERADIAN.)
SOLID_ANGLE_UNIT()
);
#172=(
NAMED_UNIT(*)
PLANE_ANGLE_UNIT()
SI_UNIT($,.RADIAN.)
);
#173=(
LENGTH_UNIT()
NAMED_UNIT(*)
SI_UNIT($,.METRE.)
);
#174=PRODUCT_DEFINITION_SHAPE('','',#175);
#175=PRODUCT_DEFINITION('','',#177,#176);
#176=PRODUCT_DEFINITION_CONTEXT('',#183,'design');
#177=PRODUCT_DEFINITION_FORMATION_WITH_SPECIFIED_SOURCE('','',#179,
 .NOT_KNOWN.);
#178=PRODUCT_RELATED_PRODUCT_CATEGORY('','',(#179));
#179=PRODUCT('Part 1','Part 1','Part 1',(#181));
#180=PRODUCT_CATEGORY('','');
#181=PRODUCT_CONTEXT('',#183,'mechanical');
#182=APPLICATION_PROTOCOL_DEFINITION('international standard',
'ap242_managed_model_based_3d_engineering',2020,#183);
#183=APPLICATION_CONTEXT('managed model based 3d engineering');
ENDSEC;
END-ISO-10303-21;
