ISO-10303-21;
HEADER;
/* Generated by software containing ST-Developer
 * from STEP Tools, Inc. (www.steptools.com) 
 */
/* OPTION: using custom renumber hook */

FILE_DESCRIPTION(
/* description */ ('STEP AP242 Edition 2',
'CAx-IF Rec.Pracs.---Representation and Presentation of Product Manufa
cturing Information (PMI)---4.0---2014-10-13',
'CAx-IF Rec.Pracs.---3D Tessellated Geometry---0.4---2014-09-14','2;1',
'CAx-IF Rec.Pracs.---User Defined Attributes---1.5---2016-08-15'),
/* implementation_level */ '2;1');

FILE_NAME(
/* name */ 'fin mk2',
/* time_stamp */ '2026-08-03T01:29:21Z',
/* author */ (''),
/* organization */ (''),
/* preprocessor_version */ 'ST-DEVELOPER v20',
/* originating_system */ 'ONSHAPE BY PTC INC, 1.218',
/* authorisation */ '  ');

FILE_SCHEMA (('AP242_MANAGED_MODEL_BASED_3D_ENGINEERING_MIM_LF { 1 0 10303 442 3 1 4 }'));
ENDSEC;

DATA;
#10=SHAPE_REPRESENTATION_RELATIONSHIP('','',#336,#11);
#11=ADVANCED_BREP_SHAPE_REPRESENTATION('',(#334),#592);
#12=B_SPLINE_SURFACE_WITH_KNOTS('',3,1,((#546,#547),(#548,#549),(#550,#551),
(#552,#553),(#554,#555)),.SURF_OF_LINEAR_EXTRUSION.,.F.,.F.,.F.,(4,1,4),
(2,2),(4.71238898038469,5.49778714378214,6.28318530717959),(0.,1.),
 .UNSPECIFIED.);
#13=B_SPLINE_SURFACE_WITH_KNOTS('',3,1,((#557,#558),(#559,#560),(#561,#562),
(#563,#564),(#565,#566)),.SURF_OF_LINEAR_EXTRUSION.,.F.,.F.,.F.,(4,1,4),
(2,2),(0.,0.785398163397448,1.5707963267949),(0.,1.),.UNSPECIFIED.);
#14=B_SPLINE_SURFACE_WITH_KNOTS('',3,1,((#568,#569),(#570,#571),(#572,#573),
(#574,#575),(#576,#577)),.SURF_OF_LINEAR_EXTRUSION.,.F.,.F.,.F.,(4,1,4),
(2,2),(1.5707963267949,2.35619449019234,3.14159265358979),(0.,1.),
 .UNSPECIFIED.);
#15=B_SPLINE_SURFACE_WITH_KNOTS('',3,1,((#579,#580),(#581,#582),(#583,#584),
(#585,#586),(#587,#588)),.SURF_OF_LINEAR_EXTRUSION.,.F.,.F.,.F.,(4,1,4),
(2,2),(3.14159265358979,3.92699081698724,4.71238898038469),(0.,1.),
 .UNSPECIFIED.);
#16=CYLINDRICAL_SURFACE('',#349,0.000762);
#17=CYLINDRICAL_SURFACE('',#352,0.000762);
#18=CYLINDRICAL_SURFACE('',#354,0.000762);
#19=CYLINDRICAL_SURFACE('',#356,0.000762);
#20=CYLINDRICAL_SURFACE('',#359,0.000762);
#21=CYLINDRICAL_SURFACE('',#361,0.000762);
#22=ELLIPSE('',#339,0.00291444360102735,0.000762);
#23=ELLIPSE('',#340,0.00291444360102735,0.000762);
#24=ELLIPSE('',#345,0.000789461185494959,0.000762);
#25=ELLIPSE('',#346,0.000789461185494959,0.000762);
#26=ELLIPSE('',#350,0.000789461185494959,0.000762);
#27=ELLIPSE('',#351,0.00125395487018901,0.000762);
#28=ELLIPSE('',#353,0.000825821095839476,0.000762);
#29=ELLIPSE('',#355,0.00107117157046289,0.000762);
#30=ELLIPSE('',#357,0.00125395487018901,0.000762);
#31=ELLIPSE('',#358,0.000789461185494959,0.000762);
#32=ELLIPSE('',#360,0.000825821095839476,0.000762);
#33=ELLIPSE('',#362,0.00107117157046289,0.000762);
#34=ELLIPSE('',#364,0.00107117157046289,0.000762);
#35=ELLIPSE('',#365,0.000789461185494959,0.000762);
#36=ELLIPSE('',#366,0.000789461185494959,0.000762);
#37=ELLIPSE('',#367,0.00107117157046289,0.000762);
#38=ORIENTED_EDGE('',*,*,#128,.T.);
#39=ORIENTED_EDGE('',*,*,#129,.T.);
#40=ORIENTED_EDGE('',*,*,#130,.F.);
#41=ORIENTED_EDGE('',*,*,#131,.F.);
#42=ORIENTED_EDGE('',*,*,#132,.T.);
#43=ORIENTED_EDGE('',*,*,#133,.T.);
#44=ORIENTED_EDGE('',*,*,#134,.F.);
#45=ORIENTED_EDGE('',*,*,#135,.T.);
#46=ORIENTED_EDGE('',*,*,#136,.T.);
#47=ORIENTED_EDGE('',*,*,#137,.T.);
#48=ORIENTED_EDGE('',*,*,#138,.F.);
#49=ORIENTED_EDGE('',*,*,#139,.T.);
#50=ORIENTED_EDGE('',*,*,#134,.T.);
#51=ORIENTED_EDGE('',*,*,#140,.T.);
#52=ORIENTED_EDGE('',*,*,#138,.T.);
#53=ORIENTED_EDGE('',*,*,#141,.T.);
#54=ORIENTED_EDGE('',*,*,#142,.F.);
#55=ORIENTED_EDGE('',*,*,#143,.T.);
#56=ORIENTED_EDGE('',*,*,#142,.T.);
#57=ORIENTED_EDGE('',*,*,#144,.T.);
#58=ORIENTED_EDGE('',*,*,#128,.F.);
#59=ORIENTED_EDGE('',*,*,#145,.T.);
#60=ORIENTED_EDGE('',*,*,#146,.T.);
#61=ORIENTED_EDGE('',*,*,#147,.F.);
#62=ORIENTED_EDGE('',*,*,#148,.T.);
#63=ORIENTED_EDGE('',*,*,#149,.T.);
#64=ORIENTED_EDGE('',*,*,#150,.T.);
#65=ORIENTED_EDGE('',*,*,#151,.T.);
#66=ORIENTED_EDGE('',*,*,#152,.T.);
#67=ORIENTED_EDGE('',*,*,#153,.T.);
#68=ORIENTED_EDGE('',*,*,#154,.F.);
#69=ORIENTED_EDGE('',*,*,#155,.F.);
#70=ORIENTED_EDGE('',*,*,#156,.T.);
#71=ORIENTED_EDGE('',*,*,#157,.T.);
#72=ORIENTED_EDGE('',*,*,#158,.F.);
#73=ORIENTED_EDGE('',*,*,#146,.F.);
#74=ORIENTED_EDGE('',*,*,#159,.F.);
#75=ORIENTED_EDGE('',*,*,#143,.F.);
#76=ORIENTED_EDGE('',*,*,#145,.F.);
#77=ORIENTED_EDGE('',*,*,#133,.F.);
#78=ORIENTED_EDGE('',*,*,#159,.T.);
#79=ORIENTED_EDGE('',*,*,#151,.F.);
#80=ORIENTED_EDGE('',*,*,#160,.F.);
#81=ORIENTED_EDGE('',*,*,#139,.F.);
#82=ORIENTED_EDGE('',*,*,#161,.F.);
#83=ORIENTED_EDGE('',*,*,#135,.F.);
#84=ORIENTED_EDGE('',*,*,#160,.T.);
#85=ORIENTED_EDGE('',*,*,#150,.F.);
#86=ORIENTED_EDGE('',*,*,#144,.F.);
#87=ORIENTED_EDGE('',*,*,#141,.F.);
#88=ORIENTED_EDGE('',*,*,#162,.F.);
#89=ORIENTED_EDGE('',*,*,#157,.F.);
#90=ORIENTED_EDGE('',*,*,#163,.F.);
#91=ORIENTED_EDGE('',*,*,#129,.F.);
#92=ORIENTED_EDGE('',*,*,#162,.T.);
#93=ORIENTED_EDGE('',*,*,#140,.F.);
#94=ORIENTED_EDGE('',*,*,#164,.F.);
#95=ORIENTED_EDGE('',*,*,#152,.F.);
#96=ORIENTED_EDGE('',*,*,#165,.F.);
#97=ORIENTED_EDGE('',*,*,#153,.F.);
#98=ORIENTED_EDGE('',*,*,#164,.T.);
#99=ORIENTED_EDGE('',*,*,#137,.F.);
#100=ORIENTED_EDGE('',*,*,#136,.F.);
#101=ORIENTED_EDGE('',*,*,#166,.F.);
#102=ORIENTED_EDGE('',*,*,#167,.T.);
#103=ORIENTED_EDGE('',*,*,#168,.T.);
#104=ORIENTED_EDGE('',*,*,#161,.T.);
#105=ORIENTED_EDGE('',*,*,#149,.F.);
#106=ORIENTED_EDGE('',*,*,#169,.F.);
#107=ORIENTED_EDGE('',*,*,#166,.T.);
#108=ORIENTED_EDGE('',*,*,#158,.T.);
#109=ORIENTED_EDGE('',*,*,#132,.F.);
#110=ORIENTED_EDGE('',*,*,#170,.F.);
#111=ORIENTED_EDGE('',*,*,#147,.T.);
#112=ORIENTED_EDGE('',*,*,#163,.T.);
#113=ORIENTED_EDGE('',*,*,#156,.F.);
#114=ORIENTED_EDGE('',*,*,#171,.F.);
#115=ORIENTED_EDGE('',*,*,#130,.T.);
#116=ORIENTED_EDGE('',*,*,#165,.T.);
#117=ORIENTED_EDGE('',*,*,#168,.F.);
#118=ORIENTED_EDGE('',*,*,#172,.F.);
#119=ORIENTED_EDGE('',*,*,#154,.T.);
#120=ORIENTED_EDGE('',*,*,#167,.F.);
#121=ORIENTED_EDGE('',*,*,#169,.T.);
#122=ORIENTED_EDGE('',*,*,#148,.F.);
#123=ORIENTED_EDGE('',*,*,#170,.T.);
#124=ORIENTED_EDGE('',*,*,#131,.T.);
#125=ORIENTED_EDGE('',*,*,#171,.T.);
#126=ORIENTED_EDGE('',*,*,#155,.T.);
#127=ORIENTED_EDGE('',*,*,#172,.T.);
#128=EDGE_CURVE('',#173,#174,#201,.T.);
#129=EDGE_CURVE('',#174,#175,#22,.F.);
#130=EDGE_CURVE('',#176,#175,#202,.T.);
#131=EDGE_CURVE('',#177,#176,#203,.T.);
#132=EDGE_CURVE('',#177,#178,#204,.T.);
#133=EDGE_CURVE('',#178,#173,#23,.F.);
#134=EDGE_CURVE('',#179,#180,#205,.T.);
#135=EDGE_CURVE('',#179,#181,#206,.F.);
#136=EDGE_CURVE('',#181,#182,#207,.T.);
#137=EDGE_CURVE('',#182,#180,#208,.T.);
#138=EDGE_CURVE('',#183,#184,#209,.T.);
#139=EDGE_CURVE('',#183,#179,#210,.F.);
#140=EDGE_CURVE('',#180,#184,#211,.T.);
#141=EDGE_CURVE('',#184,#185,#212,.F.);
#142=EDGE_CURVE('',#186,#185,#213,.T.);
#143=EDGE_CURVE('',#186,#183,#214,.T.);
#144=EDGE_CURVE('',#185,#174,#24,.T.);
#145=EDGE_CURVE('',#173,#186,#25,.T.);
#146=EDGE_CURVE('',#187,#188,#215,.F.);
#147=EDGE_CURVE('',#189,#188,#216,.T.);
#148=EDGE_CURVE('',#189,#190,#217,.T.);
#149=EDGE_CURVE('',#190,#191,#218,.T.);
#150=EDGE_CURVE('',#191,#192,#219,.T.);
#151=EDGE_CURVE('',#192,#187,#220,.T.);
#152=EDGE_CURVE('',#193,#194,#221,.F.);
#153=EDGE_CURVE('',#194,#195,#222,.F.);
#154=EDGE_CURVE('',#196,#195,#223,.T.);
#155=EDGE_CURVE('',#197,#196,#224,.T.);
#156=EDGE_CURVE('',#197,#198,#225,.T.);
#157=EDGE_CURVE('',#198,#193,#226,.T.);
#158=EDGE_CURVE('',#188,#178,#26,.F.);
#159=EDGE_CURVE('',#183,#187,#27,.T.);
#160=EDGE_CURVE('',#179,#192,#28,.T.);
#161=EDGE_CURVE('',#181,#191,#29,.F.);
#162=EDGE_CURVE('',#193,#184,#30,.F.);
#163=EDGE_CURVE('',#175,#198,#31,.F.);
#164=EDGE_CURVE('',#194,#180,#32,.F.);
#165=EDGE_CURVE('',#195,#182,#33,.F.);
#166=EDGE_CURVE('',#199,#181,#227,.T.);
#167=EDGE_CURVE('',#199,#200,#228,.T.);
#168=EDGE_CURVE('',#200,#182,#229,.T.);
#169=EDGE_CURVE('',#199,#190,#34,.F.);
#170=EDGE_CURVE('',#189,#177,#35,.F.);
#171=EDGE_CURVE('',#176,#197,#36,.F.);
#172=EDGE_CURVE('',#196,#200,#37,.F.);
#173=VERTEX_POINT('',#465);
#174=VERTEX_POINT('',#466);
#175=VERTEX_POINT('',#468);
#176=VERTEX_POINT('',#470);
#177=VERTEX_POINT('',#472);
#178=VERTEX_POINT('',#474);
#179=VERTEX_POINT('',#478);
#180=VERTEX_POINT('',#479);
#181=VERTEX_POINT('',#481);
#182=VERTEX_POINT('',#483);
#183=VERTEX_POINT('',#487);
#184=VERTEX_POINT('',#488);
#185=VERTEX_POINT('',#493);
#186=VERTEX_POINT('',#495);
#187=VERTEX_POINT('',#502);
#188=VERTEX_POINT('',#503);
#189=VERTEX_POINT('',#505);
#190=VERTEX_POINT('',#507);
#191=VERTEX_POINT('',#509);
#192=VERTEX_POINT('',#511);
#193=VERTEX_POINT('',#515);
#194=VERTEX_POINT('',#516);
#195=VERTEX_POINT('',#518);
#196=VERTEX_POINT('',#520);
#197=VERTEX_POINT('',#522);
#198=VERTEX_POINT('',#524);
#199=VERTEX_POINT('',#542);
#200=VERTEX_POINT('',#544);
#201=LINE('',#464,#230);
#202=LINE('',#469,#231);
#203=LINE('',#471,#232);
#204=LINE('',#473,#233);
#205=LINE('',#477,#234);
#206=LINE('',#480,#235);
#207=LINE('',#482,#236);
#208=LINE('',#484,#237);
#209=LINE('',#486,#238);
#210=LINE('',#489,#239);
#211=LINE('',#490,#240);
#212=LINE('',#492,#241);
#213=LINE('',#494,#242);
#214=LINE('',#496,#243);
#215=LINE('',#501,#244);
#216=LINE('',#504,#245);
#217=LINE('',#506,#246);
#218=LINE('',#508,#247);
#219=LINE('',#510,#248);
#220=LINE('',#512,#249);
#221=LINE('',#514,#250);
#222=LINE('',#517,#251);
#223=LINE('',#519,#252);
#224=LINE('',#521,#253);
#225=LINE('',#523,#254);
#226=LINE('',#525,#255);
#227=LINE('',#541,#256);
#228=LINE('',#543,#257);
#229=LINE('',#545,#258);
#230=VECTOR('',#373,1.);
#231=VECTOR('',#376,1.);
#232=VECTOR('',#377,1.);
#233=VECTOR('',#378,1.);
#234=VECTOR('',#383,1.);
#235=VECTOR('',#384,1.);
#236=VECTOR('',#385,1.);
#237=VECTOR('',#386,1.);
#238=VECTOR('',#389,1.);
#239=VECTOR('',#390,1.);
#240=VECTOR('',#391,1.);
#241=VECTOR('',#394,1.);
#242=VECTOR('',#395,1.);
#243=VECTOR('',#396,1.);
#244=VECTOR('',#405,1.);
#245=VECTOR('',#406,1.);
#246=VECTOR('',#407,1.);
#247=VECTOR('',#408,1.);
#248=VECTOR('',#409,1.);
#249=VECTOR('',#410,1.);
#250=VECTOR('',#413,1.);
#251=VECTOR('',#414,1.);
#252=VECTOR('',#415,1.);
#253=VECTOR('',#416,1.);
#254=VECTOR('',#417,1.);
#255=VECTOR('',#418,1.);
#256=VECTOR('',#449,1.);
#257=VECTOR('',#450,1.);
#258=VECTOR('',#451,1.);
#259=EDGE_LOOP('',(#38,#39,#40,#41,#42,#43));
#260=EDGE_LOOP('',(#44,#45,#46,#47));
#261=EDGE_LOOP('',(#48,#49,#50,#51));
#262=EDGE_LOOP('',(#52,#53,#54,#55));
#263=EDGE_LOOP('',(#56,#57,#58,#59));
#264=EDGE_LOOP('',(#60,#61,#62,#63,#64,#65));
#265=EDGE_LOOP('',(#66,#67,#68,#69,#70,#71));
#266=EDGE_LOOP('',(#72,#73,#74,#75,#76,#77));
#267=EDGE_LOOP('',(#78,#79,#80,#81));
#268=EDGE_LOOP('',(#82,#83,#84,#85));
#269=EDGE_LOOP('',(#86,#87,#88,#89,#90,#91));
#270=EDGE_LOOP('',(#92,#93,#94,#95));
#271=EDGE_LOOP('',(#96,#97,#98,#99));
#272=EDGE_LOOP('',(#100,#101,#102,#103));
#273=EDGE_LOOP('',(#104,#105,#106,#107));
#274=EDGE_LOOP('',(#108,#109,#110,#111));
#275=EDGE_LOOP('',(#112,#113,#114,#115));
#276=EDGE_LOOP('',(#116,#117,#118,#119));
#277=EDGE_LOOP('',(#120,#121,#122,#123,#124,#125,#126,#127));
#278=FACE_BOUND('',#259,.T.);
#279=FACE_BOUND('',#260,.T.);
#280=FACE_BOUND('',#261,.T.);
#281=FACE_BOUND('',#262,.T.);
#282=FACE_BOUND('',#263,.T.);
#283=FACE_BOUND('',#264,.T.);
#284=FACE_BOUND('',#265,.T.);
#285=FACE_BOUND('',#266,.T.);
#286=FACE_BOUND('',#267,.T.);
#287=FACE_BOUND('',#268,.T.);
#288=FACE_BOUND('',#269,.T.);
#289=FACE_BOUND('',#270,.T.);
#290=FACE_BOUND('',#271,.T.);
#291=FACE_BOUND('',#272,.T.);
#292=FACE_BOUND('',#273,.T.);
#293=FACE_BOUND('',#274,.T.);
#294=FACE_BOUND('',#275,.T.);
#295=FACE_BOUND('',#276,.T.);
#296=FACE_BOUND('',#277,.T.);
#297=PLANE('',#338);
#298=PLANE('',#341);
#299=PLANE('',#342);
#300=PLANE('',#343);
#301=PLANE('',#344);
#302=PLANE('',#347);
#303=PLANE('',#348);
#304=PLANE('',#363);
#305=PLANE('',#368);
#306=ADVANCED_FACE('',(#278),#297,.F.);
#307=ADVANCED_FACE('',(#279),#298,.F.);
#308=ADVANCED_FACE('',(#280),#299,.F.);
#309=ADVANCED_FACE('',(#281),#300,.T.);
#310=ADVANCED_FACE('',(#282),#301,.T.);
#311=ADVANCED_FACE('',(#283),#302,.T.);
#312=ADVANCED_FACE('',(#284),#303,.F.);
#313=ADVANCED_FACE('',(#285),#16,.T.);
#314=ADVANCED_FACE('',(#286),#17,.T.);
#315=ADVANCED_FACE('',(#287),#18,.T.);
#316=ADVANCED_FACE('',(#288),#19,.T.);
#317=ADVANCED_FACE('',(#289),#20,.T.);
#318=ADVANCED_FACE('',(#290),#21,.T.);
#319=ADVANCED_FACE('',(#291),#304,.T.);
#320=ADVANCED_FACE('',(#292),#12,.T.);
#321=ADVANCED_FACE('',(#293),#13,.T.);
#322=ADVANCED_FACE('',(#294),#14,.T.);
#323=ADVANCED_FACE('',(#295),#15,.T.);
#324=ADVANCED_FACE('',(#296),#305,.F.);
#325=CLOSED_SHELL('',(#306,#307,#308,#309,#310,#311,#312,#313,#314,#315,
#316,#317,#318,#319,#320,#321,#322,#323,#324));
#326=STYLED_ITEM('',(#327),#334);
#327=PRESENTATION_STYLE_ASSIGNMENT((#328));
#328=SURFACE_STYLE_USAGE(.BOTH.,#329);
#329=SURFACE_SIDE_STYLE('',(#330));
#330=SURFACE_STYLE_FILL_AREA(#331);
#331=FILL_AREA_STYLE('',(#332));
#332=FILL_AREA_STYLE_COLOUR('',#333);
#333=COLOUR_RGB('',0.615686274509804,0.811764705882353,0.929411764705882);
#334=MANIFOLD_SOLID_BREP('Part 1',#325);
#335=SHAPE_DEFINITION_REPRESENTATION(#597,#336);
#336=SHAPE_REPRESENTATION('Part 1',(#337),#592);
#337=AXIS2_PLACEMENT_3D('',#462,#369,#370);
#338=AXIS2_PLACEMENT_3D('',#463,#371,#372);
#339=AXIS2_PLACEMENT_3D('',#467,#374,#375);
#340=AXIS2_PLACEMENT_3D('',#475,#379,#380);
#341=AXIS2_PLACEMENT_3D('',#476,#381,#382);
#342=AXIS2_PLACEMENT_3D('',#485,#387,#388);
#343=AXIS2_PLACEMENT_3D('',#491,#392,#393);
#344=AXIS2_PLACEMENT_3D('',#497,#397,#398);
#345=AXIS2_PLACEMENT_3D('',#498,#399,#400);
#346=AXIS2_PLACEMENT_3D('',#499,#401,#402);
#347=AXIS2_PLACEMENT_3D('',#500,#403,#404);
#348=AXIS2_PLACEMENT_3D('',#513,#411,#412);
#349=AXIS2_PLACEMENT_3D('',#526,#419,#420);
#350=AXIS2_PLACEMENT_3D('',#527,#421,#422);
#351=AXIS2_PLACEMENT_3D('',#528,#423,#424);
#352=AXIS2_PLACEMENT_3D('',#529,#425,#426);
#353=AXIS2_PLACEMENT_3D('',#530,#427,#428);
#354=AXIS2_PLACEMENT_3D('',#531,#429,#430);
#355=AXIS2_PLACEMENT_3D('',#532,#431,#432);
#356=AXIS2_PLACEMENT_3D('',#533,#433,#434);
#357=AXIS2_PLACEMENT_3D('',#534,#435,#436);
#358=AXIS2_PLACEMENT_3D('',#535,#437,#438);
#359=AXIS2_PLACEMENT_3D('',#536,#439,#440);
#360=AXIS2_PLACEMENT_3D('',#537,#441,#442);
#361=AXIS2_PLACEMENT_3D('',#538,#443,#444);
#362=AXIS2_PLACEMENT_3D('',#539,#445,#446);
#363=AXIS2_PLACEMENT_3D('',#540,#447,#448);
#364=AXIS2_PLACEMENT_3D('',#556,#452,#453);
#365=AXIS2_PLACEMENT_3D('',#567,#454,#455);
#366=AXIS2_PLACEMENT_3D('',#578,#456,#457);
#367=AXIS2_PLACEMENT_3D('',#589,#458,#459);
#368=AXIS2_PLACEMENT_3D('',#590,#460,#461);
#369=DIRECTION('',(0.,0.,1.));
#370=DIRECTION('',(1.,0.,0.));
#371=DIRECTION('',(1.41922114125819E-16,0.,1.));
#372=DIRECTION('',(1.,0.,-1.41922114125819E-16));
#373=DIRECTION('',(0.,1.,0.));
#374=DIRECTION('',(1.41922114125819E-16,0.,1.));
#375=DIRECTION('',(1.,0.,-1.41922114125819E-16));
#376=DIRECTION('',(-1.,0.,0.));
#377=DIRECTION('',(0.,1.,0.));
#378=DIRECTION('',(-1.,0.,0.));
#379=DIRECTION('',(1.41922114125819E-16,0.,1.));
#380=DIRECTION('',(-1.,0.,1.41922114125819E-16));
#381=DIRECTION('',(0.702817060139983,0.,-0.711370634744078));
#382=DIRECTION('',(-0.711370634744078,0.,-0.702817060139983));
#383=DIRECTION('',(0.,1.,0.));
#384=DIRECTION('',(-0.711370634744078,0.,-0.702817060139983));
#385=DIRECTION('',(0.,1.,0.));
#386=DIRECTION('',(-0.711370634744078,0.,-0.702817060139983));
#387=DIRECTION('',(1.,0.,0.));
#388=DIRECTION('',(0.,0.,-1.));
#389=DIRECTION('',(0.,1.,0.));
#390=DIRECTION('',(0.,0.,-1.));
#391=DIRECTION('',(0.,0.,-1.));
#392=DIRECTION('',(0.261456423356895,0.,-0.965215281004927));
#393=DIRECTION('',(-0.965215281004927,0.,-0.261456423356895));
#394=DIRECTION('',(-0.965215281004927,0.,-0.261456423356895));
#395=DIRECTION('',(0.,1.,0.));
#396=DIRECTION('',(-0.965215281004927,0.,-0.261456423356895));
#397=DIRECTION('',(1.,0.,0.));
#398=DIRECTION('',(0.,0.,-1.));
#399=DIRECTION('',(1.,0.,0.));
#400=DIRECTION('',(0.,0.,1.));
#401=DIRECTION('',(1.,0.,0.));
#402=DIRECTION('',(0.,0.,-1.));
#403=DIRECTION('',(0.,-1.,0.));
#404=DIRECTION('',(1.,0.,0.));
#405=DIRECTION('',(-0.965215281004927,0.,-0.261456423356895));
#406=DIRECTION('',(-1.,0.,0.));
#407=DIRECTION('',(0.,0.,1.));
#408=DIRECTION('',(-1.,0.,0.));
#409=DIRECTION('',(-0.711370634744078,0.,-0.702817060139983));
#410=DIRECTION('',(0.,0.,-1.));
#411=DIRECTION('',(0.,-1.,0.));
#412=DIRECTION('',(1.,0.,0.));
#413=DIRECTION('',(0.,0.,-1.));
#414=DIRECTION('',(-0.711370634744078,0.,-0.702817060139983));
#415=DIRECTION('',(-1.,0.,0.));
#416=DIRECTION('',(0.,0.,1.));
#417=DIRECTION('',(-1.,0.,0.));
#418=DIRECTION('',(-0.965215281004927,0.,-0.261456423356895));
#419=DIRECTION('',(-0.965215281004927,0.,-0.261456423356895));
#420=DIRECTION('',(-0.261456423356895,0.,0.965215281004927));
#421=DIRECTION('',(-1.,0.,0.));
#422=DIRECTION('',(0.,0.,-1.));
#423=DIRECTION('',(-0.794183991074138,0.,0.607677371901861));
#424=DIRECTION('',(-0.607677371901861,0.,-0.794183991074138));
#425=DIRECTION('',(0.,0.,1.));
#426=DIRECTION('',(1.,0.,0.));
#427=DIRECTION('',(0.385475641162978,0.,0.922718012217162));
#428=DIRECTION('',(-0.922718012217162,0.,0.385475641162978));
#429=DIRECTION('',(0.711370634744078,0.,0.702817060139983));
#430=DIRECTION('',(0.702817060139983,0.,-0.711370634744078));
#431=DIRECTION('',(-1.,0.,0.));
#432=DIRECTION('',(0.,0.,1.));
#433=DIRECTION('',(0.965215281004927,0.,0.261456423356895));
#434=DIRECTION('',(0.261456423356895,0.,-0.965215281004927));
#435=DIRECTION('',(0.794183991074138,0.,-0.607677371901861));
#436=DIRECTION('',(0.607677371901861,0.,0.794183991074138));
#437=DIRECTION('',(-1.,0.,0.));
#438=DIRECTION('',(0.,0.,1.));
#439=DIRECTION('',(0.,0.,-1.));
#440=DIRECTION('',(-1.,0.,0.));
#441=DIRECTION('',(-0.385475641162978,0.,-0.922718012217162));
#442=DIRECTION('',(0.922718012217162,0.,-0.385475641162978));
#443=DIRECTION('',(-0.711370634744078,0.,-0.702817060139983));
#444=DIRECTION('',(-0.702817060139983,0.,0.711370634744078));
#445=DIRECTION('',(-1.,0.,0.));
#446=DIRECTION('',(0.,0.,-1.));
#447=DIRECTION('',(0.,0.,1.));
#448=DIRECTION('',(1.,0.,0.));
#449=DIRECTION('',(-1.,0.,0.));
#450=DIRECTION('',(0.,1.,0.));
#451=DIRECTION('',(-1.,0.,0.));
#452=DIRECTION('',(-1.,0.,0.));
#453=DIRECTION('',(0.,0.,1.));
#454=DIRECTION('',(-1.,0.,0.));
#455=DIRECTION('',(0.,0.,-1.));
#456=DIRECTION('',(-1.,0.,0.));
#457=DIRECTION('',(0.,0.,1.));
#458=DIRECTION('',(-1.,0.,0.));
#459=DIRECTION('',(0.,0.,-1.));
#460=DIRECTION('',(-1.,0.,0.));
#461=DIRECTION('',(0.,0.,1.));
#462=CARTESIAN_POINT('',(0.,0.,0.));
#463=CARTESIAN_POINT('',(-0.000890045540045152,-0.0008361045,1.26317144711465E-19));
#464=CARTESIAN_POINT('',(-0.0017800910800903,-0.0008361045,0.));
#465=CARTESIAN_POINT('',(-0.0017800910800903,-0.000776017655230793,0.));
#466=CARTESIAN_POINT('',(-0.0017800910800903,0.000776017655230794,0.));
#467=CARTESIAN_POINT('',(-0.00291444360102734,7.41045E-5,6.50521303491303E-19));
#468=CARTESIAN_POINT('',(0.,7.41045E-5,0.));
#469=CARTESIAN_POINT('',(0.00508,7.41045E-5,0.));
#470=CARTESIAN_POINT('',(0.00508,7.41045E-5,0.));
#471=CARTESIAN_POINT('',(0.00508,-0.0008361045,0.));
#472=CARTESIAN_POINT('',(0.00508,-7.41045E-5,0.));
#473=CARTESIAN_POINT('',(0.00508,-7.41045E-5,0.));
#474=CARTESIAN_POINT('',(0.,-7.41045E-5,0.));
#475=CARTESIAN_POINT('',(-0.00291444360102735,-7.41045E-5,4.33680868994202E-19));
#476=CARTESIAN_POINT('',(-0.000890045540045146,-0.0008361045,0.0232728477910311));
#477=CARTESIAN_POINT('',(-0.0206361335241794,-0.0008361045,0.00376418827029131));
#478=CARTESIAN_POINT('',(-0.0206361335241794,-7.41045E-5,0.00376418827029131));
#479=CARTESIAN_POINT('',(-0.0206361335241794,7.41045E-5,0.00376418827029131));
#480=CARTESIAN_POINT('',(8.89045781438114E-18,-7.41045E-5,0.0241521913558245));
#481=CARTESIAN_POINT('',(8.67361737988404E-18,-7.41045E-5,0.0241521913558245));
#482=CARTESIAN_POINT('',(8.67361737988404E-18,-0.0008361045,0.0241521913558245));
#483=CARTESIAN_POINT('',(8.67361737988404E-18,7.41045E-5,0.0241521913558245));
#484=CARTESIAN_POINT('',(-0.000890045540045146,7.41045E-5,0.0232728477910311));
#485=CARTESIAN_POINT('',(-0.0206361335241794,-0.0008361045,0.00188209413514566));
#486=CARTESIAN_POINT('',(-0.0206361335241794,-0.0008361045,-0.00558989250307955));
#487=CARTESIAN_POINT('',(-0.0206361335241794,-7.41045E-5,-0.00558989250307955));
#488=CARTESIAN_POINT('',(-0.0206361335241794,7.41045E-5,-0.00558989250307955));
#489=CARTESIAN_POINT('',(-0.0206361335241794,-7.41045E-5,0.00376418827029131));
#490=CARTESIAN_POINT('',(-0.0206361335241794,7.41045E-5,0.00188209413514566));
#491=CARTESIAN_POINT('',(-0.0112081123021349,-0.0008361045,-0.00303604078050608));
#492=CARTESIAN_POINT('',(-0.0017800910800903,7.41045E-5,-0.000482189057932606));
#493=CARTESIAN_POINT('',(-0.0017800910800903,7.41045E-5,-0.000482189057932606));
#494=CARTESIAN_POINT('',(-0.0017800910800903,-0.0008361045,-0.000482189057932606));
#495=CARTESIAN_POINT('',(-0.0017800910800903,-7.41045E-5,-0.000482189057932606));
#496=CARTESIAN_POINT('',(-0.0112081123021349,-7.41045E-5,-0.00303604078050608));
#497=CARTESIAN_POINT('',(-0.0017800910800903,-0.0008361045,-0.000241094528966303));
#498=CARTESIAN_POINT('',(-0.0017800910800903,7.41045E-5,0.000307272127562351));
#499=CARTESIAN_POINT('',(-0.0017800910800903,-7.41045E-5,0.000307272127562353));
#500=CARTESIAN_POINT('',(-0.0122230667620897,-0.0008361045,0.00876512518152595));
#501=CARTESIAN_POINT('',(-0.0093747520976814,-0.0008361045,-0.00174996105693513));
#502=CARTESIAN_POINT('',(-0.0198741335241794,-0.0008361045,-0.00459402161964599));
#503=CARTESIAN_POINT('',(0.,-0.0008361045,0.000789461185494958));
#504=CARTESIAN_POINT('',(0.00508,-0.0008361045,0.000789461185494958));
#505=CARTESIAN_POINT('',(0.00508,-0.0008361045,0.000789461185494958));
#506=CARTESIAN_POINT('',(0.00508,-0.0008361045,0.0120760956779122));
#507=CARTESIAN_POINT('',(0.00508,-0.0008361045,0.0230810197853616));
#508=CARTESIAN_POINT('',(0.00508,-0.0008361045,0.0230810197853616));
#509=CARTESIAN_POINT('',(0.,-0.0008361045,0.0230810197853616));
#510=CARTESIAN_POINT('',(-0.0201005869243528,-0.0008361045,0.00322212384661632));
#511=CARTESIAN_POINT('',(-0.0198741335241794,-0.0008361045,0.00344585435388667));
#512=CARTESIAN_POINT('',(-0.0198741335241794,-0.0008361045,-0.00558989250307955));
#513=CARTESIAN_POINT('',(-0.0122230667620897,0.0008361045,0.00876512518152595));
#514=CARTESIAN_POINT('',(-0.0198741335241794,0.0008361045,0.00876512518152595));
#515=CARTESIAN_POINT('',(-0.0198741335241794,0.0008361045,-0.00459402161964599));
#516=CARTESIAN_POINT('',(-0.0198741335241794,0.0008361045,0.00344585435388667));
#517=CARTESIAN_POINT('',(-0.013342884289132,0.0008361045,0.00989857135150211));
#518=CARTESIAN_POINT('',(0.,0.0008361045,0.0230810197853616));
#519=CARTESIAN_POINT('',(0.00508,0.0008361045,0.0230810197853616));
#520=CARTESIAN_POINT('',(0.00508,0.0008361045,0.0230810197853616));
#521=CARTESIAN_POINT('',(0.00508,0.0008361045,0.0120760956779122));
#522=CARTESIAN_POINT('',(0.00508,0.0008361045,0.000789461185494958));
#523=CARTESIAN_POINT('',(0.00508,0.0008361045,0.000789461185494958));
#524=CARTESIAN_POINT('',(0.,0.0008361045,0.000789461185494958));
#525=CARTESIAN_POINT('',(-0.0208353633187774,0.0008361045,-0.0048543984589538));
#526=CARTESIAN_POINT('',(-0.0114073420967328,-7.41045E-5,-0.00230054673638032));
#527=CARTESIAN_POINT('',(0.,-7.41045E-5,0.000789461185494958));
#528=CARTESIAN_POINT('',(-0.0198741335241794,-7.41045E-5,-0.00459402161964598));
#529=CARTESIAN_POINT('',(-0.0198741335241794,-7.41045E-5,0.00876512518152595));
#530=CARTESIAN_POINT('',(-0.0198741335241794,-7.41045E-5,0.00344585435388667));
#531=CARTESIAN_POINT('',(-0.0133428842891319,-7.41045E-5,0.00989857135150211));
#532=CARTESIAN_POINT('',(0.,-7.41045E-5,0.0230810197853616));
#533=CARTESIAN_POINT('',(-0.0093747520976814,7.41045E-5,-0.00174996105693513));
#534=CARTESIAN_POINT('',(-0.0198741335241794,7.41045E-5,-0.00459402161964599));
#535=CARTESIAN_POINT('',(0.,7.41045E-5,0.000789461185494957));
#536=CARTESIAN_POINT('',(-0.0198741335241794,7.41045E-5,0.00188209413514566));
#537=CARTESIAN_POINT('',(-0.0198741335241794,7.41045E-5,0.00344585435388666));
#538=CARTESIAN_POINT('',(-0.000354498940218479,7.41045E-5,0.0227307833673561));
#539=CARTESIAN_POINT('',(0.,7.41045E-5,0.0230810197853616));
#540=CARTESIAN_POINT('',(0.00508,-0.0008361045,0.0241521913558245));
#541=CARTESIAN_POINT('',(0.00508,-7.41045E-5,0.0241521913558245));
#542=CARTESIAN_POINT('',(0.00508,-7.41045E-5,0.0241521913558245));
#543=CARTESIAN_POINT('',(0.00508,-0.0008361045,0.0241521913558245));
#544=CARTESIAN_POINT('',(0.00508,7.41045E-5,0.0241521913558245));
#545=CARTESIAN_POINT('',(0.00508,7.41045E-5,0.0241521913558245));
#546=CARTESIAN_POINT('',(0.00508,-0.0008361045,0.0230810197853616));
#547=CARTESIAN_POINT('',(8.67361737988404E-18,-0.0008361045,0.0230810197853616));
#548=CARTESIAN_POINT('',(0.00508,-0.0008361045,0.0233614518467366));
#549=CARTESIAN_POINT('',(8.67361737988404E-18,-0.0008361045,0.0233614518467366));
#550=CARTESIAN_POINT('',(0.00508,-0.000670989667776826,0.0239200833320197));
#551=CARTESIAN_POINT('',(7.80625564189563E-18,-0.000670989667776826,0.0239200833320197));
#552=CARTESIAN_POINT('',(0.00508,-0.000273595633502951,0.0241521913558245));
#553=CARTESIAN_POINT('',(8.67361737988404E-18,-0.000273595633502951,0.0241521913558245));
#554=CARTESIAN_POINT('',(0.00508,-7.41044999999986E-5,0.0241521913558245));
#555=CARTESIAN_POINT('',(8.67361737988404E-18,-7.41044999999986E-5,0.0241521913558245));
#556=CARTESIAN_POINT('',(0.00508,-7.41045E-5,0.0230810197853616));
#557=CARTESIAN_POINT('',(0.00508,-7.41045E-5,-9.75781955236954E-19));
#558=CARTESIAN_POINT('',(0.,-7.41045E-5,-9.75781955236954E-19));
#559=CARTESIAN_POINT('',(0.00508,-0.000273595633502952,-9.75781955236954E-19));
#560=CARTESIAN_POINT('',(0.,-0.000273595633502952,-9.75781955236954E-19));
#561=CARTESIAN_POINT('',(0.00508,-0.000670989667776822,0.00017106529027521));
#562=CARTESIAN_POINT('',(-8.67361737988404E-19,-0.000670989667776822,0.00017106529027521));
#563=CARTESIAN_POINT('',(0.00508,-0.0008361045,0.000582780730441187));
#564=CARTESIAN_POINT('',(0.,-0.0008361045,0.000582780730441187));
#565=CARTESIAN_POINT('',(0.00508,-0.0008361045,0.000789461185494958));
#566=CARTESIAN_POINT('',(0.,-0.0008361045,0.000789461185494958));
#567=CARTESIAN_POINT('',(0.00508,-7.41045E-5,0.000789461185494958));
#568=CARTESIAN_POINT('',(0.00508,0.0008361045,0.000789461185494958));
#569=CARTESIAN_POINT('',(0.,0.0008361045,0.000789461185494958));
#570=CARTESIAN_POINT('',(0.00508,0.0008361045,0.000582780730441187));
#571=CARTESIAN_POINT('',(0.,0.0008361045,0.000582780730441187));
#572=CARTESIAN_POINT('',(0.00508,0.000670989667776823,0.00017106529027521));
#573=CARTESIAN_POINT('',(0.,0.000670989667776823,0.00017106529027521));
#574=CARTESIAN_POINT('',(0.00508,0.000273595633502952,-2.0180374146774E-18));
#575=CARTESIAN_POINT('',(0.,0.000273595633502952,-2.0180374146774E-18));
#576=CARTESIAN_POINT('',(0.00508,7.41044999999998E-5,-1.95156391047391E-18));
#577=CARTESIAN_POINT('',(0.,7.41044999999998E-5,-1.95156391047391E-18));
#578=CARTESIAN_POINT('',(0.00508,7.41045E-5,0.000789461185494957));
#579=CARTESIAN_POINT('',(0.00508,7.41044999999999E-5,0.0241521913558245));
#580=CARTESIAN_POINT('',(0.,7.41044999999999E-5,0.0241521913558245));
#581=CARTESIAN_POINT('',(0.00508,0.000273595633502952,0.0241521913558245));
#582=CARTESIAN_POINT('',(0.,0.000273595633502952,0.0241521913558245));
#583=CARTESIAN_POINT('',(0.00508,0.000670989667776823,0.0239200833320198));
#584=CARTESIAN_POINT('',(-8.67361737988404E-19,0.000670989667776823,0.0239200833320198));
#585=CARTESIAN_POINT('',(0.00508,0.0008361045,0.0233614518467366));
#586=CARTESIAN_POINT('',(0.,0.0008361045,0.0233614518467366));
#587=CARTESIAN_POINT('',(0.00508,0.0008361045,0.0230810197853616));
#588=CARTESIAN_POINT('',(0.,0.0008361045,0.0230810197853616));
#589=CARTESIAN_POINT('',(0.00508,7.41045E-5,0.0230810197853616));
#590=CARTESIAN_POINT('',(0.00508,-0.0008361045,0.0120760956779122));
#591=MECHANICAL_DESIGN_GEOMETRIC_PRESENTATION_REPRESENTATION('',(#326),
#592);
#592=(
GEOMETRIC_REPRESENTATION_CONTEXT(3)
GLOBAL_UNCERTAINTY_ASSIGNED_CONTEXT((#593))
GLOBAL_UNIT_ASSIGNED_CONTEXT((#596,#595,#594))
REPRESENTATION_CONTEXT('Part 1','TOP_LEVEL_ASSEMBLY_PART')
);
#593=UNCERTAINTY_MEASURE_WITH_UNIT(LENGTH_MEASURE(2.E-5),#596,
'DISTANCE_ACCURACY_VALUE','Maximum Tolerance applied to model');
#594=(
NAMED_UNIT(*)
SI_UNIT($,.STERADIAN.)
SOLID_ANGLE_UNIT()
);
#595=(
NAMED_UNIT(*)
PLANE_ANGLE_UNIT()
SI_UNIT($,.RADIAN.)
);
#596=(
LENGTH_UNIT()
NAMED_UNIT(*)
SI_UNIT($,.METRE.)
);
#597=PRODUCT_DEFINITION_SHAPE('','',#598);
#598=PRODUCT_DEFINITION('','',#600,#599);
#599=PRODUCT_DEFINITION_CONTEXT('',#606,'design');
#600=PRODUCT_DEFINITION_FORMATION_WITH_SPECIFIED_SOURCE('','',#602,
 .NOT_KNOWN.);
#601=PRODUCT_RELATED_PRODUCT_CATEGORY('','',(#602));
#602=PRODUCT('Part 1','Part 1','Part 1',(#604));
#603=PRODUCT_CATEGORY('','');
#604=PRODUCT_CONTEXT('',#606,'mechanical');
#605=APPLICATION_PROTOCOL_DEFINITION('international standard',
'ap242_managed_model_based_3d_engineering',2020,#606);
#606=APPLICATION_CONTEXT('managed model based 3d engineering');
ENDSEC;
END-ISO-10303-21;
