ISO-10303-21;
HEADER;
/* Generated by software containing ST-Developer
 * from STEP Tools, Inc. (www.steptools.com) 
 */
/* OPTION: using custom renumber hook */

FILE_DESCRIPTION(
/* description */ ('STEP AP242 Edition 2',
'CAx-IF Rec.Pracs.---Representation and Presentation of Product Manufa
cturing Information (PMI)---4.0---2014-10-13',
'CAx-IF Rec.Pracs.---3D Tessellated Geometry---0.4---2014-09-14','2;1',
'CAx-IF Rec.Pracs.---User Defined Attributes---1.5---2016-08-15'),
/* implementation_level */ '2;1');

FILE_NAME(
/* name */ 'noob tube idea',
/* time_stamp */ '2026-08-03T01:30:10Z',
/* author */ (''),
/* organization */ (''),
/* preprocessor_version */ 'ST-DEVELOPER v20',
/* originating_system */ 'ONSHAPE BY PTC INC, 1.218',
/* authorisation */ '  ');

FILE_SCHEMA (('AP242_MANAGED_MODEL_BASED_3D_ENGINEERING_MIM_LF { 1 0 10303 442 3 1 4 }'));
ENDSEC;

DATA;
#10=VERTEX_LOOP('',#336);
#11=VERTEX_LOOP('',#337);
#12=SHAPE_REPRESENTATION_RELATIONSHIP('','',#625,#15);
#13=SHAPE_REPRESENTATION_RELATIONSHIP('','',#626,#16);
#14=SHAPE_REPRESENTATION_RELATIONSHIP('','',#627,#17);
#15=ADVANCED_BREP_SHAPE_REPRESENTATION('',(#619),#1179);
#16=ADVANCED_BREP_SHAPE_REPRESENTATION('',(#620),#1180);
#17=ADVANCED_BREP_SHAPE_REPRESENTATION('',(#621),#1181);
#18=(
BOUNDED_SURFACE()
B_SPLINE_SURFACE(3,2,((#1072,#1073,#1074),(#1075,#1076,#1077),(#1078,#1079,
#1080),(#1081,#1082,#1083),(#1084,#1085,#1086),(#1087,#1088,#1089),(#1090,
#1091,#1092),(#1093,#1094,#1095),(#1096,#1097,#1098),(#1099,#1100,#1101),
(#1102,#1103,#1104)),.UNSPECIFIED.,.F.,.F.,.F.)
B_SPLINE_SURFACE_WITH_KNOTS((4,1,1,1,1,1,1,1,4),(3,3),(0.0591734758670373,
0.0667446068679344,0.0743157378688316,0.0818868688697288,0.089457999870626,
0.0970291308715232,0.10460026187242,0.112171392873318,0.119742523874215),
(0.,1.),.UNSPECIFIED.)
GEOMETRIC_REPRESENTATION_ITEM()
RATIONAL_B_SPLINE_SURFACE(((1.,0.707106781186548,1.),(1.,0.707106781186548,
1.),(1.,0.707106781186548,1.),(1.,0.707106781186548,1.),(1.,0.707106781186547,
1.),(1.,0.707106781186548,1.),(1.,0.707106781186548,1.),(1.,0.707106781186547,
1.),(1.,0.707106781186548,1.),(1.,0.707106781186548,1.),(1.,0.707106781186548,
1.)))
REPRESENTATION_ITEM('')
SURFACE()
);
#19=(
BOUNDED_SURFACE()
B_SPLINE_SURFACE(3,2,((#1105,#1106,#1107),(#1108,#1109,#1110),(#1111,#1112,
#1113),(#1114,#1115,#1116),(#1117,#1118,#1119),(#1120,#1121,#1122),(#1123,
#1124,#1125),(#1126,#1127,#1128),(#1129,#1130,#1131),(#1132,#1133,#1134),
(#1135,#1136,#1137)),.UNSPECIFIED.,.F.,.F.,.F.)
B_SPLINE_SURFACE_WITH_KNOTS((4,1,1,1,1,1,1,1,4),(3,3),(0.0591748647229056,
0.0667458210813945,0.0743167774398833,0.0818877337983721,0.089458690156861,
0.0970296465153498,0.104600602873839,0.112171559232327,0.119742515590816),
(0.,1.),.UNSPECIFIED.)
GEOMETRIC_REPRESENTATION_ITEM()
RATIONAL_B_SPLINE_SURFACE(((1.,0.707106781186548,1.),(1.,0.707106781186548,
1.),(1.,0.707106781186547,1.),(1.,0.707106781186547,1.),(1.,0.707106781186548,
1.),(1.,0.707106781186548,1.),(1.,0.707106781186548,1.),(1.,0.707106781186548,
1.),(1.,0.707106781186548,1.),(1.,0.707106781186548,1.),(1.,0.707106781186548,
1.)))
REPRESENTATION_ITEM('')
SURFACE()
);
#20=B_SPLINE_SURFACE_WITH_KNOTS('',3,1,((#1048,#1049),(#1050,#1051),(#1052,
#1053),(#1054,#1055)),.SURF_OF_LINEAR_EXTRUSION.,.F.,.F.,.F.,(4,4),(2,2),
(0.221395411226423,0.912726257919661),(0.,1.),.PIECEWISE_BEZIER_KNOTS.);
#21=B_SPLINE_CURVE_WITH_KNOTS('',3,(#929,#930,#931,#932),.UNSPECIFIED.,
 .F.,.F.,(4,4),(0.,0.00591533942997321),.UNSPECIFIED.);
#22=B_SPLINE_CURVE_WITH_KNOTS('',3,(#938,#939,#940,#941,#942),
 .UNSPECIFIED.,.F.,.F.,(4,1,4),(0.,0.0165989287934027,0.0331978575868054),
 .UNSPECIFIED.);
#23=B_SPLINE_CURVE_WITH_KNOTS('',3,(#944,#945,#946,#947,#948,#949,#950,
#951,#952,#953),.UNSPECIFIED.,.F.,.F.,(4,1,1,1,1,1,1,4),(0.,0.00658676416838884,
0.00988014625258327,0.0131735283367777,0.0164669104209721,0.0197602925051665,
0.023053674589361,0.0263470566735554),.UNSPECIFIED.);
#24=B_SPLINE_CURVE_WITH_KNOTS('',3,(#959,#960,#961,#962,#963,#964,#965,
#966,#967,#968),.UNSPECIFIED.,.F.,.F.,(4,1,1,1,1,1,1,4),(0.,0.0124989637346377,
0.0187484456019565,0.0249979274692753,0.0312474093365942,0.037496891203913,
0.0437463730712318,0.0499958549385507),.UNSPECIFIED.);
#25=B_SPLINE_CURVE_WITH_KNOTS('',3,(#977,#978,#979,#980,#981,#982,#983,
#984),.UNSPECIFIED.,.F.,.F.,(4,1,1,1,1,4),(0.,0.00276603649988438,0.00553207299976876,
0.0110641459995375,0.0165962189993063,0.022128291999075),.UNSPECIFIED.);
#26=B_SPLINE_CURVE_WITH_KNOTS('',3,(#989,#990,#991,#992,#993,#994,#995,
#996,#997,#998,#999),.UNSPECIFIED.,.F.,.F.,(4,1,1,1,1,1,1,1,4),(0.,0.00276662552632477,
0.00553325105264954,0.00829987657897431,0.0110665021052991,0.0138331276316239,
0.0165997531579486,0.0193663786842734,0.0221330042105982),.UNSPECIFIED.);
#27=B_SPLINE_CURVE_WITH_KNOTS('',3,(#1001,#1002,#1003,#1004,#1005,#1006,
#1007,#1008,#1009,#1010),.UNSPECIFIED.,.F.,.F.,(4,1,1,1,1,1,1,4),(1.01031820261007E-16,
0.00628521906782182,0.0125704381356435,0.0188556572034653,0.025140876271287,
0.0314260953391087,0.0377113144069304,0.0502817525425739),.UNSPECIFIED.);
#28=B_SPLINE_CURVE_WITH_KNOTS('',3,(#1016,#1017,#1018,#1019,#1020),
 .UNSPECIFIED.,.F.,.F.,(4,1,4),(0.,0.0165989287934027,0.0331978575868054),
 .UNSPECIFIED.);
#29=B_SPLINE_CURVE_WITH_KNOTS('',3,(#1026,#1027,#1028,#1029,#1030,#1031,
#1032,#1033,#1034,#1035,#1036,#1037),.UNSPECIFIED.,.F.,.F.,(4,1,1,1,1,1,
1,1,1,4),(0.,0.0033209947198186,0.00498149207972789,0.00664198943963719,
0.00996298415945579,0.0116234815193651,0.0132839788792744,0.016604973599093,
0.0199259683189116,0.0265679577585488),.UNSPECIFIED.);
#30=B_SPLINE_CURVE_WITH_KNOTS('',3,(#1042,#1043,#1044,#1045),
 .UNSPECIFIED.,.F.,.F.,(4,4),(0.,0.00591533942997321),.UNSPECIFIED.);
#31=B_SPLINE_CURVE_WITH_KNOTS('',3,(#1056,#1057,#1058,#1059,#1060,#1061,
#1062,#1063),.UNSPECIFIED.,.F.,.F.,(4,1,1,1,1,4),(0.,0.00825036952115586,
0.0165007390423117,0.0206259238028897,0.0247511085634676,0.0330014780846235),
 .UNSPECIFIED.);
#32=B_SPLINE_CURVE_WITH_KNOTS('',3,(#1064,#1065,#1066,#1067,#1068,#1069,
#1070,#1071),.UNSPECIFIED.,.F.,.F.,(4,1,1,1,1,4),(0.,0.0082296817831866,
0.0123445226747799,0.0164593635663732,0.0246890453495598,0.0329187271327464),
 .UNSPECIFIED.);
#33=CONICAL_SURFACE('',#645,0.0379503034055233,0.555230895944075);
#34=CONICAL_SURFACE('',#670,0.0079031391069293,1.53632714134498);
#35=CONICAL_SURFACE('',#680,0.0117013957351446,0.545128854427248);
#36=CONICAL_SURFACE('',#689,0.0189756415784359,0.52622622984177);
#37=CONICAL_SURFACE('',#690,0.0127,0.616821880512666);
#38=CYLINDRICAL_SURFACE('',#638,0.0196746978908777);
#39=CYLINDRICAL_SURFACE('',#640,0.0286533590406179);
#40=CYLINDRICAL_SURFACE('',#662,0.0204027248222069);
#41=CYLINDRICAL_SURFACE('',#667,0.0117013957351446);
#42=CYLINDRICAL_SURFACE('',#672,0.0079031391069293);
#43=CYLINDRICAL_SURFACE('',#676,0.0165474489331245);
#44=CYLINDRICAL_SURFACE('',#682,0.0127);
#45=CYLINDRICAL_SURFACE('',#687,0.0189756415784359);
#46=CIRCLE('',#630,0.0286533590406179);
#47=CIRCLE('',#632,0.0204027248222069);
#48=CIRCLE('',#633,0.0196746978908777);
#49=CIRCLE('',#635,0.0286533590406179);
#50=CIRCLE('',#637,0.0286533590406179);
#51=CIRCLE('',#639,0.0196746978908777);
#52=CIRCLE('',#641,0.0286533590406179);
#53=CIRCLE('',#642,0.0286533590406179);
#54=CIRCLE('',#643,0.0286533590406179);
#55=CIRCLE('',#644,0.0286533590406179);
#56=CIRCLE('',#646,0.0379503034055233);
#57=CIRCLE('',#663,0.0204027248222069);
#58=CIRCLE('',#668,0.0117013957351446);
#59=CIRCLE('',#669,0.0117013957351446);
#60=CIRCLE('',#671,0.0079031391069293);
#61=CIRCLE('',#673,0.0079031391069293);
#62=CIRCLE('',#675,0.0165474489331245);
#63=CIRCLE('',#677,0.0165474489331245);
#64=CIRCLE('',#679,0.0124217551201582);
#65=CIRCLE('',#683,0.0127);
#66=CIRCLE('',#684,0.0127);
#67=CIRCLE('',#686,0.0189756415784359);
#68=CIRCLE('',#688,0.0189756415784359);
#69=ORIENTED_EDGE('',*,*,#213,.F.);
#70=ORIENTED_EDGE('',*,*,#214,.T.);
#71=ORIENTED_EDGE('',*,*,#215,.T.);
#72=ORIENTED_EDGE('',*,*,#216,.F.);
#73=ORIENTED_EDGE('',*,*,#217,.F.);
#74=ORIENTED_EDGE('',*,*,#218,.T.);
#75=ORIENTED_EDGE('',*,*,#219,.T.);
#76=ORIENTED_EDGE('',*,*,#220,.T.);
#77=ORIENTED_EDGE('',*,*,#221,.F.);
#78=ORIENTED_EDGE('',*,*,#216,.T.);
#79=ORIENTED_EDGE('',*,*,#222,.T.);
#80=ORIENTED_EDGE('',*,*,#218,.F.);
#81=ORIENTED_EDGE('',*,*,#223,.F.);
#82=ORIENTED_EDGE('',*,*,#224,.F.);
#83=ORIENTED_EDGE('',*,*,#214,.F.);
#84=ORIENTED_EDGE('',*,*,#219,.F.);
#85=ORIENTED_EDGE('',*,*,#225,.F.);
#86=ORIENTED_EDGE('',*,*,#222,.F.);
#87=ORIENTED_EDGE('',*,*,#226,.T.);
#88=ORIENTED_EDGE('',*,*,#226,.F.);
#89=ORIENTED_EDGE('',*,*,#221,.T.);
#90=ORIENTED_EDGE('',*,*,#223,.T.);
#91=ORIENTED_EDGE('',*,*,#227,.T.);
#92=ORIENTED_EDGE('',*,*,#228,.T.);
#93=ORIENTED_EDGE('',*,*,#229,.T.);
#94=ORIENTED_EDGE('',*,*,#230,.F.);
#95=ORIENTED_EDGE('',*,*,#225,.T.);
#96=ORIENTED_EDGE('',*,*,#231,.F.);
#97=ORIENTED_EDGE('',*,*,#224,.T.);
#98=ORIENTED_EDGE('',*,*,#232,.T.);
#99=ORIENTED_EDGE('',*,*,#233,.T.);
#100=ORIENTED_EDGE('',*,*,#234,.T.);
#101=ORIENTED_EDGE('',*,*,#235,.F.);
#102=ORIENTED_EDGE('',*,*,#213,.T.);
#103=ORIENTED_EDGE('',*,*,#231,.T.);
#104=ORIENTED_EDGE('',*,*,#236,.F.);
#105=ORIENTED_EDGE('',*,*,#237,.F.);
#106=ORIENTED_EDGE('',*,*,#238,.T.);
#107=ORIENTED_EDGE('',*,*,#235,.T.);
#108=ORIENTED_EDGE('',*,*,#239,.F.);
#109=ORIENTED_EDGE('',*,*,#240,.F.);
#110=ORIENTED_EDGE('',*,*,#236,.T.);
#111=ORIENTED_EDGE('',*,*,#234,.F.);
#112=ORIENTED_EDGE('',*,*,#241,.F.);
#113=ORIENTED_EDGE('',*,*,#242,.T.);
#114=ORIENTED_EDGE('',*,*,#239,.T.);
#115=ORIENTED_EDGE('',*,*,#233,.F.);
#116=ORIENTED_EDGE('',*,*,#243,.F.);
#117=ORIENTED_EDGE('',*,*,#244,.T.);
#118=ORIENTED_EDGE('',*,*,#241,.T.);
#119=ORIENTED_EDGE('',*,*,#227,.F.);
#120=ORIENTED_EDGE('',*,*,#245,.F.);
#121=ORIENTED_EDGE('',*,*,#246,.T.);
#122=ORIENTED_EDGE('',*,*,#243,.T.);
#123=ORIENTED_EDGE('',*,*,#232,.F.);
#124=ORIENTED_EDGE('',*,*,#230,.T.);
#125=ORIENTED_EDGE('',*,*,#247,.T.);
#126=ORIENTED_EDGE('',*,*,#248,.F.);
#127=ORIENTED_EDGE('',*,*,#249,.F.);
#128=ORIENTED_EDGE('',*,*,#245,.T.);
#129=ORIENTED_EDGE('',*,*,#217,.T.);
#130=ORIENTED_EDGE('',*,*,#248,.T.);
#131=ORIENTED_EDGE('',*,*,#250,.T.);
#132=ORIENTED_EDGE('',*,*,#251,.T.);
#133=ORIENTED_EDGE('',*,*,#252,.F.);
#134=ORIENTED_EDGE('',*,*,#253,.F.);
#135=ORIENTED_EDGE('',*,*,#252,.T.);
#136=ORIENTED_EDGE('',*,*,#254,.T.);
#137=ORIENTED_EDGE('',*,*,#255,.F.);
#138=ORIENTED_EDGE('',*,*,#256,.F.);
#139=ORIENTED_EDGE('',*,*,#257,.T.);
#140=ORIENTED_EDGE('',*,*,#258,.T.);
#141=ORIENTED_EDGE('',*,*,#259,.F.);
#142=ORIENTED_EDGE('',*,*,#260,.F.);
#143=ORIENTED_EDGE('',*,*,#255,.T.);
#144=ORIENTED_EDGE('',*,*,#261,.T.);
#145=ORIENTED_EDGE('',*,*,#259,.T.);
#146=ORIENTED_EDGE('',*,*,#262,.T.);
#147=ORIENTED_EDGE('',*,*,#263,.F.);
#148=ORIENTED_EDGE('',*,*,#264,.T.);
#149=ORIENTED_EDGE('',*,*,#265,.F.);
#150=ORIENTED_EDGE('',*,*,#266,.F.);
#151=ORIENTED_EDGE('',*,*,#267,.T.);
#152=ORIENTED_EDGE('',*,*,#263,.T.);
#153=ORIENTED_EDGE('',*,*,#268,.T.);
#154=ORIENTED_EDGE('',*,*,#269,.T.);
#155=ORIENTED_EDGE('',*,*,#215,.F.);
#156=ORIENTED_EDGE('',*,*,#270,.F.);
#157=ORIENTED_EDGE('',*,*,#228,.F.);
#158=ORIENTED_EDGE('',*,*,#220,.F.);
#159=ORIENTED_EDGE('',*,*,#238,.F.);
#160=ORIENTED_EDGE('',*,*,#271,.T.);
#161=ORIENTED_EDGE('',*,*,#266,.T.);
#162=ORIENTED_EDGE('',*,*,#269,.F.);
#163=ORIENTED_EDGE('',*,*,#237,.T.);
#164=ORIENTED_EDGE('',*,*,#240,.T.);
#165=ORIENTED_EDGE('',*,*,#242,.F.);
#166=ORIENTED_EDGE('',*,*,#244,.F.);
#167=ORIENTED_EDGE('',*,*,#246,.F.);
#168=ORIENTED_EDGE('',*,*,#249,.T.);
#169=ORIENTED_EDGE('',*,*,#253,.T.);
#170=ORIENTED_EDGE('',*,*,#256,.T.);
#171=ORIENTED_EDGE('',*,*,#260,.T.);
#172=ORIENTED_EDGE('',*,*,#264,.F.);
#173=ORIENTED_EDGE('',*,*,#267,.F.);
#174=ORIENTED_EDGE('',*,*,#271,.F.);
#175=ORIENTED_EDGE('',*,*,#265,.T.);
#176=ORIENTED_EDGE('',*,*,#272,.T.);
#177=ORIENTED_EDGE('',*,*,#257,.F.);
#178=ORIENTED_EDGE('',*,*,#273,.T.);
#179=ORIENTED_EDGE('',*,*,#250,.F.);
#180=ORIENTED_EDGE('',*,*,#247,.F.);
#181=ORIENTED_EDGE('',*,*,#229,.F.);
#182=ORIENTED_EDGE('',*,*,#270,.T.);
#183=ORIENTED_EDGE('',*,*,#268,.F.);
#184=ORIENTED_EDGE('',*,*,#262,.F.);
#185=ORIENTED_EDGE('',*,*,#258,.F.);
#186=ORIENTED_EDGE('',*,*,#272,.F.);
#187=ORIENTED_EDGE('',*,*,#251,.F.);
#188=ORIENTED_EDGE('',*,*,#273,.F.);
#189=ORIENTED_EDGE('',*,*,#261,.F.);
#190=ORIENTED_EDGE('',*,*,#254,.F.);
#191=ORIENTED_EDGE('',*,*,#274,.F.);
#192=ORIENTED_EDGE('',*,*,#275,.T.);
#193=ORIENTED_EDGE('',*,*,#275,.F.);
#194=ORIENTED_EDGE('',*,*,#276,.T.);
#195=ORIENTED_EDGE('',*,*,#276,.F.);
#196=ORIENTED_EDGE('',*,*,#277,.T.);
#197=ORIENTED_EDGE('',*,*,#277,.F.);
#198=ORIENTED_EDGE('',*,*,#278,.T.);
#199=ORIENTED_EDGE('',*,*,#278,.F.);
#200=ORIENTED_EDGE('',*,*,#279,.T.);
#201=ORIENTED_EDGE('',*,*,#279,.F.);
#202=ORIENTED_EDGE('',*,*,#280,.T.);
#203=ORIENTED_EDGE('',*,*,#280,.F.);
#204=ORIENTED_EDGE('',*,*,#274,.T.);
#205=ORIENTED_EDGE('',*,*,#281,.T.);
#206=ORIENTED_EDGE('',*,*,#282,.F.);
#207=ORIENTED_EDGE('',*,*,#283,.F.);
#208=ORIENTED_EDGE('',*,*,#282,.T.);
#209=ORIENTED_EDGE('',*,*,#284,.F.);
#210=ORIENTED_EDGE('',*,*,#283,.T.);
#211=ORIENTED_EDGE('',*,*,#284,.T.);
#212=ORIENTED_EDGE('',*,*,#281,.F.);
#213=EDGE_CURVE('',#285,#286,#338,.T.);
#214=EDGE_CURVE('',#285,#286,#46,.T.);
#215=EDGE_CURVE('',#287,#287,#47,.T.);
#216=EDGE_CURVE('',#288,#288,#48,.T.);
#217=EDGE_CURVE('',#289,#290,#339,.T.);
#218=EDGE_CURVE('',#289,#290,#49,.T.);
#219=EDGE_CURVE('',#291,#285,#50,.T.);
#220=EDGE_CURVE('',#285,#291,#340,.T.);
#221=EDGE_CURVE('',#292,#292,#51,.T.);
#222=EDGE_CURVE('',#293,#293,#52,.T.);
#223=EDGE_CURVE('',#294,#289,#53,.T.);
#224=EDGE_CURVE('',#286,#294,#54,.T.);
#225=EDGE_CURVE('',#290,#291,#55,.T.);
#226=EDGE_CURVE('',#295,#295,#56,.T.);
#227=EDGE_CURVE('',#289,#294,#341,.T.);
#228=EDGE_CURVE('',#291,#296,#342,.T.);
#229=EDGE_CURVE('',#296,#297,#343,.T.);
#230=EDGE_CURVE('',#290,#297,#344,.T.);
#231=EDGE_CURVE('',#286,#298,#345,.T.);
#232=EDGE_CURVE('',#294,#299,#346,.T.);
#233=EDGE_CURVE('',#299,#300,#347,.T.);
#234=EDGE_CURVE('',#300,#301,#348,.T.);
#235=EDGE_CURVE('',#298,#301,#349,.T.);
#236=EDGE_CURVE('',#302,#298,#350,.T.);
#237=EDGE_CURVE('',#303,#302,#351,.T.);
#238=EDGE_CURVE('',#303,#285,#352,.T.);
#239=EDGE_CURVE('',#304,#301,#353,.T.);
#240=EDGE_CURVE('',#302,#304,#354,.T.);
#241=EDGE_CURVE('',#305,#300,#355,.T.);
#242=EDGE_CURVE('',#305,#304,#356,.T.);
#243=EDGE_CURVE('',#306,#299,#357,.T.);
#244=EDGE_CURVE('',#306,#305,#358,.T.);
#245=EDGE_CURVE('',#307,#289,#359,.T.);
#246=EDGE_CURVE('',#307,#306,#360,.T.);
#247=EDGE_CURVE('',#297,#308,#21,.T.);
#248=EDGE_CURVE('',#309,#308,#361,.T.);
#249=EDGE_CURVE('',#307,#309,#362,.T.);
#250=EDGE_CURVE('',#308,#310,#22,.T.);
#251=EDGE_CURVE('',#310,#311,#23,.T.);
#252=EDGE_CURVE('',#312,#311,#363,.T.);
#253=EDGE_CURVE('',#309,#312,#364,.T.);
#254=EDGE_CURVE('',#311,#313,#24,.T.);
#255=EDGE_CURVE('',#314,#313,#365,.T.);
#256=EDGE_CURVE('',#312,#314,#366,.T.);
#257=EDGE_CURVE('',#315,#316,#367,.F.);
#258=EDGE_CURVE('',#316,#317,#25,.T.);
#259=EDGE_CURVE('',#318,#317,#368,.T.);
#260=EDGE_CURVE('',#314,#318,#369,.T.);
#261=EDGE_CURVE('',#313,#315,#26,.T.);
#262=EDGE_CURVE('',#317,#319,#27,.T.);
#263=EDGE_CURVE('',#320,#319,#370,.T.);
#264=EDGE_CURVE('',#320,#318,#371,.T.);
#265=EDGE_CURVE('',#321,#322,#28,.T.);
#266=EDGE_CURVE('',#323,#321,#372,.T.);
#267=EDGE_CURVE('',#323,#320,#373,.T.);
#268=EDGE_CURVE('',#319,#322,#29,.T.);
#269=EDGE_CURVE('',#324,#324,#57,.T.);
#270=EDGE_CURVE('',#296,#321,#30,.T.);
#271=EDGE_CURVE('',#303,#323,#374,.T.);
#272=EDGE_CURVE('',#322,#316,#31,.T.);
#273=EDGE_CURVE('',#315,#310,#32,.T.);
#274=EDGE_CURVE('',#325,#325,#58,.T.);
#275=EDGE_CURVE('',#326,#326,#59,.T.);
#276=EDGE_CURVE('',#327,#327,#60,.T.);
#277=EDGE_CURVE('',#328,#328,#61,.T.);
#278=EDGE_CURVE('',#329,#329,#62,.T.);
#279=EDGE_CURVE('',#330,#330,#63,.T.);
#280=EDGE_CURVE('',#331,#331,#64,.T.);
#281=EDGE_CURVE('',#332,#332,#65,.T.);
#282=EDGE_CURVE('',#333,#333,#66,.T.);
#283=EDGE_CURVE('',#334,#334,#67,.T.);
#284=EDGE_CURVE('',#335,#335,#68,.T.);
#285=VERTEX_POINT('',#857);
#286=VERTEX_POINT('',#858);
#287=VERTEX_POINT('',#862);
#288=VERTEX_POINT('',#864);
#289=VERTEX_POINT('',#867);
#290=VERTEX_POINT('',#868);
#291=VERTEX_POINT('',#872);
#292=VERTEX_POINT('',#876);
#293=VERTEX_POINT('',#879);
#294=VERTEX_POINT('',#881);
#295=VERTEX_POINT('',#886);
#296=VERTEX_POINT('',#892);
#297=VERTEX_POINT('',#894);
#298=VERTEX_POINT('',#898);
#299=VERTEX_POINT('',#900);
#300=VERTEX_POINT('',#902);
#301=VERTEX_POINT('',#904);
#302=VERTEX_POINT('',#908);
#303=VERTEX_POINT('',#910);
#304=VERTEX_POINT('',#914);
#305=VERTEX_POINT('',#918);
#306=VERTEX_POINT('',#922);
#307=VERTEX_POINT('',#926);
#308=VERTEX_POINT('',#933);
#309=VERTEX_POINT('',#935);
#310=VERTEX_POINT('',#943);
#311=VERTEX_POINT('',#954);
#312=VERTEX_POINT('',#956);
#313=VERTEX_POINT('',#969);
#314=VERTEX_POINT('',#971);
#315=VERTEX_POINT('',#975);
#316=VERTEX_POINT('',#976);
#317=VERTEX_POINT('',#985);
#318=VERTEX_POINT('',#987);
#319=VERTEX_POINT('',#1011);
#320=VERTEX_POINT('',#1013);
#321=VERTEX_POINT('',#1021);
#322=VERTEX_POINT('',#1022);
#323=VERTEX_POINT('',#1024);
#324=VERTEX_POINT('',#1040);
#325=VERTEX_POINT('',#1141);
#326=VERTEX_POINT('',#1143);
#327=VERTEX_POINT('',#1146);
#328=VERTEX_POINT('',#1149);
#329=VERTEX_POINT('',#1152);
#330=VERTEX_POINT('',#1155);
#331=VERTEX_POINT('',#1158);
#332=VERTEX_POINT('',#1163);
#333=VERTEX_POINT('',#1165);
#334=VERTEX_POINT('',#1168);
#335=VERTEX_POINT('',#1171);
#336=VERTEX_POINT('',#1173);
#337=VERTEX_POINT('',#1175);
#338=LINE('',#856,#375);
#339=LINE('',#866,#376);
#340=LINE('',#873,#377);
#341=LINE('',#889,#378);
#342=LINE('',#891,#379);
#343=LINE('',#893,#380);
#344=LINE('',#895,#381);
#345=LINE('',#897,#382);
#346=LINE('',#899,#383);
#347=LINE('',#901,#384);
#348=LINE('',#903,#385);
#349=LINE('',#905,#386);
#350=LINE('',#907,#387);
#351=LINE('',#909,#388);
#352=LINE('',#911,#389);
#353=LINE('',#913,#390);
#354=LINE('',#915,#391);
#355=LINE('',#917,#392);
#356=LINE('',#919,#393);
#357=LINE('',#921,#394);
#358=LINE('',#923,#395);
#359=LINE('',#925,#396);
#360=LINE('',#927,#397);
#361=LINE('',#934,#398);
#362=LINE('',#936,#399);
#363=LINE('',#955,#400);
#364=LINE('',#957,#401);
#365=LINE('',#970,#402);
#366=LINE('',#972,#403);
#367=LINE('',#974,#404);
#368=LINE('',#986,#405);
#369=LINE('',#988,#406);
#370=LINE('',#1012,#407);
#371=LINE('',#1014,#408);
#372=LINE('',#1023,#409);
#373=LINE('',#1025,#410);
#374=LINE('',#1046,#411);
#375=VECTOR('',#695,1.);
#376=VECTOR('',#706,1.);
#377=VECTOR('',#713,1.);
#378=VECTOR('',#736,1.);
#379=VECTOR('',#739,1.);
#380=VECTOR('',#740,1.);
#381=VECTOR('',#741,1.);
#382=VECTOR('',#744,1.);
#383=VECTOR('',#745,1.);
#384=VECTOR('',#746,1.);
#385=VECTOR('',#747,1.);
#386=VECTOR('',#748,1.);
#387=VECTOR('',#751,1.);
#388=VECTOR('',#752,1.);
#389=VECTOR('',#753,1.);
#390=VECTOR('',#756,1.);
#391=VECTOR('',#757,1.);
#392=VECTOR('',#760,1.);
#393=VECTOR('',#761,1.);
#394=VECTOR('',#764,1.);
#395=VECTOR('',#765,1.);
#396=VECTOR('',#768,1.);
#397=VECTOR('',#769,1.);
#398=VECTOR('',#772,1.);
#399=VECTOR('',#773,1.);
#400=VECTOR('',#776,1.);
#401=VECTOR('',#777,1.);
#402=VECTOR('',#780,1.);
#403=VECTOR('',#781,1.);
#404=VECTOR('',#784,1.);
#405=VECTOR('',#785,1.);
#406=VECTOR('',#786,1.);
#407=VECTOR('',#789,1.);
#408=VECTOR('',#790,1.);
#409=VECTOR('',#793,1.);
#410=VECTOR('',#794,1.);
#411=VECTOR('',#801,1.);
#412=EDGE_LOOP('',(#69,#70));
#413=EDGE_LOOP('',(#71));
#414=EDGE_LOOP('',(#72));
#415=EDGE_LOOP('',(#73,#74));
#416=EDGE_LOOP('',(#75,#76));
#417=EDGE_LOOP('',(#77));
#418=EDGE_LOOP('',(#78));
#419=EDGE_LOOP('',(#79));
#420=EDGE_LOOP('',(#80,#81,#82,#83,#84,#85));
#421=EDGE_LOOP('',(#86));
#422=EDGE_LOOP('',(#87));
#423=EDGE_LOOP('',(#88));
#424=EDGE_LOOP('',(#89));
#425=EDGE_LOOP('',(#90,#91));
#426=EDGE_LOOP('',(#92,#93,#94,#95));
#427=EDGE_LOOP('',(#96,#97,#98,#99,#100,#101));
#428=EDGE_LOOP('',(#102,#103,#104,#105,#106));
#429=EDGE_LOOP('',(#107,#108,#109,#110));
#430=EDGE_LOOP('',(#111,#112,#113,#114));
#431=EDGE_LOOP('',(#115,#116,#117,#118));
#432=EDGE_LOOP('',(#119,#120,#121,#122,#123));
#433=EDGE_LOOP('',(#124,#125,#126,#127,#128,#129));
#434=EDGE_LOOP('',(#130,#131,#132,#133,#134));
#435=EDGE_LOOP('',(#135,#136,#137,#138));
#436=EDGE_LOOP('',(#139,#140,#141,#142,#143,#144));
#437=EDGE_LOOP('',(#145,#146,#147,#148));
#438=EDGE_LOOP('',(#149,#150,#151,#152,#153));
#439=EDGE_LOOP('',(#154));
#440=EDGE_LOOP('',(#155));
#441=EDGE_LOOP('',(#156,#157,#158,#159,#160,#161));
#442=EDGE_LOOP('',(#162));
#443=EDGE_LOOP('',(#163,#164,#165,#166,#167,#168,#169,#170,#171,#172,#173,
#174));
#444=EDGE_LOOP('',(#175,#176,#177,#178,#179,#180,#181,#182));
#445=EDGE_LOOP('',(#183,#184,#185,#186));
#446=EDGE_LOOP('',(#187,#188,#189,#190));
#447=EDGE_LOOP('',(#191));
#448=EDGE_LOOP('',(#192));
#449=EDGE_LOOP('',(#193));
#450=EDGE_LOOP('',(#194));
#451=EDGE_LOOP('',(#195));
#452=EDGE_LOOP('',(#196));
#453=EDGE_LOOP('',(#197));
#454=EDGE_LOOP('',(#198));
#455=EDGE_LOOP('',(#199));
#456=EDGE_LOOP('',(#200));
#457=EDGE_LOOP('',(#201));
#458=EDGE_LOOP('',(#202));
#459=EDGE_LOOP('',(#203));
#460=EDGE_LOOP('',(#204));
#461=EDGE_LOOP('',(#205));
#462=EDGE_LOOP('',(#206));
#463=EDGE_LOOP('',(#207));
#464=EDGE_LOOP('',(#208));
#465=EDGE_LOOP('',(#209));
#466=EDGE_LOOP('',(#210));
#467=EDGE_LOOP('',(#211));
#468=EDGE_LOOP('',(#212));
#469=FACE_BOUND('',#412,.T.);
#470=FACE_BOUND('',#413,.T.);
#471=FACE_BOUND('',#414,.T.);
#472=FACE_BOUND('',#415,.T.);
#473=FACE_BOUND('',#416,.T.);
#474=FACE_BOUND('',#417,.T.);
#475=FACE_BOUND('',#418,.T.);
#476=FACE_BOUND('',#419,.T.);
#477=FACE_BOUND('',#420,.T.);
#478=FACE_BOUND('',#421,.T.);
#479=FACE_BOUND('',#422,.T.);
#480=FACE_BOUND('',#423,.T.);
#481=FACE_BOUND('',#424,.T.);
#482=FACE_BOUND('',#425,.T.);
#483=FACE_BOUND('',#426,.T.);
#484=FACE_BOUND('',#427,.T.);
#485=FACE_BOUND('',#428,.T.);
#486=FACE_BOUND('',#429,.T.);
#487=FACE_BOUND('',#430,.T.);
#488=FACE_BOUND('',#431,.T.);
#489=FACE_BOUND('',#432,.T.);
#490=FACE_BOUND('',#433,.T.);
#491=FACE_BOUND('',#434,.T.);
#492=FACE_BOUND('',#435,.T.);
#493=FACE_BOUND('',#436,.T.);
#494=FACE_BOUND('',#437,.T.);
#495=FACE_BOUND('',#438,.T.);
#496=FACE_BOUND('',#439,.T.);
#497=FACE_BOUND('',#440,.T.);
#498=FACE_BOUND('',#441,.T.);
#499=FACE_BOUND('',#442,.T.);
#500=FACE_BOUND('',#443,.T.);
#501=FACE_BOUND('',#444,.T.);
#502=FACE_BOUND('',#445,.T.);
#503=FACE_BOUND('',#446,.T.);
#504=FACE_BOUND('',#447,.T.);
#505=FACE_BOUND('',#448,.T.);
#506=FACE_BOUND('',#449,.T.);
#507=FACE_BOUND('',#450,.T.);
#508=FACE_BOUND('',#451,.T.);
#509=FACE_BOUND('',#452,.T.);
#510=FACE_BOUND('',#453,.T.);
#511=FACE_BOUND('',#454,.T.);
#512=FACE_BOUND('',#455,.T.);
#513=FACE_BOUND('',#456,.T.);
#514=FACE_BOUND('',#457,.T.);
#515=FACE_BOUND('',#458,.T.);
#516=FACE_BOUND('',#459,.T.);
#517=FACE_BOUND('',#460,.T.);
#518=FACE_BOUND('',#461,.T.);
#519=FACE_BOUND('',#462,.T.);
#520=FACE_BOUND('',#463,.T.);
#521=FACE_BOUND('',#464,.T.);
#522=FACE_BOUND('',#465,.T.);
#523=FACE_BOUND('',#466,.T.);
#524=FACE_BOUND('',#10,.T.);
#525=FACE_BOUND('',#467,.T.);
#526=FACE_BOUND('',#11,.T.);
#527=FACE_BOUND('',#468,.T.);
#528=PLANE('',#629);
#529=PLANE('',#631);
#530=PLANE('',#634);
#531=PLANE('',#636);
#532=PLANE('',#647);
#533=PLANE('',#648);
#534=PLANE('',#649);
#535=PLANE('',#650);
#536=PLANE('',#651);
#537=PLANE('',#652);
#538=PLANE('',#653);
#539=PLANE('',#654);
#540=PLANE('',#655);
#541=PLANE('',#656);
#542=PLANE('',#657);
#543=PLANE('',#658);
#544=PLANE('',#659);
#545=PLANE('',#660);
#546=PLANE('',#661);
#547=PLANE('',#664);
#548=PLANE('',#665);
#549=PLANE('',#674);
#550=PLANE('',#678);
#551=PLANE('',#685);
#552=ADVANCED_FACE('',(#469),#528,.F.);
#553=ADVANCED_FACE('',(#470,#471),#529,.F.);
#554=ADVANCED_FACE('',(#472),#530,.F.);
#555=ADVANCED_FACE('',(#473),#531,.F.);
#556=ADVANCED_FACE('',(#474,#475),#38,.F.);
#557=ADVANCED_FACE('',(#476,#477),#39,.T.);
#558=ADVANCED_FACE('',(#478,#479),#33,.T.);
#559=ADVANCED_FACE('',(#480,#481),#532,.F.);
#560=ADVANCED_FACE('',(#482),#533,.F.);
#561=ADVANCED_FACE('',(#483),#534,.F.);
#562=ADVANCED_FACE('',(#484),#535,.F.);
#563=ADVANCED_FACE('',(#485),#536,.F.);
#564=ADVANCED_FACE('',(#486),#537,.F.);
#565=ADVANCED_FACE('',(#487),#538,.T.);
#566=ADVANCED_FACE('',(#488),#539,.T.);
#567=ADVANCED_FACE('',(#489),#540,.T.);
#568=ADVANCED_FACE('',(#490),#541,.F.);
#569=ADVANCED_FACE('',(#491),#542,.F.);
#570=ADVANCED_FACE('',(#492),#543,.F.);
#571=ADVANCED_FACE('',(#493),#544,.F.);
#572=ADVANCED_FACE('',(#494),#545,.T.);
#573=ADVANCED_FACE('',(#495),#546,.T.);
#574=ADVANCED_FACE('',(#496,#497),#40,.F.);
#575=ADVANCED_FACE('',(#498),#547,.T.);
#576=ADVANCED_FACE('',(#499,#500),#548,.T.);
#577=ADVANCED_FACE('',(#501),#20,.F.);
#578=ADVANCED_FACE('',(#502),#18,.T.);
#579=ADVANCED_FACE('',(#503),#19,.T.);
#580=ADVANCED_FACE('',(#504,#505),#41,.T.);
#581=ADVANCED_FACE('',(#506,#507),#34,.T.);
#582=ADVANCED_FACE('',(#508,#509),#42,.F.);
#583=ADVANCED_FACE('',(#510,#511),#549,.F.);
#584=ADVANCED_FACE('',(#512,#513),#43,.T.);
#585=ADVANCED_FACE('',(#514,#515),#550,.F.);
#586=ADVANCED_FACE('',(#516,#517),#35,.T.);
#587=ADVANCED_FACE('',(#518,#519),#44,.F.);
#588=ADVANCED_FACE('',(#520,#521),#551,.F.);
#589=ADVANCED_FACE('',(#522,#523),#45,.T.);
#590=ADVANCED_FACE('',(#524,#525),#36,.T.);
#591=ADVANCED_FACE('',(#526,#527),#37,.F.);
#592=CLOSED_SHELL('',(#552,#553,#554,#555,#556,#557,#558,#559,#560,#561,
#562,#563,#564,#565,#566,#567,#568,#569,#570,#571,#572,#573,#574,#575,#576,
#577,#578,#579));
#593=CLOSED_SHELL('',(#580,#581,#582,#583,#584,#585,#586));
#594=CLOSED_SHELL('',(#587,#588,#589,#590,#591));
#595=STYLED_ITEM('',(#598),#619);
#596=STYLED_ITEM('',(#599),#620);
#597=STYLED_ITEM('',(#600),#621);
#598=PRESENTATION_STYLE_ASSIGNMENT((#601));
#599=PRESENTATION_STYLE_ASSIGNMENT((#602));
#600=PRESENTATION_STYLE_ASSIGNMENT((#603));
#601=SURFACE_STYLE_USAGE(.BOTH.,#604);
#602=SURFACE_STYLE_USAGE(.BOTH.,#605);
#603=SURFACE_STYLE_USAGE(.BOTH.,#606);
#604=SURFACE_SIDE_STYLE('',(#607));
#605=SURFACE_SIDE_STYLE('',(#608));
#606=SURFACE_SIDE_STYLE('',(#609));
#607=SURFACE_STYLE_FILL_AREA(#610);
#608=SURFACE_STYLE_FILL_AREA(#611);
#609=SURFACE_STYLE_FILL_AREA(#612);
#610=FILL_AREA_STYLE('',(#613));
#611=FILL_AREA_STYLE('',(#614));
#612=FILL_AREA_STYLE('',(#615));
#613=FILL_AREA_STYLE_COLOUR('',#616);
#614=FILL_AREA_STYLE_COLOUR('',#617);
#615=FILL_AREA_STYLE_COLOUR('',#618);
#616=COLOUR_RGB('',0.231372549019608,0.380392156862745,0.705882352941177);
#617=COLOUR_RGB('',0.615686274509804,0.811764705882353,0.929411764705882);
#618=COLOUR_RGB('',0.647058823529412,0.647058823529412,0.647058823529412);
#619=MANIFOLD_SOLID_BREP('Part 3',#592);
#620=MANIFOLD_SOLID_BREP('Part 1',#593);
#621=MANIFOLD_SOLID_BREP('Part 2',#594);
#622=SHAPE_DEFINITION_REPRESENTATION(#1194,#625);
#623=SHAPE_DEFINITION_REPRESENTATION(#1195,#626);
#624=SHAPE_DEFINITION_REPRESENTATION(#1196,#627);
#625=SHAPE_REPRESENTATION('Part 3',(#628),#1179);
#626=SHAPE_REPRESENTATION('Part 1',(#666),#1180);
#627=SHAPE_REPRESENTATION('Part 2',(#681),#1181);
#628=AXIS2_PLACEMENT_3D('',#854,#691,#692);
#629=AXIS2_PLACEMENT_3D('',#855,#693,#694);
#630=AXIS2_PLACEMENT_3D('',#859,#696,#697);
#631=AXIS2_PLACEMENT_3D('',#860,#698,#699);
#632=AXIS2_PLACEMENT_3D('',#861,#700,#701);
#633=AXIS2_PLACEMENT_3D('',#863,#702,#703);
#634=AXIS2_PLACEMENT_3D('',#865,#704,#705);
#635=AXIS2_PLACEMENT_3D('',#869,#707,#708);
#636=AXIS2_PLACEMENT_3D('',#870,#709,#710);
#637=AXIS2_PLACEMENT_3D('',#871,#711,#712);
#638=AXIS2_PLACEMENT_3D('',#874,#714,#715);
#639=AXIS2_PLACEMENT_3D('',#875,#716,#717);
#640=AXIS2_PLACEMENT_3D('',#877,#718,#719);
#641=AXIS2_PLACEMENT_3D('',#878,#720,#721);
#642=AXIS2_PLACEMENT_3D('',#880,#722,#723);
#643=AXIS2_PLACEMENT_3D('',#882,#724,#725);
#644=AXIS2_PLACEMENT_3D('',#883,#726,#727);
#645=AXIS2_PLACEMENT_3D('',#884,#728,#729);
#646=AXIS2_PLACEMENT_3D('',#885,#730,#731);
#647=AXIS2_PLACEMENT_3D('',#887,#732,#733);
#648=AXIS2_PLACEMENT_3D('',#888,#734,#735);
#649=AXIS2_PLACEMENT_3D('',#890,#737,#738);
#650=AXIS2_PLACEMENT_3D('',#896,#742,#743);
#651=AXIS2_PLACEMENT_3D('',#906,#749,#750);
#652=AXIS2_PLACEMENT_3D('',#912,#754,#755);
#653=AXIS2_PLACEMENT_3D('',#916,#758,#759);
#654=AXIS2_PLACEMENT_3D('',#920,#762,#763);
#655=AXIS2_PLACEMENT_3D('',#924,#766,#767);
#656=AXIS2_PLACEMENT_3D('',#928,#770,#771);
#657=AXIS2_PLACEMENT_3D('',#937,#774,#775);
#658=AXIS2_PLACEMENT_3D('',#958,#778,#779);
#659=AXIS2_PLACEMENT_3D('',#973,#782,#783);
#660=AXIS2_PLACEMENT_3D('',#1000,#787,#788);
#661=AXIS2_PLACEMENT_3D('',#1015,#791,#792);
#662=AXIS2_PLACEMENT_3D('',#1038,#795,#796);
#663=AXIS2_PLACEMENT_3D('',#1039,#797,#798);
#664=AXIS2_PLACEMENT_3D('',#1041,#799,#800);
#665=AXIS2_PLACEMENT_3D('',#1047,#802,#803);
#666=AXIS2_PLACEMENT_3D('',#1138,#804,#805);
#667=AXIS2_PLACEMENT_3D('',#1139,#806,#807);
#668=AXIS2_PLACEMENT_3D('',#1140,#808,#809);
#669=AXIS2_PLACEMENT_3D('',#1142,#810,#811);
#670=AXIS2_PLACEMENT_3D('',#1144,#812,#813);
#671=AXIS2_PLACEMENT_3D('',#1145,#814,#815);
#672=AXIS2_PLACEMENT_3D('',#1147,#816,#817);
#673=AXIS2_PLACEMENT_3D('',#1148,#818,#819);
#674=AXIS2_PLACEMENT_3D('',#1150,#820,#821);
#675=AXIS2_PLACEMENT_3D('',#1151,#822,#823);
#676=AXIS2_PLACEMENT_3D('',#1153,#824,#825);
#677=AXIS2_PLACEMENT_3D('',#1154,#826,#827);
#678=AXIS2_PLACEMENT_3D('',#1156,#828,#829);
#679=AXIS2_PLACEMENT_3D('',#1157,#830,#831);
#680=AXIS2_PLACEMENT_3D('',#1159,#832,#833);
#681=AXIS2_PLACEMENT_3D('',#1160,#834,#835);
#682=AXIS2_PLACEMENT_3D('',#1161,#836,#837);
#683=AXIS2_PLACEMENT_3D('',#1162,#838,#839);
#684=AXIS2_PLACEMENT_3D('',#1164,#840,#841);
#685=AXIS2_PLACEMENT_3D('',#1166,#842,#843);
#686=AXIS2_PLACEMENT_3D('',#1167,#844,#845);
#687=AXIS2_PLACEMENT_3D('',#1169,#846,#847);
#688=AXIS2_PLACEMENT_3D('',#1170,#848,#849);
#689=AXIS2_PLACEMENT_3D('',#1172,#850,#851);
#690=AXIS2_PLACEMENT_3D('',#1174,#852,#853);
#691=DIRECTION('',(0.,0.,1.));
#692=DIRECTION('',(1.,0.,0.));
#693=DIRECTION('',(0.,0.,1.));
#694=DIRECTION('',(1.,0.,0.));
#695=DIRECTION('',(-0.224685198733061,-0.974431404189276,0.));
#696=DIRECTION('',(0.,0.,-1.));
#697=DIRECTION('',(-1.,0.,0.));
#698=DIRECTION('',(0.,0.,1.));
#699=DIRECTION('',(1.,0.,0.));
#700=DIRECTION('',(0.,0.,-1.));
#701=DIRECTION('',(-1.,0.,0.));
#702=DIRECTION('',(0.,0.,-1.));
#703=DIRECTION('',(-1.,0.,0.));
#704=DIRECTION('',(0.,0.,1.));
#705=DIRECTION('',(1.,0.,0.));
#706=DIRECTION('',(0.234975851171098,0.972001208521069,0.));
#707=DIRECTION('',(0.,0.,-1.));
#708=DIRECTION('',(-1.,0.,0.));
#709=DIRECTION('',(0.,0.,1.));
#710=DIRECTION('',(1.,0.,0.));
#711=DIRECTION('',(0.,0.,-1.));
#712=DIRECTION('',(-1.,0.,0.));
#713=DIRECTION('',(-0.234975851171098,0.972001208521069,0.));
#714=DIRECTION('',(0.,0.,-1.));
#715=DIRECTION('',(-1.,0.,0.));
#716=DIRECTION('',(0.,0.,-1.));
#717=DIRECTION('',(-1.,0.,0.));
#718=DIRECTION('',(0.,0.,-1.));
#719=DIRECTION('',(-1.,0.,0.));
#720=DIRECTION('',(0.,0.,-1.));
#721=DIRECTION('',(-1.,0.,0.));
#722=DIRECTION('',(0.,0.,-1.));
#723=DIRECTION('',(-1.,0.,0.));
#724=DIRECTION('',(0.,0.,-1.));
#725=DIRECTION('',(-1.,0.,0.));
#726=DIRECTION('',(0.,0.,-1.));
#727=DIRECTION('',(-1.,0.,0.));
#728=DIRECTION('',(0.,0.,1.));
#729=DIRECTION('',(1.,0.,0.));
#730=DIRECTION('',(0.,0.,-1.));
#731=DIRECTION('',(-1.,0.,0.));
#732=DIRECTION('',(0.,0.,-1.));
#733=DIRECTION('',(-1.,0.,0.));
#734=DIRECTION('',(0.,0.,1.));
#735=DIRECTION('',(1.,0.,0.));
#736=DIRECTION('',(0.224685198733061,-0.974431404189276,0.));
#737=DIRECTION('',(0.,0.,-1.));
#738=DIRECTION('',(1.,0.,0.));
#739=DIRECTION('',(-0.234975851171098,0.972001208521069,0.));
#740=DIRECTION('',(-1.,0.,0.));
#741=DIRECTION('',(0.234975851171098,0.972001208521069,0.));
#742=DIRECTION('',(0.,0.,-1.));
#743=DIRECTION('',(1.,0.,0.));
#744=DIRECTION('',(-0.224685198733061,-0.974431404189276,0.));
#745=DIRECTION('',(0.224685198733061,-0.974431404189276,0.));
#746=DIRECTION('',(0.820398142275388,-0.571792696832596,0.));
#747=DIRECTION('',(1.,0.,0.));
#748=DIRECTION('',(-0.820398142275388,-0.571792696832596,0.));
#749=DIRECTION('',(-0.974431404189276,0.224685198733061,0.));
#750=DIRECTION('',(-0.224685198733061,-0.974431404189276,0.));
#751=DIRECTION('',(0.,0.,1.));
#752=DIRECTION('',(-0.224685198733061,-0.974431404189276,0.));
#753=DIRECTION('',(0.,0.,1.));
#754=DIRECTION('',(-0.571792696832596,0.820398142275388,0.));
#755=DIRECTION('',(-0.820398142275388,-0.571792696832596,0.));
#756=DIRECTION('',(0.,0.,1.));
#757=DIRECTION('',(-0.820398142275388,-0.571792696832596,0.));
#758=DIRECTION('',(0.,-1.,0.));
#759=DIRECTION('',(0.,0.,-1.));
#760=DIRECTION('',(0.,0.,1.));
#761=DIRECTION('',(1.,0.,0.));
#762=DIRECTION('',(-0.571792696832596,-0.820398142275388,0.));
#763=DIRECTION('',(0.820398142275388,-0.571792696832596,0.));
#764=DIRECTION('',(0.,0.,1.));
#765=DIRECTION('',(0.820398142275388,-0.571792696832596,0.));
#766=DIRECTION('',(-0.974431404189276,-0.224685198733061,0.));
#767=DIRECTION('',(0.224685198733061,-0.974431404189276,0.));
#768=DIRECTION('',(0.,0.,1.));
#769=DIRECTION('',(0.224685198733061,-0.974431404189276,0.));
#770=DIRECTION('',(0.972001208521069,-0.234975851171098,0.));
#771=DIRECTION('',(0.234975851171098,0.972001208521069,0.));
#772=DIRECTION('',(0.,0.,1.));
#773=DIRECTION('',(0.234975851171098,0.972001208521069,0.));
#774=DIRECTION('',(0.76491134100642,-0.644135576101616,0.));
#775=DIRECTION('',(0.644135576101616,0.76491134100642,0.));
#776=DIRECTION('',(0.,0.,1.));
#777=DIRECTION('',(0.644135576101616,0.76491134100642,0.));
#778=DIRECTION('',(1.,0.,0.));
#779=DIRECTION('',(0.,0.,-1.));
#780=DIRECTION('',(0.,0.,1.));
#781=DIRECTION('',(0.,1.,0.));
#782=DIRECTION('',(0.,-1.,0.));
#783=DIRECTION('',(0.,0.,-1.));
#784=DIRECTION('',(-1.,0.,0.));
#785=DIRECTION('',(0.,0.,1.));
#786=DIRECTION('',(1.,0.,0.));
#787=DIRECTION('',(1.,0.,0.));
#788=DIRECTION('',(0.,0.,-1.));
#789=DIRECTION('',(0.,0.,1.));
#790=DIRECTION('',(0.,1.,0.));
#791=DIRECTION('',(0.76491134100642,0.644135576101616,0.));
#792=DIRECTION('',(-0.644135576101616,0.76491134100642,0.));
#793=DIRECTION('',(0.,0.,1.));
#794=DIRECTION('',(-0.644135576101616,0.76491134100642,0.));
#795=DIRECTION('',(0.,0.,1.));
#796=DIRECTION('',(1.,0.,0.));
#797=DIRECTION('',(0.,0.,-1.));
#798=DIRECTION('',(-1.,0.,0.));
#799=DIRECTION('',(0.972001208521069,0.234975851171098,0.));
#800=DIRECTION('',(-0.234975851171098,0.972001208521069,0.));
#801=DIRECTION('',(-0.234975851171098,0.972001208521069,0.));
#802=DIRECTION('',(0.,0.,-1.));
#803=DIRECTION('',(1.,0.,0.));
#804=DIRECTION('',(0.,0.,1.));
#805=DIRECTION('',(1.,0.,0.));
#806=DIRECTION('',(0.,0.,-1.));
#807=DIRECTION('',(-1.,0.,0.));
#808=DIRECTION('',(0.,0.,-1.));
#809=DIRECTION('',(-1.,0.,0.));
#810=DIRECTION('',(0.,0.,-1.));
#811=DIRECTION('',(-1.,0.,0.));
#812=DIRECTION('',(0.,0.,-1.));
#813=DIRECTION('',(-1.,0.,0.));
#814=DIRECTION('',(0.,0.,-1.));
#815=DIRECTION('',(-1.,0.,0.));
#816=DIRECTION('',(0.,0.,-1.));
#817=DIRECTION('',(-1.,0.,0.));
#818=DIRECTION('',(0.,0.,-1.));
#819=DIRECTION('',(-1.,0.,0.));
#820=DIRECTION('',(0.,0.,1.));
#821=DIRECTION('',(1.,0.,0.));
#822=DIRECTION('',(0.,0.,-1.));
#823=DIRECTION('',(-1.,0.,0.));
#824=DIRECTION('',(0.,0.,-1.));
#825=DIRECTION('',(-1.,0.,0.));
#826=DIRECTION('',(0.,0.,-1.));
#827=DIRECTION('',(-1.,0.,0.));
#828=DIRECTION('',(0.,0.,-1.));
#829=DIRECTION('',(-1.,0.,0.));
#830=DIRECTION('',(0.,0.,-1.));
#831=DIRECTION('',(-1.,0.,0.));
#832=DIRECTION('',(0.,0.,-1.));
#833=DIRECTION('',(-1.,0.,0.));
#834=DIRECTION('',(0.,0.,1.));
#835=DIRECTION('',(1.,0.,0.));
#836=DIRECTION('',(0.,0.,1.));
#837=DIRECTION('',(1.,0.,0.));
#838=DIRECTION('',(0.,0.,1.));
#839=DIRECTION('',(1.,0.,0.));
#840=DIRECTION('',(0.,0.,1.));
#841=DIRECTION('',(1.,0.,0.));
#842=DIRECTION('',(0.,0.,1.));
#843=DIRECTION('',(1.,0.,0.));
#844=DIRECTION('',(0.,0.,1.));
#845=DIRECTION('',(1.,0.,0.));
#846=DIRECTION('',(0.,0.,1.));
#847=DIRECTION('',(1.,0.,0.));
#848=DIRECTION('',(0.,0.,1.));
#849=DIRECTION('',(1.,0.,0.));
#850=DIRECTION('',(0.,0.,-1.));
#851=DIRECTION('',(-1.,0.,0.));
#852=DIRECTION('',(0.,0.,-1.));
#853=DIRECTION('',(-1.,0.,0.));
#854=CARTESIAN_POINT('',(0.,0.,0.));
#855=CARTESIAN_POINT('',(0.0241640284657479,0.,-0.104915643417835));
#856=CARTESIAN_POINT('',(0.0264156460762024,-0.00970467925071716,-0.104915643417835));
#857=CARTESIAN_POINT('',(0.0286533590406179,5.8113236445223E-17,-0.104915643417835));
#858=CARTESIAN_POINT('',(0.0257603188610242,-0.012546750833938,-0.104915643417835));
#859=CARTESIAN_POINT('',(-5.20417042793042E-18,0.,-0.104915643417835));
#860=CARTESIAN_POINT('',(0.0241640284657479,0.,-0.104915643417835));
#861=CARTESIAN_POINT('',(-6.45347701030042E-18,0.,-0.104915643417835));
#862=CARTESIAN_POINT('',(-0.0204027248222069,0.,-0.104915643417835));
#863=CARTESIAN_POINT('',(-5.20417042793042E-18,0.,-0.104915643417835));
#864=CARTESIAN_POINT('',(-0.0196746978908778,0.,-0.104915643417835));
#865=CARTESIAN_POINT('',(0.0241640284657479,0.,-0.104915643417835));
#866=CARTESIAN_POINT('',(-0.023935073055327,0.0195176638662815,-0.104915643417835));
#867=CARTESIAN_POINT('',(-0.0286533590406179,0.,-0.104915643417835));
#868=CARTESIAN_POINT('',(-0.0254892459295234,0.0130886716764856,-0.104915643417835));
#869=CARTESIAN_POINT('',(-5.20417042793042E-18,0.,-0.104915643417835));
#870=CARTESIAN_POINT('',(0.0241640284657479,0.,-0.104915643417835));
#871=CARTESIAN_POINT('',(-5.20417042793042E-18,0.,-0.104915643417835));
#872=CARTESIAN_POINT('',(0.0254892459295234,0.0130886716764856,-0.104915643417835));
#873=CARTESIAN_POINT('',(0.023935073055327,0.0195176638662815,-0.104915643417835));
#874=CARTESIAN_POINT('',(-5.20417042793042E-18,0.,0.26692008972168));
#875=CARTESIAN_POINT('',(-5.20417042793042E-18,0.,0.315825790166855));
#876=CARTESIAN_POINT('',(-0.0196746978908778,0.,0.315825790166855));
#877=CARTESIAN_POINT('',(-5.20417042793042E-18,0.,0.26692008972168));
#878=CARTESIAN_POINT('',(-5.20417042793042E-18,0.,0.300838589668274));
#879=CARTESIAN_POINT('',(-0.028653359040618,0.,0.300838589668274));
#880=CARTESIAN_POINT('',(-5.20417042793042E-18,0.,-0.104915643417835));
#881=CARTESIAN_POINT('',(-0.0257603188610242,-0.012546750833938,-0.104915643417835));
#882=CARTESIAN_POINT('',(-5.20417042793042E-18,0.,-0.104915643417835));
#883=CARTESIAN_POINT('',(-5.20417042793042E-18,0.,-0.104915643417835));
#884=CARTESIAN_POINT('',(-5.20417042793042E-18,0.,0.315825790166855));
#885=CARTESIAN_POINT('',(-5.20417042793042E-18,0.,0.315825790166855));
#886=CARTESIAN_POINT('',(-0.0379503034055233,0.,0.315825790166855));
#887=CARTESIAN_POINT('',(0.0288125006482005,0.,0.315825790166855));
#888=CARTESIAN_POINT('',(0.0241640284657479,0.,-0.104915643417835));
#889=CARTESIAN_POINT('',(-0.0264156460762024,-0.00970467925071716,-0.104915643417835));
#890=CARTESIAN_POINT('',(0.,0.0299942158162594,-0.104915643417835));
#891=CARTESIAN_POINT('',(0.023935073055327,0.0195176638662815,-0.104915643417835));
#892=CARTESIAN_POINT('',(0.0200599369360332,0.0355475536288446,-0.104915643417835));
#893=CARTESIAN_POINT('',(0.0635,0.0355475536288446,-0.104915643417835));
#894=CARTESIAN_POINT('',(-0.0200599369360332,0.0355475536288446,-0.104915643417835));
#895=CARTESIAN_POINT('',(-0.023935073055327,0.0195176638662815,-0.104915643417835));
#896=CARTESIAN_POINT('',(0.,0.0299942158162594,-0.104915643417835));
#897=CARTESIAN_POINT('',(0.0264156460762024,-0.00970467925071716,-0.104915643417835));
#898=CARTESIAN_POINT('',(0.0241779331117868,-0.0194093585014344,-0.104915643417835));
#899=CARTESIAN_POINT('',(-0.0264156460762024,-0.00970467925071716,-0.104915643417835));
#900=CARTESIAN_POINT('',(-0.0241779331117868,-0.0194093585014344,-0.104915643417835));
#901=CARTESIAN_POINT('',(-0.0154206196311862,-0.0255129411816597,-0.104915643417835));
#902=CARTESIAN_POINT('',(-0.00666330615058542,-0.031616523861885,-0.104915643417835));
#903=CARTESIAN_POINT('',(-0.00333165307529271,-0.031616523861885,-0.104915643417835));
#904=CARTESIAN_POINT('',(0.00666330615058541,-0.031616523861885,-0.104915643417835));
#905=CARTESIAN_POINT('',(0.0154206196311862,-0.0255129411816597,-0.104915643417835));
#906=CARTESIAN_POINT('',(0.0264156460762024,-0.00970467925071716,-0.170955643417836));
#907=CARTESIAN_POINT('',(0.0241779331117868,-0.0194093585014344,-0.170955643417836));
#908=CARTESIAN_POINT('',(0.0241779331117868,-0.0194093585014344,-0.170955643417836));
#909=CARTESIAN_POINT('',(0.0264156460762024,-0.00970467925071716,-0.170955643417836));
#910=CARTESIAN_POINT('',(0.0286533590406179,5.8113236445223E-17,-0.170955643417836));
#911=CARTESIAN_POINT('',(0.0286533590406179,5.8113236445223E-17,-0.170955643417836));
#912=CARTESIAN_POINT('',(0.0154206196311862,-0.0255129411816597,-0.170955643417836));
#913=CARTESIAN_POINT('',(0.00666330615058541,-0.031616523861885,-0.170955643417836));
#914=CARTESIAN_POINT('',(0.00666330615058541,-0.031616523861885,-0.170955643417836));
#915=CARTESIAN_POINT('',(0.0154206196311862,-0.0255129411816597,-0.170955643417836));
#916=CARTESIAN_POINT('',(-0.00333165307529271,-0.031616523861885,-0.170955643417836));
#917=CARTESIAN_POINT('',(-0.00666330615058542,-0.031616523861885,-0.170955643417836));
#918=CARTESIAN_POINT('',(-0.00666330615058542,-0.031616523861885,-0.170955643417836));
#919=CARTESIAN_POINT('',(-0.00333165307529271,-0.031616523861885,-0.170955643417836));
#920=CARTESIAN_POINT('',(-0.0154206196311862,-0.0255129411816597,-0.170955643417836));
#921=CARTESIAN_POINT('',(-0.0241779331117868,-0.0194093585014344,-0.170955643417836));
#922=CARTESIAN_POINT('',(-0.0241779331117868,-0.0194093585014344,-0.170955643417836));
#923=CARTESIAN_POINT('',(-0.0154206196311862,-0.0255129411816597,-0.170955643417836));
#924=CARTESIAN_POINT('',(-0.0264156460762024,-0.00970467925071716,-0.170955643417836));
#925=CARTESIAN_POINT('',(-0.0286533590406179,0.,-0.170955643417836));
#926=CARTESIAN_POINT('',(-0.0286533590406179,0.,-0.170955643417836));
#927=CARTESIAN_POINT('',(-0.0264156460762024,-0.00970467925071716,-0.170955643417836));
#928=CARTESIAN_POINT('',(-0.023935073055327,0.0195176638662815,-0.170955643417836));
#929=CARTESIAN_POINT('',(-0.0200599369360332,0.0355475536288446,-0.104915643417835));
#930=CARTESIAN_POINT('',(-0.0197888126773305,0.0366690863557395,-0.106515454263027));
#931=CARTESIAN_POINT('',(-0.0195083809802637,0.0378291202362344,-0.108085042117184));
#932=CARTESIAN_POINT('',(-0.019216787070036,0.039035327732563,-0.109618384180061));
#933=CARTESIAN_POINT('',(-0.019216787070036,0.039035327732563,-0.109618384180061));
#934=CARTESIAN_POINT('',(-0.019216787070036,0.039035327732563,-0.170955643417836));
#935=CARTESIAN_POINT('',(-0.019216787070036,0.039035327732563,-0.170955643417836));
#936=CARTESIAN_POINT('',(-0.023935073055327,0.0195176638662815,-0.170955643417836));
#937=CARTESIAN_POINT('',(-0.0170938023366034,0.0415563732385636,-0.170955643417836));
#938=CARTESIAN_POINT('',(-0.019216787070036,0.039035327732563,-0.109618384180061));
#939=CARTESIAN_POINT('',(-0.016659088346206,0.0420725963345794,-0.113479387960838));
#940=CARTESIAN_POINT('',(-0.0111408443777779,0.0486255139974055,-0.120587260320183));
#941=CARTESIAN_POINT('',(-0.00487630316010439,0.0560646600427167,-0.125575068759065));
#942=CARTESIAN_POINT('',(-0.00148019221663004,0.0600975436038162,-0.127356054120798));
#943=CARTESIAN_POINT('',(-0.00148019221663001,0.0600975436038162,-0.127356054120798));
#944=CARTESIAN_POINT('',(-0.00148019221663001,0.0600975436038162,-0.127356054120798));
#945=CARTESIAN_POINT('',(-0.0028262532895056,0.0584990953601077,-0.126650154017212));
#946=CARTESIAN_POINT('',(-0.00485976960104032,0.056084293652945,-0.125693115133037));
#947=CARTESIAN_POINT('',(-0.00764647518007955,0.0527750792879295,-0.124892528230565));
#948=CARTESIAN_POINT('',(-0.00979039303019158,0.0502291756946802,-0.124710722048037));
#949=CARTESIAN_POINT('',(-0.011928644796773,0.0476900005786529,-0.125283179990716));
#950=CARTESIAN_POINT('',(-0.0137707870951724,0.045502455614406,-0.127146072452004));
#951=CARTESIAN_POINT('',(-0.014803687931396,0.0442758853191522,-0.130197151650814));
#952=CARTESIAN_POINT('',(-0.0149708176031709,0.0440774187445641,-0.132390343380294));
#953=CARTESIAN_POINT('',(-0.0149708176031709,0.0440774187445641,-0.133504750119073));
#954=CARTESIAN_POINT('',(-0.0149708176031709,0.044077418744564,-0.133504750119073));
#955=CARTESIAN_POINT('',(-0.0149708176031709,0.044077418744564,-0.170955643417836));
#956=CARTESIAN_POINT('',(-0.0149708176031709,0.044077418744564,-0.170955643417836));
#957=CARTESIAN_POINT('',(-0.0170938023366034,0.0415563732385636,-0.170955643417836));
#958=CARTESIAN_POINT('',(-0.0149708176031709,0.067841187119484,-0.170955643417836));
#959=CARTESIAN_POINT('',(-0.0149708176031709,0.044077418744564,-0.133504750119073));
#960=CARTESIAN_POINT('',(-0.0149708176031709,0.0474676849361863,-0.136004666606391));
#961=CARTESIAN_POINT('',(-0.0149708176031709,0.0528391301049283,-0.139195556817379));
#962=CARTESIAN_POINT('',(-0.0149708176031709,0.0607703747338015,-0.142076744287626));
#963=CARTESIAN_POINT('',(-0.0149708176031709,0.0669857014616689,-0.143404737758295));
#964=CARTESIAN_POINT('',(-0.0149708176031709,0.0732062349265667,-0.143841559172649));
#965=CARTESIAN_POINT('',(-0.0149708176031709,0.0794746562393343,-0.143415708090239));
#966=CARTESIAN_POINT('',(-0.0149708176031709,0.0856771148205926,-0.14214297675045));
#967=CARTESIAN_POINT('',(-0.0149708176031709,0.089647101628432,-0.140803692175053));
#968=CARTESIAN_POINT('',(-0.0149708176031709,0.0916049554944038,-0.140021152176368));
#969=CARTESIAN_POINT('',(-0.0149708176031709,0.0916049554944038,-0.140021152176368));
#970=CARTESIAN_POINT('',(-0.0149708176031709,0.0916049554944038,-0.170955643417836));
#971=CARTESIAN_POINT('',(-0.0149708176031709,0.0916049554944038,-0.170955643417836));
#972=CARTESIAN_POINT('',(-0.0149708176031709,0.067841187119484,-0.170955643417836));
#973=CARTESIAN_POINT('',(-0.00748540880158544,0.0916049554944038,-0.170955643417836));
#974=CARTESIAN_POINT('',(0.0635,0.0916049554943999,-0.125141557257337));
#975=CARTESIAN_POINT('',(-0.00148019221663001,0.0916049554943999,-0.125141557257337));
#976=CARTESIAN_POINT('',(0.00148019221663001,0.0916049554943999,-0.125141557257337));
#977=CARTESIAN_POINT('',(0.00148019221663001,0.0916049554943999,-0.125141557257337));
#978=CARTESIAN_POINT('',(0.00241644184550906,0.0916049554943999,-0.125141557257337));
#979=CARTESIAN_POINT('',(0.00424870104833831,0.0916049554944056,-0.125358493596802));
#980=CARTESIAN_POINT('',(0.00778067610859618,0.0916049554944028,-0.126632996163303));
#981=CARTESIAN_POINT('',(0.0114720829541492,0.0916049554944042,-0.12957010782588));
#982=CARTESIAN_POINT('',(0.0143063088138589,0.0916049554944037,-0.13446011637331));
#983=CARTESIAN_POINT('',(0.0149708176031709,0.0916049554944038,-0.138153101169737));
#984=CARTESIAN_POINT('',(0.0149708176031709,0.0916049554944038,-0.140021152176368));
#985=CARTESIAN_POINT('',(0.0149708176031709,0.0916049554944038,-0.140021152176368));
#986=CARTESIAN_POINT('',(0.0149708176031709,0.0916049554944038,-0.170955643417836));
#987=CARTESIAN_POINT('',(0.0149708176031709,0.0916049554944038,-0.170955643417836));
#988=CARTESIAN_POINT('',(-0.00748540880158544,0.0916049554944038,-0.170955643417836));
#989=CARTESIAN_POINT('',(-0.0149708176031709,0.0916049554944039,-0.140021152176368));
#990=CARTESIAN_POINT('',(-0.0149708176031709,0.0916049554944039,-0.139085618106267));
#991=CARTESIAN_POINT('',(-0.0148067048484427,0.0916049554944038,-0.137247854013834));
#992=CARTESIAN_POINT('',(-0.014076965275512,0.0916049554944038,-0.134541882309014));
#993=CARTESIAN_POINT('',(-0.012897713185489,0.0916049554944038,-0.132027212755259));
#994=CARTESIAN_POINT('',(-0.0112706224471259,0.0916049554944038,-0.129739575857883));
#995=CARTESIAN_POINT('',(-0.00927455078285938,0.0916049554944038,-0.127821131066603));
#996=CARTESIAN_POINT('',(-0.00689331135515449,0.0916049554944038,-0.126313768382429));
#997=CARTESIAN_POINT('',(-0.00429248899708134,0.0916049554944038,-0.125368999910292));
#998=CARTESIAN_POINT('',(-0.00241871562831738,0.0916049554944038,-0.125141557257335));
#999=CARTESIAN_POINT('',(-0.00148019221663029,0.0916049554944038,-0.125141557257335));
#1000=CARTESIAN_POINT('',(0.0149708176031709,0.067841187119484,-0.170955643417836));
#1001=CARTESIAN_POINT('',(0.0149708176031709,0.0916049554944039,-0.140021152176368));
#1002=CARTESIAN_POINT('',(0.0149708176031709,0.089647101628432,-0.140803692175053));
#1003=CARTESIAN_POINT('',(0.0149708176031709,0.0856771148205923,-0.14214297675045));
#1004=CARTESIAN_POINT('',(0.0149708176031709,0.0794746562393339,-0.143415708090239));
#1005=CARTESIAN_POINT('',(0.0149708176031709,0.0732062349265663,-0.143841559172649));
#1006=CARTESIAN_POINT('',(0.0149708176031709,0.0669857014616684,-0.143404737758295));
#1007=CARTESIAN_POINT('',(0.0149708176031709,0.0607703747338007,-0.142076744287626));
#1008=CARTESIAN_POINT('',(0.0149708176031709,0.0528391301049281,-0.139195556817379));
#1009=CARTESIAN_POINT('',(0.0149708176031709,0.0474676849361862,-0.136004666606391));
#1010=CARTESIAN_POINT('',(0.0149708176031709,0.044077418744564,-0.133504750119073));
#1011=CARTESIAN_POINT('',(0.0149708176031709,0.044077418744564,-0.133504750119073));
#1012=CARTESIAN_POINT('',(0.0149708176031709,0.044077418744564,-0.170955643417836));
#1013=CARTESIAN_POINT('',(0.0149708176031709,0.044077418744564,-0.170955643417836));
#1014=CARTESIAN_POINT('',(0.0149708176031709,0.067841187119484,-0.170955643417836));
#1015=CARTESIAN_POINT('',(0.0170938023366034,0.0415563732385636,-0.170955643417836));
#1016=CARTESIAN_POINT('',(0.019216787070036,0.039035327732563,-0.109618384180061));
#1017=CARTESIAN_POINT('',(0.016659088346206,0.0420725963345794,-0.113479387960838));
#1018=CARTESIAN_POINT('',(0.0111408443777779,0.0486255139974055,-0.120587260320183));
#1019=CARTESIAN_POINT('',(0.0048763031601044,0.0560646600427167,-0.125575068759065));
#1020=CARTESIAN_POINT('',(0.00148019221663005,0.0600975436038162,-0.127356054120798));
#1021=CARTESIAN_POINT('',(0.019216787070036,0.039035327732563,-0.109618384180061));
#1022=CARTESIAN_POINT('',(0.00148019221663001,0.0600975436038162,-0.127356054120798));
#1023=CARTESIAN_POINT('',(0.019216787070036,0.039035327732563,-0.170955643417836));
#1024=CARTESIAN_POINT('',(0.019216787070036,0.039035327732563,-0.170955643417836));
#1025=CARTESIAN_POINT('',(0.0170938023366034,0.0415563732385636,-0.170955643417836));
#1026=CARTESIAN_POINT('',(0.0149708176031709,0.044077418744564,-0.133504750119073));
#1027=CARTESIAN_POINT('',(0.0149708176031709,0.044077418744564,-0.132389129840077));
#1028=CARTESIAN_POINT('',(0.0148362372152903,0.0442372330271254,-0.130712233815399));
#1029=CARTESIAN_POINT('',(0.0142915651896828,0.044884031348742,-0.128672153498803));
#1030=CARTESIAN_POINT('',(0.013458532985937,0.0458732575360691,-0.126831772646958));
#1031=CARTESIAN_POINT('',(0.0122396312797379,0.0473207039638638,-0.12559199219578));
#1032=CARTESIAN_POINT('',(0.0108454634804645,0.04897627897089,-0.124995733193188));
#1033=CARTESIAN_POINT('',(0.00943370785699465,0.0506527395285526,-0.124740749454829));
#1034=CARTESIAN_POINT('',(0.00763630799895411,0.0527871528209518,-0.124894257787788));
#1035=CARTESIAN_POINT('',(0.00485980449580718,0.0560842522153907,-0.125694163503969));
#1036=CARTESIAN_POINT('',(0.00282552375204882,0.0584999616862276,-0.12665053660057));
#1037=CARTESIAN_POINT('',(0.00148019221663001,0.0600975436038162,-0.127356054120798));
#1038=CARTESIAN_POINT('',(-6.45347701030042E-18,0.,-0.170955643417836));
#1039=CARTESIAN_POINT('',(-6.45347701030042E-18,0.,-0.170955643417836));
#1040=CARTESIAN_POINT('',(-0.0204027248222069,0.,-0.170955643417836));
#1041=CARTESIAN_POINT('',(0.023935073055327,0.0195176638662815,-0.170955643417836));
#1042=CARTESIAN_POINT('',(0.0200599369360332,0.0355475536288446,-0.104915643417835));
#1043=CARTESIAN_POINT('',(0.0197888126773305,0.0366690863557395,-0.106515454263027));
#1044=CARTESIAN_POINT('',(0.0195083809802637,0.0378291202362344,-0.108085042117184));
#1045=CARTESIAN_POINT('',(0.019216787070036,0.039035327732563,-0.109618384180061));
#1046=CARTESIAN_POINT('',(0.023935073055327,0.0195176638662815,-0.170955643417836));
#1047=CARTESIAN_POINT('',(0.,0.0299942158162594,-0.170955643417836));
#1048=CARTESIAN_POINT('',(0.0203006561792656,0.0916049554943999,-0.125141557257337));
#1049=CARTESIAN_POINT('',(-0.0203006561792656,0.0916049554943999,-0.125141557257337));
#1050=CARTESIAN_POINT('',(0.0203006561792656,0.0713436287277899,-0.136064573153936));
#1051=CARTESIAN_POINT('',(-0.0203006561792656,0.0713436287277899,-0.136064573153936));
#1052=CARTESIAN_POINT('',(0.0203006561792656,0.0526578281059382,-0.129322601874102));
#1053=CARTESIAN_POINT('',(-0.0203006561792656,0.0526578281059382,-0.129322601874102));
#1054=CARTESIAN_POINT('',(0.0203006561792656,0.0355475536288447,-0.104915643417835));
#1055=CARTESIAN_POINT('',(-0.0203006561792656,0.0355475536288447,-0.104915643417835));
#1056=CARTESIAN_POINT('',(0.00148019221663001,0.0600975436038162,-0.127356054120798));
#1057=CARTESIAN_POINT('',(0.00148019221663001,0.0626158341762777,-0.128468171189937));
#1058=CARTESIAN_POINT('',(0.00148019221662999,0.0679421423479633,-0.130116947140081));
#1059=CARTESIAN_POINT('',(0.00148019221663,0.0747303671748458,-0.130375519531835));
#1060=CARTESIAN_POINT('',(0.00148019221663,0.0801824238839598,-0.12954462263582));
#1061=CARTESIAN_POINT('',(0.00148019221662999,0.085423442987528,-0.128113527804264));
#1062=CARTESIAN_POINT('',(0.00148019221663001,0.0891894654723248,-0.126443763979193));
#1063=CARTESIAN_POINT('',(0.00148019221663001,0.0916049554943999,-0.125141557257337));
#1064=CARTESIAN_POINT('',(-0.00148019221663001,0.0916049554943999,-0.125141557257337));
#1065=CARTESIAN_POINT('',(-0.00148019221663001,0.0891894654714812,-0.126443763977527));
#1066=CARTESIAN_POINT('',(-0.00148019221662999,0.0854234429877177,-0.128113527804639));
#1067=CARTESIAN_POINT('',(-0.00148019221663,0.0801824238839248,-0.129544622635751));
#1068=CARTESIAN_POINT('',(-0.00148019221663,0.074730367174866,-0.130375519531875));
#1069=CARTESIAN_POINT('',(-0.00148019221662999,0.0679421423479558,-0.130116947140066));
#1070=CARTESIAN_POINT('',(-0.00148019221663001,0.0626158341762777,-0.128468171189937));
#1071=CARTESIAN_POINT('',(-0.00148019221663001,0.0600975436038162,-0.127356054120798));
#1072=CARTESIAN_POINT('',(0.0149708176031709,0.0416728088613826,-0.131643290016021));
#1073=CARTESIAN_POINT('',(0.0149708176031709,0.0501724163646151,-0.121166952602069));
#1074=CARTESIAN_POINT('',(0.00148019221663001,0.0501724163646151,-0.121166952602069));
#1075=CARTESIAN_POINT('',(0.0149708176031709,0.0436417954620799,-0.13324075796962));
#1076=CARTESIAN_POINT('',(0.0149708176031926,0.0517518433357244,-0.122448365065848));
#1077=CARTESIAN_POINT('',(0.00148019221663001,0.0517518433358352,-0.122448365065695));
#1078=CARTESIAN_POINT('',(0.0149708176031709,0.0477759308375913,-0.136224573884191));
#1079=CARTESIAN_POINT('',(0.0149708176031608,0.0549958486538997,-0.12478284221774));
#1080=CARTESIAN_POINT('',(0.00148019221663001,0.0549958486538483,-0.124782842217811));
#1081=CARTESIAN_POINT('',(0.0149708176031709,0.0544053569311559,-0.139797296411472));
#1082=CARTESIAN_POINT('',(0.0149708176031736,0.0599561425136561,-0.127445272728007));
#1083=CARTESIAN_POINT('',(0.00148019221663001,0.0599561425136698,-0.127445272727988));
#1084=CARTESIAN_POINT('',(0.0149708176031709,0.0616291341874135,-0.142386306116894));
#1085=CARTESIAN_POINT('',(0.0149708176031701,0.0651359573139973,-0.129293493754761));
#1086=CARTESIAN_POINT('',(0.00148019221663001,0.065135957313994,-0.129293493754766));
#1087=CARTESIAN_POINT('',(0.0149708176031709,0.0691789977968667,-0.143725953381732));
#1088=CARTESIAN_POINT('',(0.0149708176031711,0.0704089264117663,-0.130225714085965));
#1089=CARTESIAN_POINT('',(0.00148019221663001,0.070408926411766,-0.130225714085962));
#1090=CARTESIAN_POINT('',(0.0149708176031709,0.076709127131794,-0.143777288754818));
#1091=CARTESIAN_POINT('',(0.0149708176031705,0.075665167661648,-0.130264677784082));
#1092=CARTESIAN_POINT('',(0.00148019221663001,0.0756651676616526,-0.130264677784089));
#1093=CARTESIAN_POINT('',(0.0149708176031709,0.084300186238471,-0.142560676881836));
#1094=CARTESIAN_POINT('',(0.014970817603172,0.0810987095017513,-0.129401381217428));
#1095=CARTESIAN_POINT('',(0.00148019221663001,0.0810987095017333,-0.129401381217403));
#1096=CARTESIAN_POINT('',(0.0149708176031709,0.0914854068867482,-0.140248484966129));
#1097=CARTESIAN_POINT('',(0.0149708176031666,0.0864635705484825,-0.127685192804171));
#1098=CARTESIAN_POINT('',(0.00148019221663001,0.0864635705485497,-0.127685192804263));
#1099=CARTESIAN_POINT('',(0.0149708176031709,0.0961056295463211,-0.138055600088669));
#1100=CARTESIAN_POINT('',(0.0149708176031802,0.0900820492341098,-0.125973943145107));
#1101=CARTESIAN_POINT('',(0.00148019221663001,0.090082049233965,-0.125973943144909));
#1102=CARTESIAN_POINT('',(0.0149708176031709,0.0983228424715973,-0.136844991274679));
#1103=CARTESIAN_POINT('',(0.0149708176031709,0.0918578073081371,-0.12500437078185));
#1104=CARTESIAN_POINT('',(0.00148019221663001,0.0918578073081371,-0.12500437078185));
#1105=CARTESIAN_POINT('',(-0.00148019221663001,0.0501732855642203,-0.121167657781818));
#1106=CARTESIAN_POINT('',(-0.0149708176031709,0.0501732855642203,-0.121167657781818));
#1107=CARTESIAN_POINT('',(-0.0149708176031709,0.0416738924501818,-0.131644169129256));
#1108=CARTESIAN_POINT('',(-0.00148019221663001,0.0517526928990234,-0.122449000719414));
#1109=CARTESIAN_POINT('',(-0.0149708176031584,0.051752692898822,-0.122449000719618));
#1110=CARTESIAN_POINT('',(-0.0149708176031709,0.0436428706757931,-0.133241563473966));
#1111=CARTESIAN_POINT('',(-0.00148019221663001,0.0549966353620402,-0.124783328546759));
#1112=CARTESIAN_POINT('',(-0.0149708176031766,0.0549966353621337,-0.124783328546665));
#1113=CARTESIAN_POINT('',(-0.0149708176031709,0.0477769600540406,-0.13622521320013));
#1114=CARTESIAN_POINT('',(-0.00148019221663001,0.059956837959248,-0.127445577257983));
#1115=CARTESIAN_POINT('',(-0.0149708176031693,0.059956837959223,-0.127445577258008));
#1116=CARTESIAN_POINT('',(-0.0149708176031709,0.0544063099109359,-0.139797716187538));
#1117=CARTESIAN_POINT('',(-0.00148019221663001,0.0651365599263504,-0.129293646828347));
#1118=CARTESIAN_POINT('',(-0.0149708176031712,0.0651365599263569,-0.12929364682834));
#1119=CARTESIAN_POINT('',(-0.0149708176031709,0.0616299905221715,-0.142386524958348));
#1120=CARTESIAN_POINT('',(-0.00148019221663001,0.0704094030837566,-0.130225750213436));
#1121=CARTESIAN_POINT('',(-0.014970817603171,0.0704094030837554,-0.130225750213437));
#1122=CARTESIAN_POINT('',(-0.0149708176031709,0.0691796836350048,-0.143726005290007));
#1123=CARTESIAN_POINT('',(-0.00148019221663001,0.0756655335959021,-0.130264643515281));
#1124=CARTESIAN_POINT('',(-0.0149708176031701,0.0756655335959002,-0.130264643515282));
#1125=CARTESIAN_POINT('',(-0.0149708176031709,0.076709645335013,-0.143777239397662));
#1126=CARTESIAN_POINT('',(-0.00148019221663001,0.0810989524636083,-0.12940131585341));
#1127=CARTESIAN_POINT('',(-0.0149708176031739,0.081098952463617,-0.129401315853404));
#1128=CARTESIAN_POINT('',(-0.0149708176031709,0.084300516684214,-0.142560587099468));
#1129=CARTESIAN_POINT('',(-0.00148019221663001,0.0864636892341066,-0.127685139331313));
#1130=CARTESIAN_POINT('',(-0.0149708176031594,0.0864636892340737,-0.127685139331338));
#1131=CARTESIAN_POINT('',(-0.0149708176031709,0.0914855594700529,-0.140248415720959));
#1132=CARTESIAN_POINT('',(-0.00148019221663001,0.09008208430993,-0.125973923711185));
#1133=CARTESIAN_POINT('',(-0.0149708176031957,0.0900820843100008,-0.125973923711131));
#1134=CARTESIAN_POINT('',(-0.0149708176031709,0.0961056732340179,-0.138055575882793));
#1135=CARTESIAN_POINT('',(-0.00148019221663001,0.0918578014796649,-0.125004373964223));
#1136=CARTESIAN_POINT('',(-0.0149708176031709,0.0918578014796649,-0.125004373964223));
#1137=CARTESIAN_POINT('',(-0.0149708176031709,0.0983228351941622,-0.136844995248193));
#1138=CARTESIAN_POINT('',(0.,0.,0.));
#1139=CARTESIAN_POINT('',(0.,0.,-0.00236665271222592));
#1140=CARTESIAN_POINT('',(0.,0.,0.));
#1141=CARTESIAN_POINT('',(-0.0117013957351446,0.,0.));
#1142=CARTESIAN_POINT('',(0.,0.,0.00974847748875618));
#1143=CARTESIAN_POINT('',(-0.0117013957351446,0.,0.00974847748875618));
#1144=CARTESIAN_POINT('',(0.,0.,0.00987945217639208));
#1145=CARTESIAN_POINT('',(0.,0.,0.00987945217639208));
#1146=CARTESIAN_POINT('',(-0.0079031391069293,0.,0.00987945217639208));
#1147=CARTESIAN_POINT('',(0.,0.,-0.00236665271222592));
#1148=CARTESIAN_POINT('',(0.,0.,-0.00269408826716244));
#1149=CARTESIAN_POINT('',(-0.0079031391069293,0.,-0.00269408826716244));
#1150=CARTESIAN_POINT('',(0.0122252940200269,0.,-0.00269408826716244));
#1151=CARTESIAN_POINT('',(0.,0.,-0.00269408826716244));
#1152=CARTESIAN_POINT('',(-0.0165474489331245,0.,-0.00269408826716244));
#1153=CARTESIAN_POINT('',(0.,0.,-0.00236665271222592));
#1154=CARTESIAN_POINT('',(0.,0.,-0.00118788285180926));
#1155=CARTESIAN_POINT('',(-0.0165474489331245,0.,-0.00118788285180926));
#1156=CARTESIAN_POINT('',(0.0144846020266414,0.,-0.00118788285180926));
#1157=CARTESIAN_POINT('',(0.,0.,-0.00118788285180926));
#1158=CARTESIAN_POINT('',(-0.0124217551201582,0.,-0.00118788285180926));
#1159=CARTESIAN_POINT('',(0.,0.,0.));
#1160=CARTESIAN_POINT('',(0.,0.,0.));
#1161=CARTESIAN_POINT('',(1.7347234759768E-18,0.,0.217018573080715));
#1162=CARTESIAN_POINT('',(1.7347234759768E-18,0.,0.191460810137516));
#1163=CARTESIAN_POINT('',(0.0127,0.,0.191460810137516));
#1164=CARTESIAN_POINT('',(1.7347234759768E-18,0.,0.));
#1165=CARTESIAN_POINT('',(0.0127,0.,0.));
#1166=CARTESIAN_POINT('',(0.015837820789218,0.,0.));
#1167=CARTESIAN_POINT('',(1.7347234759768E-18,0.,0.));
#1168=CARTESIAN_POINT('',(0.0189756415784359,0.,0.));
#1169=CARTESIAN_POINT('',(1.7347234759768E-18,0.,0.217018573080715));
#1170=CARTESIAN_POINT('',(1.7347234759768E-18,0.,0.191998615860939));
#1171=CARTESIAN_POINT('',(0.0189756415784359,0.,0.191998615860939));
#1172=CARTESIAN_POINT('',(1.7347234759768E-18,0.,0.191998615860939));
#1173=CARTESIAN_POINT('',(-5.20417042793042E-18,0.,0.224666863679886));
#1174=CARTESIAN_POINT('',(1.7347234759768E-18,0.,0.191460810137516));
#1175=CARTESIAN_POINT('',(1.7347234759768E-18,0.,0.209370282481545));
#1176=MECHANICAL_DESIGN_GEOMETRIC_PRESENTATION_REPRESENTATION('',(#595),
#1179);
#1177=MECHANICAL_DESIGN_GEOMETRIC_PRESENTATION_REPRESENTATION('',(#596),
#1180);
#1178=MECHANICAL_DESIGN_GEOMETRIC_PRESENTATION_REPRESENTATION('',(#597),
#1181);
#1179=(
GEOMETRIC_REPRESENTATION_CONTEXT(3)
GLOBAL_UNCERTAINTY_ASSIGNED_CONTEXT((#1182))
GLOBAL_UNIT_ASSIGNED_CONTEXT((#1191,#1188,#1185))
REPRESENTATION_CONTEXT('Part 3','TOP_LEVEL_ASSEMBLY_PART')
);
#1180=(
GEOMETRIC_REPRESENTATION_CONTEXT(3)
GLOBAL_UNCERTAINTY_ASSIGNED_CONTEXT((#1183))
GLOBAL_UNIT_ASSIGNED_CONTEXT((#1192,#1189,#1186))
REPRESENTATION_CONTEXT('Part 1','TOP_LEVEL_ASSEMBLY_PART')
);
#1181=(
GEOMETRIC_REPRESENTATION_CONTEXT(3)
GLOBAL_UNCERTAINTY_ASSIGNED_CONTEXT((#1184))
GLOBAL_UNIT_ASSIGNED_CONTEXT((#1193,#1190,#1187))
REPRESENTATION_CONTEXT('Part 2','TOP_LEVEL_ASSEMBLY_PART')
);
#1182=UNCERTAINTY_MEASURE_WITH_UNIT(LENGTH_MEASURE(2.E-5),#1191,
'DISTANCE_ACCURACY_VALUE','Maximum Tolerance applied to model');
#1183=UNCERTAINTY_MEASURE_WITH_UNIT(LENGTH_MEASURE(1.E-8),#1192,
'DISTANCE_ACCURACY_VALUE','Maximum Tolerance applied to model');
#1184=UNCERTAINTY_MEASURE_WITH_UNIT(LENGTH_MEASURE(1.E-8),#1193,
'DISTANCE_ACCURACY_VALUE','Maximum Tolerance applied to model');
#1185=(
NAMED_UNIT(*)
SI_UNIT($,.STERADIAN.)
SOLID_ANGLE_UNIT()
);
#1186=(
NAMED_UNIT(*)
SI_UNIT($,.STERADIAN.)
SOLID_ANGLE_UNIT()
);
#1187=(
NAMED_UNIT(*)
SI_UNIT($,.STERADIAN.)
SOLID_ANGLE_UNIT()
);
#1188=(
NAMED_UNIT(*)
PLANE_ANGLE_UNIT()
SI_UNIT($,.RADIAN.)
);
#1189=(
NAMED_UNIT(*)
PLANE_ANGLE_UNIT()
SI_UNIT($,.RADIAN.)
);
#1190=(
NAMED_UNIT(*)
PLANE_ANGLE_UNIT()
SI_UNIT($,.RADIAN.)
);
#1191=(
LENGTH_UNIT()
NAMED_UNIT(*)
SI_UNIT($,.METRE.)
);
#1192=(
LENGTH_UNIT()
NAMED_UNIT(*)
SI_UNIT($,.METRE.)
);
#1193=(
LENGTH_UNIT()
NAMED_UNIT(*)
SI_UNIT($,.METRE.)
);
#1194=PRODUCT_DEFINITION_SHAPE('','',#1197);
#1195=PRODUCT_DEFINITION_SHAPE('','',#1198);
#1196=PRODUCT_DEFINITION_SHAPE('','',#1199);
#1197=PRODUCT_DEFINITION('','',#1203,#1200);
#1198=PRODUCT_DEFINITION('','',#1204,#1201);
#1199=PRODUCT_DEFINITION('','',#1205,#1202);
#1200=PRODUCT_DEFINITION_CONTEXT('',#1221,'design');
#1201=PRODUCT_DEFINITION_CONTEXT('',#1222,'design');
#1202=PRODUCT_DEFINITION_CONTEXT('',#1223,'design');
#1203=PRODUCT_DEFINITION_FORMATION_WITH_SPECIFIED_SOURCE('','',#1209,
 .NOT_KNOWN.);
#1204=PRODUCT_DEFINITION_FORMATION_WITH_SPECIFIED_SOURCE('','',#1210,
 .NOT_KNOWN.);
#1205=PRODUCT_DEFINITION_FORMATION_WITH_SPECIFIED_SOURCE('','',#1211,
 .NOT_KNOWN.);
#1206=PRODUCT_RELATED_PRODUCT_CATEGORY('','',(#1209));
#1207=PRODUCT_RELATED_PRODUCT_CATEGORY('','',(#1210));
#1208=PRODUCT_RELATED_PRODUCT_CATEGORY('','',(#1211));
#1209=PRODUCT('Part 3','Part 3','Part 3',(#1215));
#1210=PRODUCT('Part 1','Part 1','Part 1',(#1216));
#1211=PRODUCT('Part 2','Part 2','Part 2',(#1217));
#1212=PRODUCT_CATEGORY('','');
#1213=PRODUCT_CATEGORY('','');
#1214=PRODUCT_CATEGORY('','');
#1215=PRODUCT_CONTEXT('',#1221,'mechanical');
#1216=PRODUCT_CONTEXT('',#1222,'mechanical');
#1217=PRODUCT_CONTEXT('',#1223,'mechanical');
#1218=APPLICATION_PROTOCOL_DEFINITION('international standard',
'ap242_managed_model_based_3d_engineering',2020,#1221);
#1219=APPLICATION_PROTOCOL_DEFINITION('international standard',
'ap242_managed_model_based_3d_engineering',2020,#1222);
#1220=APPLICATION_PROTOCOL_DEFINITION('international standard',
'ap242_managed_model_based_3d_engineering',2020,#1223);
#1221=APPLICATION_CONTEXT('managed model based 3d engineering');
#1222=APPLICATION_CONTEXT('managed model based 3d engineering');
#1223=APPLICATION_CONTEXT('managed model based 3d engineering');
ENDSEC;
END-ISO-10303-21;
