ISO-10303-21;
HEADER;
/* Generated by software containing ST-Developer
 * from STEP Tools, Inc. (www.steptools.com) 
 */
/* OPTION: using custom renumber hook */

FILE_DESCRIPTION(
/* description */ ('STEP AP242 Edition 2',
'CAx-IF Rec.Pracs.---Representation and Presentation of Product Manufa
cturing Information (PMI)---4.0---2014-10-13',
'CAx-IF Rec.Pracs.---3D Tessellated Geometry---0.4---2014-09-14','2;1',
'CAx-IF Rec.Pracs.---User Defined Attributes---1.5---2016-08-15'),
/* implementation_level */ '2;1');

FILE_NAME(
/* name */ 'rail guide',
/* time_stamp */ '2026-08-03T01:29:29Z',
/* author */ (''),
/* organization */ (''),
/* preprocessor_version */ 'ST-DEVELOPER v20',
/* originating_system */ 'ONSHAPE BY PTC INC, 1.218',
/* authorisation */ '  ');

FILE_SCHEMA (('AP242_MANAGED_MODEL_BASED_3D_ENGINEERING_MIM_LF { 1 0 10303 442 3 1 4 }'));
ENDSEC;

DATA;
#10=SHAPE_REPRESENTATION_RELATIONSHIP('','',#199,#11);
#11=ADVANCED_BREP_SHAPE_REPRESENTATION('',(#197),#436);
#12=CONICAL_SURFACE('',#224,0.0175954103469848,0.934554678936139);
#13=VERTEX_LOOP('',#126);
#14=VERTEX_LOOP('',#129);
#15=B_SPLINE_SURFACE_WITH_KNOTS('',3,3,((#341,#342,#343,#344,#345,#346,
#347,#348,#349,#350,#351,#352,#353,#354,#355,#356,#357,#358,#359),(#360,
#361,#362,#363,#364,#365,#366,#367,#368,#369,#370,#371,#372,#373,#374,#375,
#376,#377,#378),(#379,#380,#381,#382,#383,#384,#385,#386,#387,#388,#389,
#390,#391,#392,#393,#394,#395,#396,#397),(#398,#399,#400,#401,#402,#403,
#404,#405,#406,#407,#408,#409,#410,#411,#412,#413,#414,#415,#416)),
 .UNSPECIFIED.,.F.,.T.,.F.,(4,4),(1,1,1,1,1,1,1,1,1,1,1,1,1,1,1,1,1,1,1,
1,1,1,1),(0.,1.),(-1.17809724509617,-0.785398163397448,-0.392699081698725,
0.,0.392699081698724,0.785398163397448,1.17809724509617,1.5707963267949,
1.96349540849362,2.35619449019234,2.74889357189107,3.14159265358979,3.53429173528852,
3.92699081698724,4.31968989868597,4.71238898038469,5.10508806208341,5.49778714378214,
5.89048622548086,6.28318530717959,6.67588438887831,7.06858347057703,7.46128255227576),
 .UNSPECIFIED.);
#16=PLANE('',#205);
#17=PLANE('',#216);
#18=PLANE('',#217);
#19=PLANE('',#220);
#20=CIRCLE('',#202,0.00358912411425053);
#21=CIRCLE('',#203,0.00358912411425053);
#22=CIRCLE('',#204,0.00358912411425053);
#23=CIRCLE('',#206,0.0209039253811272);
#24=CIRCLE('',#207,0.02286);
#25=CIRCLE('',#208,0.00635);
#26=CIRCLE('',#209,0.00892064313587379);
#27=CIRCLE('',#211,0.02286);
#28=CIRCLE('',#212,0.02286);
#29=CIRCLE('',#213,0.02286);
#30=CIRCLE('',#215,0.00635);
#31=CIRCLE('',#218,0.0209039253811272);
#32=CIRCLE('',#221,0.00892064313587379);
#33=CIRCLE('',#222,0.0175954103469848);
#34=CIRCLE('',#225,0.0175954103469848);
#35=LINE('',#312,#41);
#36=LINE('',#316,#42);
#37=LINE('',#317,#43);
#38=LINE('',#322,#44);
#39=LINE('',#337,#45);
#40=LINE('',#338,#46);
#41=VECTOR('',#231,1.);
#42=VECTOR('',#234,1.);
#43=VECTOR('',#235,1.);
#44=VECTOR('',#238,1.);
#45=VECTOR('',#257,1.);
#46=VECTOR('',#258,1.);
#47=ORIENTED_EDGE('',*,*,#91,.T.);
#48=ORIENTED_EDGE('',*,*,#92,.T.);
#49=ORIENTED_EDGE('',*,*,#93,.F.);
#50=ORIENTED_EDGE('',*,*,#94,.T.);
#51=ORIENTED_EDGE('',*,*,#95,.F.);
#52=ORIENTED_EDGE('',*,*,#96,.T.);
#53=ORIENTED_EDGE('',*,*,#97,.F.);
#54=ORIENTED_EDGE('',*,*,#98,.T.);
#55=ORIENTED_EDGE('',*,*,#96,.F.);
#56=ORIENTED_EDGE('',*,*,#99,.F.);
#57=ORIENTED_EDGE('',*,*,#100,.T.);
#58=ORIENTED_EDGE('',*,*,#101,.T.);
#59=ORIENTED_EDGE('',*,*,#102,.T.);
#60=ORIENTED_EDGE('',*,*,#92,.F.);
#61=ORIENTED_EDGE('',*,*,#103,.T.);
#62=ORIENTED_EDGE('',*,*,#94,.F.);
#63=ORIENTED_EDGE('',*,*,#104,.F.);
#64=ORIENTED_EDGE('',*,*,#105,.T.);
#65=ORIENTED_EDGE('',*,*,#100,.F.);
#66=ORIENTED_EDGE('',*,*,#106,.F.);
#67=ORIENTED_EDGE('',*,*,#107,.F.);
#68=ORIENTED_EDGE('',*,*,#91,.F.);
#69=ORIENTED_EDGE('',*,*,#103,.F.);
#70=ORIENTED_EDGE('',*,*,#101,.F.);
#71=ORIENTED_EDGE('',*,*,#105,.F.);
#72=ORIENTED_EDGE('',*,*,#108,.T.);
#73=ORIENTED_EDGE('',*,*,#106,.T.);
#74=ORIENTED_EDGE('',*,*,#104,.T.);
#75=ORIENTED_EDGE('',*,*,#93,.T.);
#76=ORIENTED_EDGE('',*,*,#107,.T.);
#77=ORIENTED_EDGE('',*,*,#108,.F.);
#78=ORIENTED_EDGE('',*,*,#98,.F.);
#79=ORIENTED_EDGE('',*,*,#109,.T.);
#80=ORIENTED_EDGE('',*,*,#99,.T.);
#81=ORIENTED_EDGE('',*,*,#95,.T.);
#82=ORIENTED_EDGE('',*,*,#109,.F.);
#83=ORIENTED_EDGE('',*,*,#97,.T.);
#84=ORIENTED_EDGE('',*,*,#110,.F.);
#85=ORIENTED_EDGE('',*,*,#111,.F.);
#86=ORIENTED_EDGE('',*,*,#110,.T.);
#87=ORIENTED_EDGE('',*,*,#102,.F.);
#88=ORIENTED_EDGE('',*,*,#112,.T.);
#89=ORIENTED_EDGE('',*,*,#111,.T.);
#90=ORIENTED_EDGE('',*,*,#112,.F.);
#91=EDGE_CURVE('',#113,#114,#131,.T.);
#92=EDGE_CURVE('',#114,#115,#35,.T.);
#93=EDGE_CURVE('',#116,#115,#20,.T.);
#94=EDGE_CURVE('',#116,#113,#36,.F.);
#95=EDGE_CURVE('',#117,#118,#37,.F.);
#96=EDGE_CURVE('',#117,#119,#21,.T.);
#97=EDGE_CURVE('',#120,#119,#38,.T.);
#98=EDGE_CURVE('',#120,#118,#22,.F.);
#99=EDGE_CURVE('',#119,#117,#23,.T.);
#100=EDGE_CURVE('',#121,#122,#24,.T.);
#101=EDGE_CURVE('',#122,#121,#25,.T.);
#102=EDGE_CURVE('',#123,#123,#26,.T.);
#103=EDGE_CURVE('',#114,#113,#27,.T.);
#104=EDGE_CURVE('',#124,#116,#28,.T.);
#105=EDGE_CURVE('',#124,#122,#39,.T.);
#106=EDGE_CURVE('',#125,#121,#40,.T.);
#107=EDGE_CURVE('',#115,#125,#29,.T.);
#108=EDGE_CURVE('',#124,#125,#30,.T.);
#109=EDGE_CURVE('',#120,#118,#31,.T.);
#110=EDGE_CURVE('',#127,#127,#32,.T.);
#111=EDGE_CURVE('',#128,#128,#33,.F.);
#112=EDGE_CURVE('',#130,#130,#34,.T.);
#113=VERTEX_POINT('',#310);
#114=VERTEX_POINT('',#311);
#115=VERTEX_POINT('',#313);
#116=VERTEX_POINT('',#315);
#117=VERTEX_POINT('',#318);
#118=VERTEX_POINT('',#319);
#119=VERTEX_POINT('',#321);
#120=VERTEX_POINT('',#323);
#121=VERTEX_POINT('',#328);
#122=VERTEX_POINT('',#329);
#123=VERTEX_POINT('',#332);
#124=VERTEX_POINT('',#336);
#125=VERTEX_POINT('',#339);
#126=VERTEX_POINT('',#417);
#127=VERTEX_POINT('',#426);
#128=VERTEX_POINT('',#428);
#129=VERTEX_POINT('',#431);
#130=VERTEX_POINT('',#433);
#131=B_SPLINE_CURVE_WITH_KNOTS('',3,(#289,#290,#291,#292,#293,#294,#295,
#296,#297,#298,#299,#300,#301,#302,#303,#304,#305,#306,#307,#308,#309),
 .UNSPECIFIED.,.F.,.F.,(4,1,1,1,1,1,1,1,1,1,1,1,1,1,1,1,1,1,4),(0.,0.00326652968365533,
0.004899794525483,0.00653305936731067,0.00816632420913833,0.009799589050966,
0.0106162214718798,0.0114328538927937,0.0122494863137075,0.0130661187346213,
0.0138827511555352,0.014699383576449,0.0155160159973628,0.0163326484182767,
0.0179659132601043,0.019599178101932,0.0212324429437597,0.0228657077855873,
0.0261322374692427),.UNSPECIFIED.);
#132=EDGE_LOOP('',(#47,#48,#49,#50));
#133=EDGE_LOOP('',(#51,#52,#53,#54));
#134=EDGE_LOOP('',(#55,#56));
#135=EDGE_LOOP('',(#57,#58));
#136=EDGE_LOOP('',(#59));
#137=EDGE_LOOP('',(#60,#61,#62,#63,#64,#65,#66,#67));
#138=EDGE_LOOP('',(#68,#69));
#139=EDGE_LOOP('',(#70,#71,#72,#73));
#140=EDGE_LOOP('',(#74,#75,#76,#77));
#141=EDGE_LOOP('',(#78,#79));
#142=EDGE_LOOP('',(#80,#81,#82,#83));
#143=EDGE_LOOP('',(#84));
#144=EDGE_LOOP('',(#85));
#145=EDGE_LOOP('',(#86));
#146=EDGE_LOOP('',(#87));
#147=EDGE_LOOP('',(#88));
#148=EDGE_LOOP('',(#89));
#149=EDGE_LOOP('',(#90));
#150=FACE_BOUND('',#132,.T.);
#151=FACE_BOUND('',#133,.T.);
#152=FACE_BOUND('',#134,.T.);
#153=FACE_BOUND('',#135,.T.);
#154=FACE_BOUND('',#136,.T.);
#155=FACE_BOUND('',#137,.T.);
#156=FACE_BOUND('',#138,.T.);
#157=FACE_BOUND('',#13,.T.);
#158=FACE_BOUND('',#139,.T.);
#159=FACE_BOUND('',#140,.T.);
#160=FACE_BOUND('',#141,.T.);
#161=FACE_BOUND('',#142,.T.);
#162=FACE_BOUND('',#143,.T.);
#163=FACE_BOUND('',#144,.T.);
#164=FACE_BOUND('',#145,.T.);
#165=FACE_BOUND('',#146,.T.);
#166=FACE_BOUND('',#14,.T.);
#167=FACE_BOUND('',#147,.T.);
#168=FACE_BOUND('',#148,.T.);
#169=FACE_BOUND('',#149,.T.);
#170=CYLINDRICAL_SURFACE('',#201,0.00358912411425053);
#171=CYLINDRICAL_SURFACE('',#210,0.02286);
#172=CYLINDRICAL_SURFACE('',#214,0.00635);
#173=CYLINDRICAL_SURFACE('',#219,0.0209039253811272);
#174=CYLINDRICAL_SURFACE('',#223,0.00892064313587379);
#175=CYLINDRICAL_SURFACE('',#226,0.0175954103469848);
#176=ADVANCED_FACE('',(#150,#151),#170,.F.);
#177=ADVANCED_FACE('',(#152,#153,#154),#16,.T.);
#178=ADVANCED_FACE('',(#155),#171,.T.);
#179=ADVANCED_FACE('',(#156,#157),#15,.T.);
#180=ADVANCED_FACE('',(#158),#172,.T.);
#181=ADVANCED_FACE('',(#159),#17,.F.);
#182=ADVANCED_FACE('',(#160),#18,.T.);
#183=ADVANCED_FACE('',(#161),#173,.T.);
#184=ADVANCED_FACE('',(#162,#163),#19,.T.);
#185=ADVANCED_FACE('',(#164,#165),#174,.F.);
#186=ADVANCED_FACE('',(#166,#167),#12,.F.);
#187=ADVANCED_FACE('',(#168,#169),#175,.F.);
#188=CLOSED_SHELL('',(#176,#177,#178,#179,#180,#181,#182,#183,#184,#185,
#186,#187));
#189=STYLED_ITEM('',(#190),#197);
#190=PRESENTATION_STYLE_ASSIGNMENT((#191));
#191=SURFACE_STYLE_USAGE(.BOTH.,#192);
#192=SURFACE_SIDE_STYLE('',(#193));
#193=SURFACE_STYLE_FILL_AREA(#194);
#194=FILL_AREA_STYLE('',(#195));
#195=FILL_AREA_STYLE_COLOUR('',#196);
#196=COLOUR_RGB('',0.615686274509804,0.811764705882353,0.929411764705882);
#197=MANIFOLD_SOLID_BREP('Part 1',#188);
#198=SHAPE_DEFINITION_REPRESENTATION(#441,#199);
#199=SHAPE_REPRESENTATION('Part 1',(#200),#436);
#200=AXIS2_PLACEMENT_3D('',#287,#227,#228);
#201=AXIS2_PLACEMENT_3D('',#288,#229,#230);
#202=AXIS2_PLACEMENT_3D('',#314,#232,#233);
#203=AXIS2_PLACEMENT_3D('',#320,#236,#237);
#204=AXIS2_PLACEMENT_3D('',#324,#239,#240);
#205=AXIS2_PLACEMENT_3D('',#325,#241,#242);
#206=AXIS2_PLACEMENT_3D('',#326,#243,#244);
#207=AXIS2_PLACEMENT_3D('',#327,#245,#246);
#208=AXIS2_PLACEMENT_3D('',#330,#247,#248);
#209=AXIS2_PLACEMENT_3D('',#331,#249,#250);
#210=AXIS2_PLACEMENT_3D('',#333,#251,#252);
#211=AXIS2_PLACEMENT_3D('',#334,#253,#254);
#212=AXIS2_PLACEMENT_3D('',#335,#255,#256);
#213=AXIS2_PLACEMENT_3D('',#340,#259,#260);
#214=AXIS2_PLACEMENT_3D('',#418,#261,#262);
#215=AXIS2_PLACEMENT_3D('',#419,#263,#264);
#216=AXIS2_PLACEMENT_3D('',#420,#265,#266);
#217=AXIS2_PLACEMENT_3D('',#421,#267,#268);
#218=AXIS2_PLACEMENT_3D('',#422,#269,#270);
#219=AXIS2_PLACEMENT_3D('',#423,#271,#272);
#220=AXIS2_PLACEMENT_3D('',#424,#273,#274);
#221=AXIS2_PLACEMENT_3D('',#425,#275,#276);
#222=AXIS2_PLACEMENT_3D('',#427,#277,#278);
#223=AXIS2_PLACEMENT_3D('',#429,#279,#280);
#224=AXIS2_PLACEMENT_3D('',#430,#281,#282);
#225=AXIS2_PLACEMENT_3D('',#432,#283,#284);
#226=AXIS2_PLACEMENT_3D('',#434,#285,#286);
#227=DIRECTION('',(0.,0.,1.));
#228=DIRECTION('',(1.,0.,0.));
#229=DIRECTION('',(0.,0.,-1.));
#230=DIRECTION('',(-1.,0.,0.));
#231=DIRECTION('',(0.,0.,-1.));
#232=DIRECTION('',(0.,0.,-1.));
#233=DIRECTION('',(-1.,0.,0.));
#234=DIRECTION('',(0.,0.,-1.));
#235=DIRECTION('',(0.,0.,-1.));
#236=DIRECTION('',(0.,0.,-1.));
#237=DIRECTION('',(-1.,0.,0.));
#238=DIRECTION('',(0.,0.,-1.));
#239=DIRECTION('',(0.,0.,1.));
#240=DIRECTION('',(1.,0.,0.));
#241=DIRECTION('',(0.,0.,-1.));
#242=DIRECTION('',(-1.,0.,0.));
#243=DIRECTION('',(0.,0.,1.));
#244=DIRECTION('',(1.,0.,0.));
#245=DIRECTION('',(0.,0.,-1.));
#246=DIRECTION('',(-1.,0.,0.));
#247=DIRECTION('',(0.,0.,-1.));
#248=DIRECTION('',(-1.,0.,0.));
#249=DIRECTION('',(0.,0.,1.));
#250=DIRECTION('',(1.,0.,0.));
#251=DIRECTION('',(0.,0.,-1.));
#252=DIRECTION('',(-1.,0.,0.));
#253=DIRECTION('',(0.,0.,-1.));
#254=DIRECTION('',(-1.,0.,0.));
#255=DIRECTION('',(0.,0.,-1.));
#256=DIRECTION('',(-1.,0.,0.));
#257=DIRECTION('',(0.,0.,-1.));
#258=DIRECTION('',(0.,0.,-1.));
#259=DIRECTION('',(0.,0.,-1.));
#260=DIRECTION('',(-1.,0.,0.));
#261=DIRECTION('',(0.,0.,-1.));
#262=DIRECTION('',(-1.,0.,0.));
#263=DIRECTION('',(0.,0.,-1.));
#264=DIRECTION('',(-1.,0.,0.));
#265=DIRECTION('',(0.,0.,-1.));
#266=DIRECTION('',(1.,0.,0.));
#267=DIRECTION('',(0.,0.,1.));
#268=DIRECTION('',(1.,0.,0.));
#269=DIRECTION('',(0.,0.,1.));
#270=DIRECTION('',(1.,0.,0.));
#271=DIRECTION('',(0.,0.,-1.));
#272=DIRECTION('',(-1.,0.,0.));
#273=DIRECTION('',(0.,0.,1.));
#274=DIRECTION('',(1.,0.,0.));
#275=DIRECTION('',(0.,0.,1.));
#276=DIRECTION('',(1.,0.,0.));
#277=DIRECTION('',(0.,0.,1.));
#278=DIRECTION('',(1.,0.,0.));
#279=DIRECTION('',(0.,0.,-1.));
#280=DIRECTION('',(-1.,0.,0.));
#281=DIRECTION('',(0.,0.,-1.));
#282=DIRECTION('',(-1.,0.,0.));
#283=DIRECTION('',(0.,0.,-1.));
#284=DIRECTION('',(-1.,0.,0.));
#285=DIRECTION('',(0.,0.,-1.));
#286=DIRECTION('',(-1.,0.,0.));
#287=CARTESIAN_POINT('',(0.,0.,0.));
#288=CARTESIAN_POINT('',(0.,-0.02286,0.092202));
#289=CARTESIAN_POINT('',(0.00357804784155563,-0.0225782455838256,0.0551329381228559));
#290=CARTESIAN_POINT('',(0.00355577466209189,-0.0222953946429712,0.0561882085890989));
#291=CARTESIAN_POINT('',(0.00347246435668875,-0.0218650858308207,0.0577639611797645));
#292=CARTESIAN_POINT('',(0.00323482401745472,-0.0212796173757891,0.0598481168010676));
#293=CARTESIAN_POINT('',(0.00297972430842068,-0.0208351293234587,0.0614009240333112));
#294=CARTESIAN_POINT('',(0.00262299795715729,-0.020385298992606,0.0629429101428943));
#295=CARTESIAN_POINT('',(0.00221360713372961,-0.0200158151867495,0.0641859023669786));
#296=CARTESIAN_POINT('',(0.0017699347087691,-0.0197274662155598,0.0651429930109621));
#297=CARTESIAN_POINT('',(0.0013442007140177,-0.019519834342954,0.0658261374883296));
#298=CARTESIAN_POINT('',(0.000795569025951137,-0.0193365784493495,0.0664239501697639));
#299=CARTESIAN_POINT('',(-1.79876015523562E-5,-0.0192363412362007,0.0667487934360799));
#300=CARTESIAN_POINT('',(-0.000822805877735714,-0.0193435403457209,0.0664013372176297));
#301=CARTESIAN_POINT('',(-0.00136291229135532,-0.0195276874786024,0.0658004000847458));
#302=CARTESIAN_POINT('',(-0.00178345995708064,-0.0197353508417739,0.0651169271266361));
#303=CARTESIAN_POINT('',(-0.00222182742908059,-0.020022512582407,0.0641634875518682));
#304=CARTESIAN_POINT('',(-0.00262960530000269,-0.0203923776322038,0.0629188733033659));
#305=CARTESIAN_POINT('',(-0.00298362248012549,-0.0208411663596034,0.0613799901032272));
#306=CARTESIAN_POINT('',(-0.00323668508148304,-0.0212836562354409,0.0598338341174942));
#307=CARTESIAN_POINT('',(-0.00347289351258393,-0.0218671565211541,0.0577564020171369));
#308=CARTESIAN_POINT('',(-0.00355583452376029,-0.0222961548366047,0.0561853724313414));
#309=CARTESIAN_POINT('',(-0.00357804784155563,-0.0225782455838256,0.0551329381228559));
#310=CARTESIAN_POINT('',(0.00357804784155563,-0.0225782455838256,0.0551329381228559));
#311=CARTESIAN_POINT('',(-0.00357804784155562,-0.0225782455838256,0.0551329381228559));
#312=CARTESIAN_POINT('',(-0.00357804784155563,-0.0225782455838256,0.046101));
#313=CARTESIAN_POINT('',(-0.00357804784155565,-0.0225782455838256,0.047752));
#314=CARTESIAN_POINT('',(0.,-0.02286,0.047752));
#315=CARTESIAN_POINT('',(0.00357804784155565,-0.0225782455838256,0.047752));
#316=CARTESIAN_POINT('',(0.00357804784155563,-0.0225782455838256,0.046101));
#317=CARTESIAN_POINT('',(0.00287079945166214,-0.0207058592395502,0.00127));
#318=CARTESIAN_POINT('',(0.00287079945166214,-0.0207058592395502,0.));
#319=CARTESIAN_POINT('',(0.00287079945166214,-0.0207058592395502,0.00254));
#320=CARTESIAN_POINT('',(0.,-0.02286,0.));
#321=CARTESIAN_POINT('',(-0.00287079945166214,-0.0207058592395502,0.));
#322=CARTESIAN_POINT('',(-0.00287079945166214,-0.0207058592395502,0.00127));
#323=CARTESIAN_POINT('',(-0.00287079945166214,-0.0207058592395502,0.00254));
#324=CARTESIAN_POINT('',(0.,-0.02286,0.00254));
#325=CARTESIAN_POINT('',(0.0202277051734924,0.,0.));
#326=CARTESIAN_POINT('',(0.,1.27999626538062E-18,0.));
#327=CARTESIAN_POINT('',(0.,0.,0.));
#328=CARTESIAN_POINT('',(-0.00628845561301928,-0.0219780555555555,0.));
#329=CARTESIAN_POINT('',(0.00628845561301928,-0.0219780555555555,0.));
#330=CARTESIAN_POINT('',(0.,-0.02286,0.));
#331=CARTESIAN_POINT('',(0.,5.46231853134182E-19,0.));
#332=CARTESIAN_POINT('',(0.00892064313587379,5.46231853134182E-19,0.));
#333=CARTESIAN_POINT('',(0.,0.,0.0449017435312271));
#334=CARTESIAN_POINT('',(0.,0.,0.0551329381228559));
#335=CARTESIAN_POINT('',(0.,0.,0.047752));
#336=CARTESIAN_POINT('',(0.00628845561301928,-0.0219780555555555,0.047752));
#337=CARTESIAN_POINT('',(0.00628845561301928,-0.0219780555555555,0.047752));
#338=CARTESIAN_POINT('',(-0.00628845561301928,-0.0219780555555555,0.047752));
#339=CARTESIAN_POINT('',(-0.00628845561301928,-0.0219780555555555,0.047752));
#340=CARTESIAN_POINT('',(0.,0.,0.047752));
#341=CARTESIAN_POINT('',(0.0216697225843656,0.00897589298730672,0.0551329381228559));
#342=CARTESIAN_POINT('',(0.0234551387078172,1.75640751942652E-17,0.0551329381228559));
#343=CARTESIAN_POINT('',(0.0216697225843656,-0.00897589298730677,0.0551329381228559));
#344=CARTESIAN_POINT('',(0.0165852876339686,-0.0165852876339686,0.0551329381228559));
#345=CARTESIAN_POINT('',(0.00897589298730677,-0.0216697225843656,0.0551329381228559));
#346=CARTESIAN_POINT('',(4.66206934168767E-18,-0.0234551387078172,0.0551329381228559));
#347=CARTESIAN_POINT('',(-0.00897589298730677,-0.0216697225843656,0.0551329381228559));
#348=CARTESIAN_POINT('',(-0.0165852876339686,-0.0165852876339686,0.0551329381228559));
#349=CARTESIAN_POINT('',(-0.0216697225843656,-0.00897589298730677,0.0551329381228559));
#350=CARTESIAN_POINT('',(-0.0234551387078172,-3.91926115161505E-18,0.0551329381228559));
#351=CARTESIAN_POINT('',(-0.0216697225843656,0.00897589298730677,0.0551329381228559));
#352=CARTESIAN_POINT('',(-0.0165852876339686,0.0165852876339686,0.0551329381228559));
#353=CARTESIAN_POINT('',(-0.00897589298730678,0.0216697225843656,0.0551329381228559));
#354=CARTESIAN_POINT('',(-3.33392168039293E-18,0.0234551387078172,0.0551329381228559));
#355=CARTESIAN_POINT('',(0.00897589298730677,0.0216697225843656,0.0551329381228559));
#356=CARTESIAN_POINT('',(0.0165852876339686,0.0165852876339686,0.0551329381228559));
#357=CARTESIAN_POINT('',(0.0216697225843656,0.00897589298730672,0.0551329381228559));
#358=CARTESIAN_POINT('',(0.0234551387078172,1.75640751942652E-17,0.0551329381228559));
#359=CARTESIAN_POINT('',(0.0216697225843656,-0.00897589298730677,0.0551329381228559));
#360=CARTESIAN_POINT('',(0.0161180679946511,0.00667632236263617,0.0769829394738235));
#361=CARTESIAN_POINT('',(0.0174460710811928,1.05167610731094E-17,0.0769829394738235));
#362=CARTESIAN_POINT('',(0.0161180679946511,-0.0066763223626362,0.0769829394738235));
#363=CARTESIAN_POINT('',(0.012336235166574,-0.012336235166574,0.0769829394738235));
#364=CARTESIAN_POINT('',(0.0066763223626362,-0.0161180679946511,0.0769829394738235));
#365=CARTESIAN_POINT('',(6.05797963876276E-18,-0.0174460710811928,0.0769829394738235));
#366=CARTESIAN_POINT('',(-0.0066763223626362,-0.0161180679946511,0.0769829394738235));
#367=CARTESIAN_POINT('',(-0.012336235166574,-0.012336235166574,0.0769829394738235));
#368=CARTESIAN_POINT('',(-0.0161180679946511,-0.00667632236263621,0.0769829394738235));
#369=CARTESIAN_POINT('',(-0.0174460710811928,-1.68019572999731E-18,0.0769829394738235));
#370=CARTESIAN_POINT('',(-0.0161180679946511,0.0066763223626362,0.0769829394738235));
#371=CARTESIAN_POINT('',(-0.012336235166574,0.012336235166574,0.0769829394738235));
#372=CARTESIAN_POINT('',(-0.00667632236263621,0.0161180679946511,0.0769829394738235));
#373=CARTESIAN_POINT('',(-6.28837260041593E-18,0.0174460710811928,0.0769829394738235));
#374=CARTESIAN_POINT('',(0.0066763223626362,0.0161180679946511,0.0769829394738235));
#375=CARTESIAN_POINT('',(0.012336235166574,0.012336235166574,0.0769829394738235));
#376=CARTESIAN_POINT('',(0.0161180679946511,0.00667632236263617,0.0769829394738235));
#377=CARTESIAN_POINT('',(0.0174460710811928,1.05167610731094E-17,0.0769829394738235));
#378=CARTESIAN_POINT('',(0.0161180679946511,-0.0066763223626362,0.0769829394738235));
#379=CARTESIAN_POINT('',(0.00889482713319595,0.00368435803353393,0.0885397891203563));
#380=CARTESIAN_POINT('',(0.00962769151192043,8.34835672813838E-18,0.0885397891203562));
#381=CARTESIAN_POINT('',(0.00889482713319594,-0.00368435803353396,0.0885397891203563));
#382=CARTESIAN_POINT('',(0.0068078059552511,-0.0068078059552511,0.0885397891203562));
#383=CARTESIAN_POINT('',(0.00368435803353396,-0.00889482713319594,0.0885397891203563));
#384=CARTESIAN_POINT('',(1.82959116606929E-18,-0.00962769151192044,0.0885397891203563));
#385=CARTESIAN_POINT('',(-0.00368435803353396,-0.00889482713319594,0.0885397891203563));
#386=CARTESIAN_POINT('',(-0.0068078059552511,-0.0068078059552511,0.0885397891203563));
#387=CARTESIAN_POINT('',(-0.00889482713319594,-0.00368435803353395,0.0885397891203563));
#388=CARTESIAN_POINT('',(-0.00962769151192044,-2.58149834287999E-18,0.0885397891203563));
#389=CARTESIAN_POINT('',(-0.00889482713319594,0.00368435803353395,0.0885397891203563));
#390=CARTESIAN_POINT('',(-0.0068078059552511,0.0068078059552511,0.0885397891203563));
#391=CARTESIAN_POINT('',(-0.00368435803353396,0.00889482713319593,0.0885397891203563));
#392=CARTESIAN_POINT('',(-9.62229428080885E-19,0.00962769151192044,0.0885397891203563));
#393=CARTESIAN_POINT('',(0.00368435803353396,0.00889482713319593,0.0885397891203563));
#394=CARTESIAN_POINT('',(0.0068078059552511,0.0068078059552511,0.0885397891203563));
#395=CARTESIAN_POINT('',(0.00889482713319595,0.00368435803353393,0.0885397891203563));
#396=CARTESIAN_POINT('',(0.00962769151192043,8.34835672813838E-18,0.0885397891203562));
#397=CARTESIAN_POINT('',(0.00889482713319594,-0.00368435803353396,0.0885397891203563));
#398=CARTESIAN_POINT('',(-5.21256138157392E-18,-2.15911361895014E-18,0.0898034870624542));
#399=CARTESIAN_POINT('',(-5.64203578296095E-18,-4.2851941262616E-33,0.0898034870624542));
#400=CARTESIAN_POINT('',(-5.21256138157391E-18,2.15911361895015E-18,0.0898034870624542));
#401=CARTESIAN_POINT('',(-3.98952176182884E-18,3.98952176182884E-18,0.0898034870624542));
#402=CARTESIAN_POINT('',(-2.15911361895015E-18,5.21256138157391E-18,0.0898034870624542));
#403=CARTESIAN_POINT('',(-1.12245604571319E-33,5.64203578296095E-18,0.0898034870624542));
#404=CARTESIAN_POINT('',(2.15911361895015E-18,5.21256138157391E-18,0.0898034870624542));
#405=CARTESIAN_POINT('',(3.98952176182884E-18,3.98952176182884E-18,0.0898034870624542));
#406=CARTESIAN_POINT('',(5.21256138157391E-18,2.15911361895015E-18,0.0898034870624542));
#407=CARTESIAN_POINT('',(5.64203578296095E-18,9.77244289820232E-34,0.0898034870624542));
#408=CARTESIAN_POINT('',(5.21256138157391E-18,-2.15911361895015E-18,0.0898034870624542));
#409=CARTESIAN_POINT('',(3.98952176182884E-18,-3.98952176182884E-18,0.0898034870624542));
#410=CARTESIAN_POINT('',(2.15911361895015E-18,-5.21256138157391E-18,0.0898034870624542));
#411=CARTESIAN_POINT('',(2.28704180895984E-33,-5.64203578296095E-18,0.0898034870624542));
#412=CARTESIAN_POINT('',(-2.15911361895015E-18,-5.21256138157391E-18,0.0898034870624542));
#413=CARTESIAN_POINT('',(-3.98952176182884E-18,-3.98952176182884E-18,0.0898034870624542));
#414=CARTESIAN_POINT('',(-5.21256138157392E-18,-2.15911361895014E-18,0.0898034870624542));
#415=CARTESIAN_POINT('',(-5.64203578296095E-18,-4.2851941262616E-33,0.0898034870624542));
#416=CARTESIAN_POINT('',(-5.21256138157391E-18,2.15911361895015E-18,0.0898034870624542));
#417=CARTESIAN_POINT('',(0.,0.,0.0898034870624542));
#418=CARTESIAN_POINT('',(0.,-0.02286,0.047752));
#419=CARTESIAN_POINT('',(0.,-0.02286,0.047752));
#420=CARTESIAN_POINT('',(0.,-0.003175,0.047752));
#421=CARTESIAN_POINT('',(0.,0.,0.00254));
#422=CARTESIAN_POINT('',(0.,1.27999626538062E-18,0.00254));
#423=CARTESIAN_POINT('',(0.,1.27999626538062E-18,0.00254));
#424=CARTESIAN_POINT('',(0.,0.,0.00254));
#425=CARTESIAN_POINT('',(0.,5.46231853134182E-19,0.00254));
#426=CARTESIAN_POINT('',(0.00892064313587379,5.46231853134182E-19,0.00254));
#427=CARTESIAN_POINT('',(0.,0.,0.00254));
#428=CARTESIAN_POINT('',(0.0175954103469848,0.,0.00254));
#429=CARTESIAN_POINT('',(0.,5.46231853134182E-19,0.00254));
#430=CARTESIAN_POINT('',(0.,0.,0.053517259657383));
#431=CARTESIAN_POINT('',(0.,0.,0.0665153115987778));
#432=CARTESIAN_POINT('',(0.,0.,0.053517259657383));
#433=CARTESIAN_POINT('',(-0.0175954103469848,0.,0.053517259657383));
#434=CARTESIAN_POINT('',(0.,0.,0.0449017435312271));
#435=MECHANICAL_DESIGN_GEOMETRIC_PRESENTATION_REPRESENTATION('',(#189),
#436);
#436=(
GEOMETRIC_REPRESENTATION_CONTEXT(3)
GLOBAL_UNCERTAINTY_ASSIGNED_CONTEXT((#437))
GLOBAL_UNIT_ASSIGNED_CONTEXT((#440,#439,#438))
REPRESENTATION_CONTEXT('Part 1','TOP_LEVEL_ASSEMBLY_PART')
);
#437=UNCERTAINTY_MEASURE_WITH_UNIT(LENGTH_MEASURE(2.E-5),#440,
'DISTANCE_ACCURACY_VALUE','Maximum Tolerance applied to model');
#438=(
NAMED_UNIT(*)
SI_UNIT($,.STERADIAN.)
SOLID_ANGLE_UNIT()
);
#439=(
NAMED_UNIT(*)
PLANE_ANGLE_UNIT()
SI_UNIT($,.RADIAN.)
);
#440=(
LENGTH_UNIT()
NAMED_UNIT(*)
SI_UNIT($,.METRE.)
);
#441=PRODUCT_DEFINITION_SHAPE('','',#442);
#442=PRODUCT_DEFINITION('','',#444,#443);
#443=PRODUCT_DEFINITION_CONTEXT('',#450,'design');
#444=PRODUCT_DEFINITION_FORMATION_WITH_SPECIFIED_SOURCE('','',#446,
 .NOT_KNOWN.);
#445=PRODUCT_RELATED_PRODUCT_CATEGORY('','',(#446));
#446=PRODUCT('Part 1','Part 1','Part 1',(#448));
#447=PRODUCT_CATEGORY('','');
#448=PRODUCT_CONTEXT('',#450,'mechanical');
#449=APPLICATION_PROTOCOL_DEFINITION('international standard',
'ap242_managed_model_based_3d_engineering',2020,#450);
#450=APPLICATION_CONTEXT('managed model based 3d engineering');
ENDSEC;
END-ISO-10303-21;
