ISO-10303-21;
HEADER;
/* Generated by software containing ST-Developer
 * from STEP Tools, Inc. (www.steptools.com) 
 */
/* OPTION: using custom renumber hook */

FILE_DESCRIPTION(
/* description */ ('STEP AP242 Edition 2',
'CAx-IF Rec.Pracs.---Representation and Presentation of Product Manufa
cturing Information (PMI)---4.0---2014-10-13',
'CAx-IF Rec.Pracs.---3D Tessellated Geometry---0.4---2014-09-14','2;1',
'CAx-IF Rec.Pracs.---User Defined Attributes---1.5---2016-08-15'),
/* implementation_level */ '2;1');

FILE_NAME(
/* name */ 'servo horn',
/* time_stamp */ '2026-08-03T01:30:13Z',
/* author */ (''),
/* organization */ (''),
/* preprocessor_version */ 'ST-DEVELOPER v20',
/* originating_system */ 'ONSHAPE BY PTC INC, 1.218',
/* authorisation */ '  ');

FILE_SCHEMA (('AP242_MANAGED_MODEL_BASED_3D_ENGINEERING_MIM_LF { 1 0 10303 442 3 1 4 }'));
ENDSEC;

DATA;
#10=SHAPE_REPRESENTATION_RELATIONSHIP('','',#270,#11);
#11=ADVANCED_BREP_SHAPE_REPRESENTATION('',(#268),#458);
#12=B_SPLINE_CURVE_WITH_KNOTS('',2,(#391,#392,#393),.UNSPECIFIED.,.F.,.F.,
(3,3),(0.,1.),.PIECEWISE_BEZIER_KNOTS.);
#13=B_SPLINE_CURVE_WITH_KNOTS('',2,(#397,#398,#399),.UNSPECIFIED.,.F.,.F.,
(3,3),(0.,1.),.PIECEWISE_BEZIER_KNOTS.);
#14=B_SPLINE_CURVE_WITH_KNOTS('',2,(#408,#409,#410),.UNSPECIFIED.,.F.,.F.,
(3,3),(0.,1.),.PIECEWISE_BEZIER_KNOTS.);
#15=B_SPLINE_CURVE_WITH_KNOTS('',2,(#414,#415,#416),.UNSPECIFIED.,.F.,.F.,
(3,3),(0.,1.),.PIECEWISE_BEZIER_KNOTS.);
#16=B_SPLINE_SURFACE_WITH_KNOTS('',3,1,((#383,#384),(#385,#386),(#387,#388),
(#389,#390)),.SURF_OF_LINEAR_EXTRUSION.,.F.,.F.,.F.,(4,4),(2,2),(0.,1.),
(0.,1.),.PIECEWISE_BEZIER_KNOTS.);
#17=B_SPLINE_SURFACE_WITH_KNOTS('',3,1,((#400,#401),(#402,#403),(#404,#405),
(#406,#407)),.SURF_OF_LINEAR_EXTRUSION.,.F.,.F.,.F.,(4,4),(2,2),(0.,1.),
(0.,1.),.PIECEWISE_BEZIER_KNOTS.);
#18=PLANE('',#275);
#19=PLANE('',#291);
#20=PLANE('',#298);
#21=PLANE('',#299);
#22=LINE('',#372,#31);
#23=LINE('',#376,#32);
#24=LINE('',#378,#33);
#25=LINE('',#380,#34);
#26=LINE('',#382,#35);
#27=LINE('',#395,#36);
#28=LINE('',#412,#37);
#29=LINE('',#443,#38);
#30=LINE('',#444,#39);
#31=VECTOR('',#306,1.);
#32=VECTOR('',#309,1.);
#33=VECTOR('',#312,1.);
#34=VECTOR('',#313,1.);
#35=VECTOR('',#314,1.);
#36=VECTOR('',#315,1.);
#37=VECTOR('',#316,1.);
#38=VECTOR('',#349,1.);
#39=VECTOR('',#350,1.);
#40=ORIENTED_EDGE('',*,*,#98,.T.);
#41=ORIENTED_EDGE('',*,*,#99,.F.);
#42=ORIENTED_EDGE('',*,*,#100,.F.);
#43=ORIENTED_EDGE('',*,*,#101,.T.);
#44=ORIENTED_EDGE('',*,*,#102,.T.);
#45=ORIENTED_EDGE('',*,*,#103,.F.);
#46=ORIENTED_EDGE('',*,*,#104,.F.);
#47=ORIENTED_EDGE('',*,*,#99,.T.);
#48=ORIENTED_EDGE('',*,*,#105,.T.);
#49=ORIENTED_EDGE('',*,*,#106,.F.);
#50=ORIENTED_EDGE('',*,*,#107,.F.);
#51=ORIENTED_EDGE('',*,*,#103,.T.);
#52=ORIENTED_EDGE('',*,*,#108,.F.);
#53=ORIENTED_EDGE('',*,*,#109,.F.);
#54=ORIENTED_EDGE('',*,*,#110,.T.);
#55=ORIENTED_EDGE('',*,*,#106,.T.);
#56=ORIENTED_EDGE('',*,*,#111,.T.);
#57=ORIENTED_EDGE('',*,*,#112,.F.);
#58=ORIENTED_EDGE('',*,*,#113,.T.);
#59=ORIENTED_EDGE('',*,*,#114,.F.);
#60=ORIENTED_EDGE('',*,*,#115,.T.);
#61=ORIENTED_EDGE('',*,*,#116,.F.);
#62=ORIENTED_EDGE('',*,*,#117,.T.);
#63=ORIENTED_EDGE('',*,*,#118,.F.);
#64=ORIENTED_EDGE('',*,*,#119,.T.);
#65=ORIENTED_EDGE('',*,*,#120,.F.);
#66=ORIENTED_EDGE('',*,*,#121,.F.);
#67=ORIENTED_EDGE('',*,*,#101,.F.);
#68=ORIENTED_EDGE('',*,*,#122,.T.);
#69=ORIENTED_EDGE('',*,*,#109,.T.);
#70=ORIENTED_EDGE('',*,*,#123,.T.);
#71=ORIENTED_EDGE('',*,*,#124,.F.);
#72=ORIENTED_EDGE('',*,*,#125,.T.);
#73=ORIENTED_EDGE('',*,*,#126,.F.);
#74=ORIENTED_EDGE('',*,*,#123,.F.);
#75=ORIENTED_EDGE('',*,*,#100,.T.);
#76=ORIENTED_EDGE('',*,*,#104,.T.);
#77=ORIENTED_EDGE('',*,*,#107,.T.);
#78=ORIENTED_EDGE('',*,*,#110,.F.);
#79=ORIENTED_EDGE('',*,*,#122,.F.);
#80=ORIENTED_EDGE('',*,*,#119,.F.);
#81=ORIENTED_EDGE('',*,*,#117,.F.);
#82=ORIENTED_EDGE('',*,*,#115,.F.);
#83=ORIENTED_EDGE('',*,*,#113,.F.);
#84=ORIENTED_EDGE('',*,*,#111,.F.);
#85=ORIENTED_EDGE('',*,*,#125,.F.);
#86=ORIENTED_EDGE('',*,*,#124,.T.);
#87=ORIENTED_EDGE('',*,*,#98,.F.);
#88=ORIENTED_EDGE('',*,*,#121,.T.);
#89=ORIENTED_EDGE('',*,*,#108,.T.);
#90=ORIENTED_EDGE('',*,*,#105,.F.);
#91=ORIENTED_EDGE('',*,*,#102,.F.);
#92=ORIENTED_EDGE('',*,*,#120,.T.);
#93=ORIENTED_EDGE('',*,*,#118,.T.);
#94=ORIENTED_EDGE('',*,*,#116,.T.);
#95=ORIENTED_EDGE('',*,*,#114,.T.);
#96=ORIENTED_EDGE('',*,*,#112,.T.);
#97=ORIENTED_EDGE('',*,*,#126,.T.);
#98=EDGE_CURVE('',#127,#128,#151,.T.);
#99=EDGE_CURVE('',#129,#128,#22,.T.);
#100=EDGE_CURVE('',#130,#129,#152,.T.);
#101=EDGE_CURVE('',#130,#127,#23,.T.);
#102=EDGE_CURVE('',#128,#131,#24,.T.);
#103=EDGE_CURVE('',#132,#131,#25,.T.);
#104=EDGE_CURVE('',#129,#132,#26,.T.);
#105=EDGE_CURVE('',#131,#133,#12,.T.);
#106=EDGE_CURVE('',#134,#133,#27,.T.);
#107=EDGE_CURVE('',#132,#134,#13,.T.);
#108=EDGE_CURVE('',#135,#133,#14,.T.);
#109=EDGE_CURVE('',#136,#135,#28,.T.);
#110=EDGE_CURVE('',#136,#134,#15,.T.);
#111=EDGE_CURVE('',#137,#137,#153,.T.);
#112=EDGE_CURVE('',#138,#138,#154,.T.);
#113=EDGE_CURVE('',#139,#139,#155,.T.);
#114=EDGE_CURVE('',#140,#140,#156,.T.);
#115=EDGE_CURVE('',#141,#141,#157,.T.);
#116=EDGE_CURVE('',#142,#142,#158,.T.);
#117=EDGE_CURVE('',#143,#143,#159,.T.);
#118=EDGE_CURVE('',#144,#144,#160,.T.);
#119=EDGE_CURVE('',#145,#145,#161,.T.);
#120=EDGE_CURVE('',#146,#146,#162,.T.);
#121=EDGE_CURVE('',#127,#135,#29,.T.);
#122=EDGE_CURVE('',#130,#136,#30,.T.);
#123=EDGE_CURVE('',#147,#147,#163,.T.);
#124=EDGE_CURVE('',#148,#148,#164,.T.);
#125=EDGE_CURVE('',#149,#149,#165,.T.);
#126=EDGE_CURVE('',#150,#150,#166,.T.);
#127=VERTEX_POINT('',#370);
#128=VERTEX_POINT('',#371);
#129=VERTEX_POINT('',#373);
#130=VERTEX_POINT('',#375);
#131=VERTEX_POINT('',#379);
#132=VERTEX_POINT('',#381);
#133=VERTEX_POINT('',#394);
#134=VERTEX_POINT('',#396);
#135=VERTEX_POINT('',#411);
#136=VERTEX_POINT('',#413);
#137=VERTEX_POINT('',#419);
#138=VERTEX_POINT('',#421);
#139=VERTEX_POINT('',#424);
#140=VERTEX_POINT('',#426);
#141=VERTEX_POINT('',#429);
#142=VERTEX_POINT('',#431);
#143=VERTEX_POINT('',#434);
#144=VERTEX_POINT('',#436);
#145=VERTEX_POINT('',#439);
#146=VERTEX_POINT('',#441);
#147=VERTEX_POINT('',#447);
#148=VERTEX_POINT('',#449);
#149=VERTEX_POINT('',#452);
#150=VERTEX_POINT('',#454);
#151=CIRCLE('',#273,0.00395984218542081);
#152=CIRCLE('',#274,0.00395984218542081);
#153=CIRCLE('',#277,0.000598157281011827);
#154=CIRCLE('',#278,0.000598157281011827);
#155=CIRCLE('',#280,0.00055616015806917);
#156=CIRCLE('',#281,0.00055616015806917);
#157=CIRCLE('',#283,0.000610957569499395);
#158=CIRCLE('',#284,0.000610957569499395);
#159=CIRCLE('',#286,0.000650526306883619);
#160=CIRCLE('',#287,0.000650526306883619);
#161=CIRCLE('',#289,0.000614199681689816);
#162=CIRCLE('',#290,0.000614199681689816);
#163=CIRCLE('',#293,0.0016398286265835);
#164=CIRCLE('',#294,0.0016398286265835);
#165=CIRCLE('',#296,0.000531693247930145);
#166=CIRCLE('',#297,0.000531693247930145);
#167=EDGE_LOOP('',(#40,#41,#42,#43));
#168=EDGE_LOOP('',(#44,#45,#46,#47));
#169=EDGE_LOOP('',(#48,#49,#50,#51));
#170=EDGE_LOOP('',(#52,#53,#54,#55));
#171=EDGE_LOOP('',(#56));
#172=EDGE_LOOP('',(#57));
#173=EDGE_LOOP('',(#58));
#174=EDGE_LOOP('',(#59));
#175=EDGE_LOOP('',(#60));
#176=EDGE_LOOP('',(#61));
#177=EDGE_LOOP('',(#62));
#178=EDGE_LOOP('',(#63));
#179=EDGE_LOOP('',(#64));
#180=EDGE_LOOP('',(#65));
#181=EDGE_LOOP('',(#66,#67,#68,#69));
#182=EDGE_LOOP('',(#70));
#183=EDGE_LOOP('',(#71));
#184=EDGE_LOOP('',(#72));
#185=EDGE_LOOP('',(#73));
#186=EDGE_LOOP('',(#74));
#187=EDGE_LOOP('',(#75,#76,#77,#78,#79));
#188=EDGE_LOOP('',(#80));
#189=EDGE_LOOP('',(#81));
#190=EDGE_LOOP('',(#82));
#191=EDGE_LOOP('',(#83));
#192=EDGE_LOOP('',(#84));
#193=EDGE_LOOP('',(#85));
#194=EDGE_LOOP('',(#86));
#195=EDGE_LOOP('',(#87,#88,#89,#90,#91));
#196=EDGE_LOOP('',(#92));
#197=EDGE_LOOP('',(#93));
#198=EDGE_LOOP('',(#94));
#199=EDGE_LOOP('',(#95));
#200=EDGE_LOOP('',(#96));
#201=EDGE_LOOP('',(#97));
#202=FACE_BOUND('',#167,.T.);
#203=FACE_BOUND('',#168,.T.);
#204=FACE_BOUND('',#169,.T.);
#205=FACE_BOUND('',#170,.T.);
#206=FACE_BOUND('',#171,.T.);
#207=FACE_BOUND('',#172,.T.);
#208=FACE_BOUND('',#173,.T.);
#209=FACE_BOUND('',#174,.T.);
#210=FACE_BOUND('',#175,.T.);
#211=FACE_BOUND('',#176,.T.);
#212=FACE_BOUND('',#177,.T.);
#213=FACE_BOUND('',#178,.T.);
#214=FACE_BOUND('',#179,.T.);
#215=FACE_BOUND('',#180,.T.);
#216=FACE_BOUND('',#181,.T.);
#217=FACE_BOUND('',#182,.T.);
#218=FACE_BOUND('',#183,.T.);
#219=FACE_BOUND('',#184,.T.);
#220=FACE_BOUND('',#185,.T.);
#221=FACE_BOUND('',#186,.T.);
#222=FACE_BOUND('',#187,.T.);
#223=FACE_BOUND('',#188,.T.);
#224=FACE_BOUND('',#189,.T.);
#225=FACE_BOUND('',#190,.T.);
#226=FACE_BOUND('',#191,.T.);
#227=FACE_BOUND('',#192,.T.);
#228=FACE_BOUND('',#193,.T.);
#229=FACE_BOUND('',#194,.T.);
#230=FACE_BOUND('',#195,.T.);
#231=FACE_BOUND('',#196,.T.);
#232=FACE_BOUND('',#197,.T.);
#233=FACE_BOUND('',#198,.T.);
#234=FACE_BOUND('',#199,.T.);
#235=FACE_BOUND('',#200,.T.);
#236=FACE_BOUND('',#201,.T.);
#237=CYLINDRICAL_SURFACE('',#272,0.00395984218542081);
#238=CYLINDRICAL_SURFACE('',#276,0.000598157281011827);
#239=CYLINDRICAL_SURFACE('',#279,0.00055616015806917);
#240=CYLINDRICAL_SURFACE('',#282,0.000610957569499395);
#241=CYLINDRICAL_SURFACE('',#285,0.000650526306883619);
#242=CYLINDRICAL_SURFACE('',#288,0.000614199681689816);
#243=CYLINDRICAL_SURFACE('',#292,0.0016398286265835);
#244=CYLINDRICAL_SURFACE('',#295,0.000531693247930145);
#245=ADVANCED_FACE('',(#202),#237,.T.);
#246=ADVANCED_FACE('',(#203),#18,.F.);
#247=ADVANCED_FACE('',(#204),#16,.F.);
#248=ADVANCED_FACE('',(#205),#17,.T.);
#249=ADVANCED_FACE('',(#206,#207),#238,.F.);
#250=ADVANCED_FACE('',(#208,#209),#239,.F.);
#251=ADVANCED_FACE('',(#210,#211),#240,.F.);
#252=ADVANCED_FACE('',(#212,#213),#241,.F.);
#253=ADVANCED_FACE('',(#214,#215),#242,.F.);
#254=ADVANCED_FACE('',(#216),#19,.T.);
#255=ADVANCED_FACE('',(#217,#218),#243,.F.);
#256=ADVANCED_FACE('',(#219,#220),#244,.F.);
#257=ADVANCED_FACE('',(#221,#222,#223,#224,#225,#226,#227,#228),#20,.T.);
#258=ADVANCED_FACE('',(#229,#230,#231,#232,#233,#234,#235,#236),#21,.F.);
#259=CLOSED_SHELL('',(#245,#246,#247,#248,#249,#250,#251,#252,#253,#254,
#255,#256,#257,#258));
#260=STYLED_ITEM('',(#261),#268);
#261=PRESENTATION_STYLE_ASSIGNMENT((#262));
#262=SURFACE_STYLE_USAGE(.BOTH.,#263);
#263=SURFACE_SIDE_STYLE('',(#264));
#264=SURFACE_STYLE_FILL_AREA(#265);
#265=FILL_AREA_STYLE('',(#266));
#266=FILL_AREA_STYLE_COLOUR('',#267);
#267=COLOUR_RGB('',0.615686274509804,0.811764705882353,0.929411764705882);
#268=MANIFOLD_SOLID_BREP('Part 1',#259);
#269=SHAPE_DEFINITION_REPRESENTATION(#463,#270);
#270=SHAPE_REPRESENTATION('Part 1',(#271),#458);
#271=AXIS2_PLACEMENT_3D('',#367,#300,#301);
#272=AXIS2_PLACEMENT_3D('',#368,#302,#303);
#273=AXIS2_PLACEMENT_3D('',#369,#304,#305);
#274=AXIS2_PLACEMENT_3D('',#374,#307,#308);
#275=AXIS2_PLACEMENT_3D('',#377,#310,#311);
#276=AXIS2_PLACEMENT_3D('',#417,#317,#318);
#277=AXIS2_PLACEMENT_3D('',#418,#319,#320);
#278=AXIS2_PLACEMENT_3D('',#420,#321,#322);
#279=AXIS2_PLACEMENT_3D('',#422,#323,#324);
#280=AXIS2_PLACEMENT_3D('',#423,#325,#326);
#281=AXIS2_PLACEMENT_3D('',#425,#327,#328);
#282=AXIS2_PLACEMENT_3D('',#427,#329,#330);
#283=AXIS2_PLACEMENT_3D('',#428,#331,#332);
#284=AXIS2_PLACEMENT_3D('',#430,#333,#334);
#285=AXIS2_PLACEMENT_3D('',#432,#335,#336);
#286=AXIS2_PLACEMENT_3D('',#433,#337,#338);
#287=AXIS2_PLACEMENT_3D('',#435,#339,#340);
#288=AXIS2_PLACEMENT_3D('',#437,#341,#342);
#289=AXIS2_PLACEMENT_3D('',#438,#343,#344);
#290=AXIS2_PLACEMENT_3D('',#440,#345,#346);
#291=AXIS2_PLACEMENT_3D('',#442,#347,#348);
#292=AXIS2_PLACEMENT_3D('',#445,#351,#352);
#293=AXIS2_PLACEMENT_3D('',#446,#353,#354);
#294=AXIS2_PLACEMENT_3D('',#448,#355,#356);
#295=AXIS2_PLACEMENT_3D('',#450,#357,#358);
#296=AXIS2_PLACEMENT_3D('',#451,#359,#360);
#297=AXIS2_PLACEMENT_3D('',#453,#361,#362);
#298=AXIS2_PLACEMENT_3D('',#455,#363,#364);
#299=AXIS2_PLACEMENT_3D('',#456,#365,#366);
#300=DIRECTION('',(0.,0.,1.));
#301=DIRECTION('',(1.,0.,0.));
#302=DIRECTION('',(0.,0.,-1.));
#303=DIRECTION('',(-1.,0.,0.));
#304=DIRECTION('',(0.,0.,1.));
#305=DIRECTION('',(1.,0.,0.));
#306=DIRECTION('',(0.,0.,-1.));
#307=DIRECTION('',(0.,0.,1.));
#308=DIRECTION('',(1.,0.,0.));
#309=DIRECTION('',(0.,0.,-1.));
#310=DIRECTION('',(0.999547254673745,0.0300879656038892,0.));
#311=DIRECTION('',(-0.0300879656038892,0.999547254673745,0.));
#312=DIRECTION('',(0.0300879656038892,-0.999547254673744,0.));
#313=DIRECTION('',(0.,0.,-1.));
#314=DIRECTION('',(0.0300879656038892,-0.999547254673744,0.));
#315=DIRECTION('',(0.,0.,-1.));
#316=DIRECTION('',(0.,0.,-1.));
#317=DIRECTION('',(0.,0.,-1.));
#318=DIRECTION('',(-1.,0.,0.));
#319=DIRECTION('',(0.,0.,1.));
#320=DIRECTION('',(1.,0.,0.));
#321=DIRECTION('',(0.,0.,1.));
#322=DIRECTION('',(1.,0.,0.));
#323=DIRECTION('',(0.,0.,-1.));
#324=DIRECTION('',(-1.,0.,0.));
#325=DIRECTION('',(0.,0.,1.));
#326=DIRECTION('',(1.,0.,0.));
#327=DIRECTION('',(0.,0.,1.));
#328=DIRECTION('',(1.,0.,0.));
#329=DIRECTION('',(0.,0.,-1.));
#330=DIRECTION('',(-1.,0.,0.));
#331=DIRECTION('',(0.,0.,1.));
#332=DIRECTION('',(1.,0.,0.));
#333=DIRECTION('',(0.,0.,1.));
#334=DIRECTION('',(1.,0.,0.));
#335=DIRECTION('',(0.,0.,-1.));
#336=DIRECTION('',(-1.,0.,0.));
#337=DIRECTION('',(0.,0.,1.));
#338=DIRECTION('',(1.,0.,0.));
#339=DIRECTION('',(0.,0.,1.));
#340=DIRECTION('',(1.,0.,0.));
#341=DIRECTION('',(0.,0.,-1.));
#342=DIRECTION('',(-1.,0.,0.));
#343=DIRECTION('',(0.,0.,1.));
#344=DIRECTION('',(1.,0.,0.));
#345=DIRECTION('',(0.,0.,1.));
#346=DIRECTION('',(1.,0.,0.));
#347=DIRECTION('',(0.999547254673745,-0.0300879656038892,0.));
#348=DIRECTION('',(0.0300879656038892,0.999547254673745,0.));
#349=DIRECTION('',(-0.0300879656038892,-0.999547254673744,0.));
#350=DIRECTION('',(-0.0300879656038892,-0.999547254673744,0.));
#351=DIRECTION('',(0.,0.,-1.));
#352=DIRECTION('',(-1.,0.,0.));
#353=DIRECTION('',(0.,0.,1.));
#354=DIRECTION('',(1.,0.,0.));
#355=DIRECTION('',(0.,0.,1.));
#356=DIRECTION('',(1.,0.,0.));
#357=DIRECTION('',(0.,0.,-1.));
#358=DIRECTION('',(-1.,0.,0.));
#359=DIRECTION('',(0.,0.,1.));
#360=DIRECTION('',(1.,0.,0.));
#361=DIRECTION('',(0.,0.,1.));
#362=DIRECTION('',(1.,0.,0.));
#363=DIRECTION('',(0.,0.,1.));
#364=DIRECTION('',(1.,0.,0.));
#365=DIRECTION('',(0.,0.,1.));
#366=DIRECTION('',(1.,0.,0.));
#367=CARTESIAN_POINT('',(0.,0.,0.));
#368=CARTESIAN_POINT('',(3.38075635934707E-19,0.0169548708945513,0.00254));
#369=CARTESIAN_POINT('',(3.38075635934707E-19,0.0169548708945513,0.));
#370=CARTESIAN_POINT('',(0.00272749727662595,0.0140841377583235,0.));
#371=CARTESIAN_POINT('',(-0.00272749727662595,0.0140841377583235,0.));
#372=CARTESIAN_POINT('',(-0.00272749727662595,0.0140841377583235,0.00254));
#373=CARTESIAN_POINT('',(-0.00272749727662595,0.0140841377583235,0.00254));
#374=CARTESIAN_POINT('',(3.38075635934707E-19,0.0169548708945513,0.00254));
#375=CARTESIAN_POINT('',(0.00272749727662595,0.0140841377583235,0.00254));
#376=CARTESIAN_POINT('',(0.00272749727662595,0.0140841377583235,0.00254));
#377=CARTESIAN_POINT('',(-0.0025331825454707,0.00762884069284868,0.00254));
#378=CARTESIAN_POINT('',(-0.0025331825454707,0.00762884069284868,0.));
#379=CARTESIAN_POINT('',(-0.00233886781431546,0.00117354362737387,0.));
#380=CARTESIAN_POINT('',(-0.00233886781431546,0.00117354362737387,0.00254));
#381=CARTESIAN_POINT('',(-0.00233886781431546,0.00117354362737387,0.00254));
#382=CARTESIAN_POINT('',(-0.0025331825454707,0.00762884069284868,0.00254));
#383=CARTESIAN_POINT('',(-0.00233886781431546,0.00117354362737387,0.00254));
#384=CARTESIAN_POINT('',(-0.00233886781431546,0.00117354362737387,0.));
#385=CARTESIAN_POINT('',(-0.00237462483545671,4.5294718195994E-5,0.00254));
#386=CARTESIAN_POINT('',(-0.00237462483545671,4.5294718195994E-5,0.));
#387=CARTESIAN_POINT('',(-0.00159500223068489,-0.000644917677467068,0.00254));
#388=CARTESIAN_POINT('',(-0.00159500223068489,-0.000644917677467068,0.));
#389=CARTESIAN_POINT('',(0.,-0.000897093559615314,0.00254));
#390=CARTESIAN_POINT('',(0.,-0.000897093559615314,0.));
#391=CARTESIAN_POINT('',(-0.00233886781431546,0.00117354362737387,0.));
#392=CARTESIAN_POINT('',(-0.00239250334602734,-0.000518829736392945,0.));
#393=CARTESIAN_POINT('',(0.,-0.000897093559615314,0.));
#394=CARTESIAN_POINT('',(0.,-0.000897093559615314,0.));
#395=CARTESIAN_POINT('',(0.,-0.000897093559615314,0.00254));
#396=CARTESIAN_POINT('',(0.,-0.000897093559615314,0.00254));
#397=CARTESIAN_POINT('',(-0.00233886781431546,0.00117354362737387,0.00254));
#398=CARTESIAN_POINT('',(-0.00239250334602734,-0.000518829736392945,0.00254));
#399=CARTESIAN_POINT('',(0.,-0.000897093559615314,0.00254));
#400=CARTESIAN_POINT('',(0.00233886781431546,0.00117354362737387,0.00254));
#401=CARTESIAN_POINT('',(0.00233886781431546,0.00117354362737387,0.));
#402=CARTESIAN_POINT('',(0.00237462483545671,4.5294718195994E-5,0.00254));
#403=CARTESIAN_POINT('',(0.00237462483545671,4.5294718195994E-5,0.));
#404=CARTESIAN_POINT('',(0.00159500223068489,-0.000644917677467068,0.00254));
#405=CARTESIAN_POINT('',(0.00159500223068489,-0.000644917677467068,0.));
#406=CARTESIAN_POINT('',(0.,-0.000897093559615314,0.00254));
#407=CARTESIAN_POINT('',(0.,-0.000897093559615314,0.));
#408=CARTESIAN_POINT('',(0.00233886781431546,0.00117354362737387,0.));
#409=CARTESIAN_POINT('',(0.00239250334602734,-0.000518829736392945,0.));
#410=CARTESIAN_POINT('',(0.,-0.000897093559615314,0.));
#411=CARTESIAN_POINT('',(0.00233886781431546,0.00117354362737387,0.));
#412=CARTESIAN_POINT('',(0.00233886781431546,0.00117354362737387,0.00254));
#413=CARTESIAN_POINT('',(0.00233886781431546,0.00117354362737387,0.00254));
#414=CARTESIAN_POINT('',(0.00233886781431546,0.00117354362737387,0.00254));
#415=CARTESIAN_POINT('',(0.00239250334602734,-0.000518829736392945,0.00254));
#416=CARTESIAN_POINT('',(0.,-0.000897093559615314,0.00254));
#417=CARTESIAN_POINT('',(-3.66265699788909E-20,0.00972600563003194,0.00254));
#418=CARTESIAN_POINT('',(-3.66265699788909E-20,0.00972600563003194,0.00254));
#419=CARTESIAN_POINT('',(0.000598157281011827,0.00972600563003194,0.00254));
#420=CARTESIAN_POINT('',(-3.66265699788909E-20,0.00972600563003194,0.));
#421=CARTESIAN_POINT('',(0.000598157281011827,0.00972600563003194,0.));
#422=CARTESIAN_POINT('',(-3.40549878696347E-20,0.00736348919230858,0.00254));
#423=CARTESIAN_POINT('',(-3.40549878696347E-20,0.00736348919230858,0.00254));
#424=CARTESIAN_POINT('',(0.00055616015806917,0.00736348919230858,0.00254));
#425=CARTESIAN_POINT('',(-3.40549878696347E-20,0.00736348919230858,0.));
#426=CARTESIAN_POINT('',(0.00055616015806917,0.00736348919230858,0.));
#427=CARTESIAN_POINT('',(-3.74103615951141E-20,0.00514571556689217,0.00254));
#428=CARTESIAN_POINT('',(-3.74103615951141E-20,0.00514571556689217,0.00254));
#429=CARTESIAN_POINT('',(0.000610957569499395,0.00514571556689217,0.00254));
#430=CARTESIAN_POINT('',(-3.74103615951141E-20,0.00514571556689217,0.));
#431=CARTESIAN_POINT('',(0.000610957569499395,0.00514571556689217,0.));
#432=CARTESIAN_POINT('',(-3.98332479743087E-20,0.00315418087568432,0.00254));
#433=CARTESIAN_POINT('',(-3.98332479743087E-20,0.00315418087568432,0.00254));
#434=CARTESIAN_POINT('',(0.000650526306883619,0.00315418087568432,0.00254));
#435=CARTESIAN_POINT('',(-3.98332479743087E-20,0.00315418087568432,0.));
#436=CARTESIAN_POINT('',(0.000650526306883619,0.00315418087568432,0.));
#437=CARTESIAN_POINT('',(-3.76088837109379E-20,0.000867366332094249,0.00254));
#438=CARTESIAN_POINT('',(-3.76088837109379E-20,0.000867366332094249,0.00254));
#439=CARTESIAN_POINT('',(0.000614199681689816,0.000867366332094249,0.00254));
#440=CARTESIAN_POINT('',(-3.76088837109379E-20,0.000867366332094249,0.));
#441=CARTESIAN_POINT('',(0.000614199681689816,0.000867366332094249,0.));
#442=CARTESIAN_POINT('',(0.0025331825454707,0.00762884069284868,0.00254));
#443=CARTESIAN_POINT('',(0.0025331825454707,0.00762884069284868,0.));
#444=CARTESIAN_POINT('',(0.0025331825454707,0.00762884069284868,0.00254));
#445=CARTESIAN_POINT('',(0.,0.0169548708945513,0.00254));
#446=CARTESIAN_POINT('',(0.,0.0169548708945513,0.00254));
#447=CARTESIAN_POINT('',(0.0016398286265835,0.0169548708945513,0.00254));
#448=CARTESIAN_POINT('',(0.,0.0169548708945513,0.));
#449=CARTESIAN_POINT('',(0.0016398286265835,0.0169548708945513,0.));
#450=CARTESIAN_POINT('',(-3.25568217102956E-20,0.0119266068700066,0.00254));
#451=CARTESIAN_POINT('',(-3.25568217102956E-20,0.0119266068700066,0.00254));
#452=CARTESIAN_POINT('',(0.000531693247930145,0.0119266068700066,0.00254));
#453=CARTESIAN_POINT('',(-3.25568217102956E-20,0.0119266068700066,0.));
#454=CARTESIAN_POINT('',(0.000531693247930145,0.0119266068700066,0.));
#455=CARTESIAN_POINT('',(0.,0.0100088097601784,0.00254));
#456=CARTESIAN_POINT('',(0.,0.0100088097601784,0.));
#457=MECHANICAL_DESIGN_GEOMETRIC_PRESENTATION_REPRESENTATION('',(#260),
#458);
#458=(
GEOMETRIC_REPRESENTATION_CONTEXT(3)
GLOBAL_UNCERTAINTY_ASSIGNED_CONTEXT((#459))
GLOBAL_UNIT_ASSIGNED_CONTEXT((#462,#461,#460))
REPRESENTATION_CONTEXT('Part 1','TOP_LEVEL_ASSEMBLY_PART')
);
#459=UNCERTAINTY_MEASURE_WITH_UNIT(LENGTH_MEASURE(2.E-5),#462,
'DISTANCE_ACCURACY_VALUE','Maximum Tolerance applied to model');
#460=(
NAMED_UNIT(*)
SI_UNIT($,.STERADIAN.)
SOLID_ANGLE_UNIT()
);
#461=(
NAMED_UNIT(*)
PLANE_ANGLE_UNIT()
SI_UNIT($,.RADIAN.)
);
#462=(
LENGTH_UNIT()
NAMED_UNIT(*)
SI_UNIT($,.METRE.)
);
#463=PRODUCT_DEFINITION_SHAPE('','',#464);
#464=PRODUCT_DEFINITION('','',#466,#465);
#465=PRODUCT_DEFINITION_CONTEXT('',#472,'design');
#466=PRODUCT_DEFINITION_FORMATION_WITH_SPECIFIED_SOURCE('','',#468,
 .NOT_KNOWN.);
#467=PRODUCT_RELATED_PRODUCT_CATEGORY('','',(#468));
#468=PRODUCT('Part 1','Part 1','Part 1',(#470));
#469=PRODUCT_CATEGORY('','');
#470=PRODUCT_CONTEXT('',#472,'mechanical');
#471=APPLICATION_PROTOCOL_DEFINITION('international standard',
'ap242_managed_model_based_3d_engineering',2020,#472);
#472=APPLICATION_CONTEXT('managed model based 3d engineering');
ENDSEC;
END-ISO-10303-21;
