ISO-10303-21;
HEADER;
/* Generated by software containing ST-Developer
 * from STEP Tools, Inc. (www.steptools.com) 
 */
/* OPTION: using custom renumber hook */

FILE_DESCRIPTION(
/* description */ ('STEP AP242 Edition 2',
'CAx-IF Rec.Pracs.---Representation and Presentation of Product Manufa
cturing Information (PMI)---4.0---2014-10-13',
'CAx-IF Rec.Pracs.---3D Tessellated Geometry---0.4---2014-09-14','2;1',
'CAx-IF Rec.Pracs.---User Defined Attributes---1.5---2016-08-15'),
/* implementation_level */ '2;1');

FILE_NAME(
/* name */ 'servo model',
/* time_stamp */ '2026-08-03T01:30:31Z',
/* author */ (''),
/* organization */ (''),
/* preprocessor_version */ 'ST-DEVELOPER v20',
/* originating_system */ 'ONSHAPE BY PTC INC, 1.218',
/* authorisation */ '  ');

FILE_SCHEMA (('AP242_MANAGED_MODEL_BASED_3D_ENGINEERING_MIM_LF { 1 0 10303 442 3 1 4 }'));
ENDSEC;

DATA;
#10=LINE('',#493,#48);
#11=LINE('',#495,#49);
#12=LINE('',#497,#50);
#13=LINE('',#499,#51);
#14=LINE('',#502,#52);
#15=LINE('',#504,#53);
#16=LINE('',#506,#54);
#17=LINE('',#508,#55);
#18=LINE('',#510,#56);
#19=LINE('',#512,#57);
#20=LINE('',#514,#58);
#21=LINE('',#516,#59);
#22=LINE('',#518,#60);
#23=LINE('',#520,#61);
#24=LINE('',#522,#62);
#25=LINE('',#524,#63);
#26=LINE('',#526,#64);
#27=LINE('',#528,#65);
#28=LINE('',#530,#66);
#29=LINE('',#532,#67);
#30=LINE('',#534,#68);
#31=LINE('',#536,#69);
#32=LINE('',#539,#70);
#33=LINE('',#540,#71);
#34=LINE('',#542,#72);
#35=LINE('',#544,#73);
#36=LINE('',#546,#74);
#37=LINE('',#548,#75);
#38=LINE('',#550,#76);
#39=LINE('',#552,#77);
#40=LINE('',#554,#78);
#41=LINE('',#556,#79);
#42=LINE('',#558,#80);
#43=LINE('',#560,#81);
#44=LINE('',#562,#82);
#45=LINE('',#564,#83);
#46=LINE('',#566,#84);
#47=LINE('',#567,#85);
#48=VECTOR('',#406,1.);
#49=VECTOR('',#407,1.);
#50=VECTOR('',#408,1.);
#51=VECTOR('',#411,1.);
#52=VECTOR('',#412,1.);
#53=VECTOR('',#413,1.);
#54=VECTOR('',#414,1.);
#55=VECTOR('',#417,1.);
#56=VECTOR('',#418,1.);
#57=VECTOR('',#419,1.);
#58=VECTOR('',#422,1.);
#59=VECTOR('',#423,1.);
#60=VECTOR('',#424,1.);
#61=VECTOR('',#427,1.);
#62=VECTOR('',#428,1.);
#63=VECTOR('',#429,1.);
#64=VECTOR('',#432,1.);
#65=VECTOR('',#433,1.);
#66=VECTOR('',#434,1.);
#67=VECTOR('',#437,1.);
#68=VECTOR('',#438,1.);
#69=VECTOR('',#439,1.);
#70=VECTOR('',#444,1.);
#71=VECTOR('',#445,1.);
#72=VECTOR('',#448,1.);
#73=VECTOR('',#449,1.);
#74=VECTOR('',#450,1.);
#75=VECTOR('',#453,1.);
#76=VECTOR('',#454,1.);
#77=VECTOR('',#455,1.);
#78=VECTOR('',#458,1.);
#79=VECTOR('',#459,1.);
#80=VECTOR('',#460,1.);
#81=VECTOR('',#463,1.);
#82=VECTOR('',#464,1.);
#83=VECTOR('',#465,1.);
#84=VECTOR('',#468,1.);
#85=VECTOR('',#469,1.);
#86=DRAUGHTING_PRE_DEFINED_COLOUR('blue');
#87=SHAPE_REPRESENTATION_RELATIONSHIP('','',#359,#89);
#88=SHAPE_REPRESENTATION_RELATIONSHIP('','',#360,#90);
#89=ADVANCED_BREP_SHAPE_REPRESENTATION('',(#355),#576);
#90=ADVANCED_BREP_SHAPE_REPRESENTATION('',(#356),#577);
#91=PLANE('',#365);
#92=PLANE('',#366);
#93=PLANE('',#368);
#94=PLANE('',#370);
#95=PLANE('',#371);
#96=PLANE('',#372);
#97=PLANE('',#373);
#98=PLANE('',#374);
#99=PLANE('',#375);
#100=PLANE('',#376);
#101=PLANE('',#378);
#102=PLANE('',#379);
#103=PLANE('',#380);
#104=PLANE('',#381);
#105=PLANE('',#382);
#106=PLANE('',#383);
#107=PLANE('',#384);
#108=PLANE('',#387);
#109=ORIENTED_EDGE('',*,*,#195,.F.);
#110=ORIENTED_EDGE('',*,*,#196,.T.);
#111=ORIENTED_EDGE('',*,*,#195,.T.);
#112=ORIENTED_EDGE('',*,*,#196,.F.);
#113=ORIENTED_EDGE('',*,*,#197,.F.);
#114=ORIENTED_EDGE('',*,*,#198,.F.);
#115=ORIENTED_EDGE('',*,*,#199,.F.);
#116=ORIENTED_EDGE('',*,*,#200,.T.);
#117=ORIENTED_EDGE('',*,*,#201,.F.);
#118=ORIENTED_EDGE('',*,*,#202,.F.);
#119=ORIENTED_EDGE('',*,*,#203,.T.);
#120=ORIENTED_EDGE('',*,*,#204,.T.);
#121=ORIENTED_EDGE('',*,*,#205,.T.);
#122=ORIENTED_EDGE('',*,*,#206,.F.);
#123=ORIENTED_EDGE('',*,*,#207,.F.);
#124=ORIENTED_EDGE('',*,*,#202,.T.);
#125=ORIENTED_EDGE('',*,*,#208,.T.);
#126=ORIENTED_EDGE('',*,*,#209,.F.);
#127=ORIENTED_EDGE('',*,*,#210,.F.);
#128=ORIENTED_EDGE('',*,*,#206,.T.);
#129=ORIENTED_EDGE('',*,*,#211,.T.);
#130=ORIENTED_EDGE('',*,*,#212,.F.);
#131=ORIENTED_EDGE('',*,*,#213,.F.);
#132=ORIENTED_EDGE('',*,*,#209,.T.);
#133=ORIENTED_EDGE('',*,*,#214,.T.);
#134=ORIENTED_EDGE('',*,*,#215,.F.);
#135=ORIENTED_EDGE('',*,*,#216,.F.);
#136=ORIENTED_EDGE('',*,*,#212,.T.);
#137=ORIENTED_EDGE('',*,*,#217,.T.);
#138=ORIENTED_EDGE('',*,*,#218,.F.);
#139=ORIENTED_EDGE('',*,*,#219,.F.);
#140=ORIENTED_EDGE('',*,*,#215,.T.);
#141=ORIENTED_EDGE('',*,*,#220,.F.);
#142=ORIENTED_EDGE('',*,*,#221,.T.);
#143=ORIENTED_EDGE('',*,*,#218,.T.);
#144=ORIENTED_EDGE('',*,*,#222,.F.);
#145=ORIENTED_EDGE('',*,*,#223,.F.);
#146=ORIENTED_EDGE('',*,*,#224,.F.);
#147=ORIENTED_EDGE('',*,*,#225,.T.);
#148=ORIENTED_EDGE('',*,*,#199,.T.);
#149=ORIENTED_EDGE('',*,*,#226,.F.);
#150=ORIENTED_EDGE('',*,*,#227,.F.);
#151=ORIENTED_EDGE('',*,*,#228,.T.);
#152=ORIENTED_EDGE('',*,*,#224,.T.);
#153=ORIENTED_EDGE('',*,*,#229,.F.);
#154=ORIENTED_EDGE('',*,*,#230,.F.);
#155=ORIENTED_EDGE('',*,*,#231,.T.);
#156=ORIENTED_EDGE('',*,*,#227,.T.);
#157=ORIENTED_EDGE('',*,*,#232,.F.);
#158=ORIENTED_EDGE('',*,*,#233,.F.);
#159=ORIENTED_EDGE('',*,*,#234,.T.);
#160=ORIENTED_EDGE('',*,*,#230,.T.);
#161=ORIENTED_EDGE('',*,*,#235,.F.);
#162=ORIENTED_EDGE('',*,*,#204,.F.);
#163=ORIENTED_EDGE('',*,*,#236,.T.);
#164=ORIENTED_EDGE('',*,*,#233,.T.);
#165=ORIENTED_EDGE('',*,*,#203,.F.);
#166=ORIENTED_EDGE('',*,*,#207,.T.);
#167=ORIENTED_EDGE('',*,*,#210,.T.);
#168=ORIENTED_EDGE('',*,*,#213,.T.);
#169=ORIENTED_EDGE('',*,*,#216,.T.);
#170=ORIENTED_EDGE('',*,*,#219,.T.);
#171=ORIENTED_EDGE('',*,*,#221,.F.);
#172=ORIENTED_EDGE('',*,*,#200,.F.);
#173=ORIENTED_EDGE('',*,*,#225,.F.);
#174=ORIENTED_EDGE('',*,*,#228,.F.);
#175=ORIENTED_EDGE('',*,*,#231,.F.);
#176=ORIENTED_EDGE('',*,*,#234,.F.);
#177=ORIENTED_EDGE('',*,*,#236,.F.);
#178=ORIENTED_EDGE('',*,*,#201,.T.);
#179=ORIENTED_EDGE('',*,*,#235,.T.);
#180=ORIENTED_EDGE('',*,*,#232,.T.);
#181=ORIENTED_EDGE('',*,*,#229,.T.);
#182=ORIENTED_EDGE('',*,*,#226,.T.);
#183=ORIENTED_EDGE('',*,*,#223,.T.);
#184=ORIENTED_EDGE('',*,*,#198,.T.);
#185=ORIENTED_EDGE('',*,*,#222,.T.);
#186=ORIENTED_EDGE('',*,*,#217,.F.);
#187=ORIENTED_EDGE('',*,*,#214,.F.);
#188=ORIENTED_EDGE('',*,*,#211,.F.);
#189=ORIENTED_EDGE('',*,*,#208,.F.);
#190=ORIENTED_EDGE('',*,*,#205,.F.);
#191=ORIENTED_EDGE('',*,*,#237,.F.);
#192=ORIENTED_EDGE('',*,*,#197,.T.);
#193=ORIENTED_EDGE('',*,*,#220,.T.);
#194=ORIENTED_EDGE('',*,*,#237,.T.);
#195=EDGE_CURVE('',#238,#238,#267,.T.);
#196=EDGE_CURVE('',#239,#239,#268,.T.);
#197=EDGE_CURVE('',#240,#241,#269,.T.);
#198=EDGE_CURVE('',#242,#240,#10,.T.);
#199=EDGE_CURVE('',#243,#242,#11,.T.);
#200=EDGE_CURVE('',#243,#241,#12,.T.);
#201=EDGE_CURVE('',#244,#245,#13,.T.);
#202=EDGE_CURVE('',#246,#244,#14,.T.);
#203=EDGE_CURVE('',#246,#247,#15,.T.);
#204=EDGE_CURVE('',#247,#245,#16,.T.);
#205=EDGE_CURVE('',#244,#248,#17,.T.);
#206=EDGE_CURVE('',#249,#248,#18,.T.);
#207=EDGE_CURVE('',#246,#249,#19,.T.);
#208=EDGE_CURVE('',#248,#250,#20,.T.);
#209=EDGE_CURVE('',#251,#250,#21,.T.);
#210=EDGE_CURVE('',#249,#251,#22,.T.);
#211=EDGE_CURVE('',#250,#252,#23,.T.);
#212=EDGE_CURVE('',#253,#252,#24,.T.);
#213=EDGE_CURVE('',#251,#253,#25,.T.);
#214=EDGE_CURVE('',#252,#254,#26,.T.);
#215=EDGE_CURVE('',#255,#254,#27,.T.);
#216=EDGE_CURVE('',#253,#255,#28,.T.);
#217=EDGE_CURVE('',#254,#256,#29,.T.);
#218=EDGE_CURVE('',#257,#256,#30,.T.);
#219=EDGE_CURVE('',#255,#257,#31,.T.);
#220=EDGE_CURVE('',#241,#240,#270,.T.);
#221=EDGE_CURVE('',#241,#257,#32,.T.);
#222=EDGE_CURVE('',#240,#256,#33,.T.);
#223=EDGE_CURVE('',#258,#242,#34,.T.);
#224=EDGE_CURVE('',#259,#258,#35,.T.);
#225=EDGE_CURVE('',#259,#243,#36,.T.);
#226=EDGE_CURVE('',#260,#258,#37,.T.);
#227=EDGE_CURVE('',#261,#260,#38,.T.);
#228=EDGE_CURVE('',#261,#259,#39,.T.);
#229=EDGE_CURVE('',#262,#260,#40,.T.);
#230=EDGE_CURVE('',#263,#262,#41,.T.);
#231=EDGE_CURVE('',#263,#261,#42,.T.);
#232=EDGE_CURVE('',#264,#262,#43,.T.);
#233=EDGE_CURVE('',#265,#264,#44,.T.);
#234=EDGE_CURVE('',#265,#263,#45,.T.);
#235=EDGE_CURVE('',#245,#264,#46,.T.);
#236=EDGE_CURVE('',#247,#265,#47,.T.);
#237=EDGE_CURVE('',#266,#266,#271,.T.);
#238=VERTEX_POINT('',#483);
#239=VERTEX_POINT('',#485);
#240=VERTEX_POINT('',#491);
#241=VERTEX_POINT('',#492);
#242=VERTEX_POINT('',#494);
#243=VERTEX_POINT('',#496);
#244=VERTEX_POINT('',#500);
#245=VERTEX_POINT('',#501);
#246=VERTEX_POINT('',#503);
#247=VERTEX_POINT('',#505);
#248=VERTEX_POINT('',#509);
#249=VERTEX_POINT('',#511);
#250=VERTEX_POINT('',#515);
#251=VERTEX_POINT('',#517);
#252=VERTEX_POINT('',#521);
#253=VERTEX_POINT('',#523);
#254=VERTEX_POINT('',#527);
#255=VERTEX_POINT('',#529);
#256=VERTEX_POINT('',#533);
#257=VERTEX_POINT('',#535);
#258=VERTEX_POINT('',#543);
#259=VERTEX_POINT('',#545);
#260=VERTEX_POINT('',#549);
#261=VERTEX_POINT('',#551);
#262=VERTEX_POINT('',#555);
#263=VERTEX_POINT('',#557);
#264=VERTEX_POINT('',#561);
#265=VERTEX_POINT('',#563);
#266=VERTEX_POINT('',#572);
#267=CIRCLE('',#363,0.0023999952);
#268=CIRCLE('',#364,0.0023999952);
#269=CIRCLE('',#369,0.0060000007);
#270=CIRCLE('',#377,0.0060000007);
#271=CIRCLE('',#386,0.0060000007);
#272=EDGE_LOOP('',(#109));
#273=EDGE_LOOP('',(#110));
#274=EDGE_LOOP('',(#111));
#275=EDGE_LOOP('',(#112));
#276=EDGE_LOOP('',(#113,#114,#115,#116));
#277=EDGE_LOOP('',(#117,#118,#119,#120));
#278=EDGE_LOOP('',(#121,#122,#123,#124));
#279=EDGE_LOOP('',(#125,#126,#127,#128));
#280=EDGE_LOOP('',(#129,#130,#131,#132));
#281=EDGE_LOOP('',(#133,#134,#135,#136));
#282=EDGE_LOOP('',(#137,#138,#139,#140));
#283=EDGE_LOOP('',(#141,#142,#143,#144));
#284=EDGE_LOOP('',(#145,#146,#147,#148));
#285=EDGE_LOOP('',(#149,#150,#151,#152));
#286=EDGE_LOOP('',(#153,#154,#155,#156));
#287=EDGE_LOOP('',(#157,#158,#159,#160));
#288=EDGE_LOOP('',(#161,#162,#163,#164));
#289=EDGE_LOOP('',(#165,#166,#167,#168,#169,#170,#171,#172,#173,#174,#175,
#176,#177));
#290=EDGE_LOOP('',(#178,#179,#180,#181,#182,#183,#184,#185,#186,#187,#188,
#189,#190));
#291=EDGE_LOOP('',(#191));
#292=EDGE_LOOP('',(#192,#193));
#293=EDGE_LOOP('',(#194));
#294=FACE_BOUND('',#272,.T.);
#295=FACE_BOUND('',#273,.T.);
#296=FACE_BOUND('',#274,.T.);
#297=FACE_BOUND('',#275,.T.);
#298=FACE_BOUND('',#276,.T.);
#299=FACE_BOUND('',#277,.T.);
#300=FACE_BOUND('',#278,.T.);
#301=FACE_BOUND('',#279,.T.);
#302=FACE_BOUND('',#280,.T.);
#303=FACE_BOUND('',#281,.T.);
#304=FACE_BOUND('',#282,.T.);
#305=FACE_BOUND('',#283,.T.);
#306=FACE_BOUND('',#284,.T.);
#307=FACE_BOUND('',#285,.T.);
#308=FACE_BOUND('',#286,.T.);
#309=FACE_BOUND('',#287,.T.);
#310=FACE_BOUND('',#288,.T.);
#311=FACE_BOUND('',#289,.T.);
#312=FACE_BOUND('',#290,.T.);
#313=FACE_BOUND('',#291,.T.);
#314=FACE_BOUND('',#292,.T.);
#315=FACE_BOUND('',#293,.T.);
#316=CYLINDRICAL_SURFACE('',#362,0.0023999952);
#317=CYLINDRICAL_SURFACE('',#385,0.0060000007);
#318=ADVANCED_FACE('',(#294,#295),#316,.T.);
#319=ADVANCED_FACE('',(#296),#91,.T.);
#320=ADVANCED_FACE('',(#297),#92,.F.);
#321=ADVANCED_FACE('',(#298),#93,.T.);
#322=ADVANCED_FACE('',(#299),#94,.T.);
#323=ADVANCED_FACE('',(#300),#95,.F.);
#324=ADVANCED_FACE('',(#301),#96,.F.);
#325=ADVANCED_FACE('',(#302),#97,.F.);
#326=ADVANCED_FACE('',(#303),#98,.F.);
#327=ADVANCED_FACE('',(#304),#99,.F.);
#328=ADVANCED_FACE('',(#305),#100,.T.);
#329=ADVANCED_FACE('',(#306),#101,.T.);
#330=ADVANCED_FACE('',(#307),#102,.T.);
#331=ADVANCED_FACE('',(#308),#103,.T.);
#332=ADVANCED_FACE('',(#309),#104,.T.);
#333=ADVANCED_FACE('',(#310),#105,.T.);
#334=ADVANCED_FACE('',(#311),#106,.T.);
#335=ADVANCED_FACE('',(#312),#107,.F.);
#336=ADVANCED_FACE('',(#313,#314),#317,.T.);
#337=ADVANCED_FACE('',(#315),#108,.T.);
#338=CLOSED_SHELL('',(#318,#319,#320));
#339=CLOSED_SHELL('',(#321,#322,#323,#324,#325,#326,#327,#328,#329,#330,
#331,#332,#333,#334,#335,#336,#337));
#340=STYLED_ITEM('',(#342),#355);
#341=STYLED_ITEM('',(#343),#356);
#342=PRESENTATION_STYLE_ASSIGNMENT((#344));
#343=PRESENTATION_STYLE_ASSIGNMENT((#345));
#344=SURFACE_STYLE_USAGE(.BOTH.,#346);
#345=SURFACE_STYLE_USAGE(.BOTH.,#347);
#346=SURFACE_SIDE_STYLE('',(#348));
#347=SURFACE_SIDE_STYLE('',(#349));
#348=SURFACE_STYLE_FILL_AREA(#350);
#349=SURFACE_STYLE_FILL_AREA(#351);
#350=FILL_AREA_STYLE('',(#352));
#351=FILL_AREA_STYLE('',(#353));
#352=FILL_AREA_STYLE_COLOUR('',#354);
#353=FILL_AREA_STYLE_COLOUR('',#86);
#354=COLOUR_RGB('',0.647058823529412,0.647058823529412,0.647058823529412);
#355=MANIFOLD_SOLID_BREP('Part 2',#338);
#356=MANIFOLD_SOLID_BREP('Part 1',#339);
#357=SHAPE_DEFINITION_REPRESENTATION(#586,#359);
#358=SHAPE_DEFINITION_REPRESENTATION(#587,#360);
#359=SHAPE_REPRESENTATION('Part 2',(#361),#576);
#360=SHAPE_REPRESENTATION('Part 1',(#367),#577);
#361=AXIS2_PLACEMENT_3D('',#480,#388,#389);
#362=AXIS2_PLACEMENT_3D('',#481,#390,#391);
#363=AXIS2_PLACEMENT_3D('',#482,#392,#393);
#364=AXIS2_PLACEMENT_3D('',#484,#394,#395);
#365=AXIS2_PLACEMENT_3D('',#486,#396,#397);
#366=AXIS2_PLACEMENT_3D('',#487,#398,#399);
#367=AXIS2_PLACEMENT_3D('',#488,#400,#401);
#368=AXIS2_PLACEMENT_3D('',#489,#402,#403);
#369=AXIS2_PLACEMENT_3D('',#490,#404,#405);
#370=AXIS2_PLACEMENT_3D('',#498,#409,#410);
#371=AXIS2_PLACEMENT_3D('',#507,#415,#416);
#372=AXIS2_PLACEMENT_3D('',#513,#420,#421);
#373=AXIS2_PLACEMENT_3D('',#519,#425,#426);
#374=AXIS2_PLACEMENT_3D('',#525,#430,#431);
#375=AXIS2_PLACEMENT_3D('',#531,#435,#436);
#376=AXIS2_PLACEMENT_3D('',#537,#440,#441);
#377=AXIS2_PLACEMENT_3D('',#538,#442,#443);
#378=AXIS2_PLACEMENT_3D('',#541,#446,#447);
#379=AXIS2_PLACEMENT_3D('',#547,#451,#452);
#380=AXIS2_PLACEMENT_3D('',#553,#456,#457);
#381=AXIS2_PLACEMENT_3D('',#559,#461,#462);
#382=AXIS2_PLACEMENT_3D('',#565,#466,#467);
#383=AXIS2_PLACEMENT_3D('',#568,#470,#471);
#384=AXIS2_PLACEMENT_3D('',#569,#472,#473);
#385=AXIS2_PLACEMENT_3D('',#570,#474,#475);
#386=AXIS2_PLACEMENT_3D('',#571,#476,#477);
#387=AXIS2_PLACEMENT_3D('',#573,#478,#479);
#388=DIRECTION('',(0.,0.,1.));
#389=DIRECTION('',(1.,0.,0.));
#390=DIRECTION('',(0.,0.,-1.));
#391=DIRECTION('',(-1.,0.,0.));
#392=DIRECTION('',(0.,0.,1.));
#393=DIRECTION('',(1.,0.,0.));
#394=DIRECTION('',(0.,0.,1.));
#395=DIRECTION('',(1.,0.,0.));
#396=DIRECTION('',(0.,0.,1.));
#397=DIRECTION('',(1.,0.,0.));
#398=DIRECTION('',(0.,0.,1.));
#399=DIRECTION('',(1.,0.,0.));
#400=DIRECTION('',(0.,0.,1.));
#401=DIRECTION('',(1.,0.,0.));
#402=DIRECTION('',(3.02494454913927E-16,0.,1.));
#403=DIRECTION('',(1.,0.,-3.02494454913927E-16));
#404=DIRECTION('',(3.02494454913927E-16,0.,1.));
#405=DIRECTION('',(1.,0.,-3.02494454913927E-16));
#406=DIRECTION('',(1.,0.,-3.02494454913927E-16));
#407=DIRECTION('',(0.,1.,0.));
#408=DIRECTION('',(1.,0.,-3.02494454913927E-16));
#409=DIRECTION('',(0.,0.,-1.));
#410=DIRECTION('',(-1.,0.,0.));
#411=DIRECTION('',(-1.,0.,0.));
#412=DIRECTION('',(0.,1.,0.));
#413=DIRECTION('',(-1.,0.,0.));
#414=DIRECTION('',(0.,1.,0.));
#415=DIRECTION('',(-1.,0.,0.));
#416=DIRECTION('',(0.,0.,1.));
#417=DIRECTION('',(0.,0.,1.));
#418=DIRECTION('',(0.,1.,0.));
#419=DIRECTION('',(0.,0.,1.));
#420=DIRECTION('',(0.,0.,1.));
#421=DIRECTION('',(1.,0.,0.));
#422=DIRECTION('',(1.,0.,0.));
#423=DIRECTION('',(0.,1.,0.));
#424=DIRECTION('',(1.,0.,0.));
#425=DIRECTION('',(-1.,0.,0.));
#426=DIRECTION('',(0.,0.,1.));
#427=DIRECTION('',(0.,0.,1.));
#428=DIRECTION('',(0.,1.,0.));
#429=DIRECTION('',(0.,0.,1.));
#430=DIRECTION('',(0.,0.,-1.));
#431=DIRECTION('',(-1.,0.,0.));
#432=DIRECTION('',(-1.,0.,0.));
#433=DIRECTION('',(0.,1.,0.));
#434=DIRECTION('',(-1.,0.,0.));
#435=DIRECTION('',(-1.,0.,0.));
#436=DIRECTION('',(0.,0.,1.));
#437=DIRECTION('',(0.,0.,1.));
#438=DIRECTION('',(0.,1.,0.));
#439=DIRECTION('',(0.,0.,1.));
#440=DIRECTION('',(3.02494454913927E-16,0.,1.));
#441=DIRECTION('',(1.,0.,-3.02494454913927E-16));
#442=DIRECTION('',(3.02494454913927E-16,0.,1.));
#443=DIRECTION('',(1.,0.,-3.02494454913927E-16));
#444=DIRECTION('',(1.,0.,-3.02494454913927E-16));
#445=DIRECTION('',(1.,0.,-3.02494454913927E-16));
#446=DIRECTION('',(-1.,0.,0.));
#447=DIRECTION('',(0.,0.,1.));
#448=DIRECTION('',(0.,0.,1.));
#449=DIRECTION('',(0.,1.,0.));
#450=DIRECTION('',(0.,0.,1.));
#451=DIRECTION('',(0.,0.,1.));
#452=DIRECTION('',(1.,0.,0.));
#453=DIRECTION('',(1.,0.,0.));
#454=DIRECTION('',(0.,1.,0.));
#455=DIRECTION('',(1.,0.,0.));
#456=DIRECTION('',(-1.,0.,0.));
#457=DIRECTION('',(0.,0.,1.));
#458=DIRECTION('',(0.,0.,1.));
#459=DIRECTION('',(0.,1.,0.));
#460=DIRECTION('',(0.,0.,1.));
#461=DIRECTION('',(0.,0.,-1.));
#462=DIRECTION('',(-1.,0.,0.));
#463=DIRECTION('',(-1.,0.,0.));
#464=DIRECTION('',(0.,1.,0.));
#465=DIRECTION('',(-1.,0.,0.));
#466=DIRECTION('',(-1.,0.,0.));
#467=DIRECTION('',(0.,0.,1.));
#468=DIRECTION('',(0.,0.,1.));
#469=DIRECTION('',(0.,0.,1.));
#470=DIRECTION('',(0.,-1.,0.));
#471=DIRECTION('',(1.,0.,0.));
#472=DIRECTION('',(0.,-1.,0.));
#473=DIRECTION('',(1.,0.,0.));
#474=DIRECTION('',(-3.02494454913927E-16,0.,-1.));
#475=DIRECTION('',(-1.,0.,3.02494454913927E-16));
#476=DIRECTION('',(3.02494454913927E-16,0.,1.));
#477=DIRECTION('',(1.,0.,-3.02494454913927E-16));
#478=DIRECTION('',(3.02494454913927E-16,0.,1.));
#479=DIRECTION('',(1.,0.,-3.02494454913927E-16));
#480=CARTESIAN_POINT('',(0.,0.,0.));
#481=CARTESIAN_POINT('',(-0.029191043227911,0.0222913417965174,0.0031999936));
#482=CARTESIAN_POINT('',(-0.029191043227911,0.0222913417965174,0.0031999936));
#483=CARTESIAN_POINT('',(-0.026791048027911,0.0222913417965174,0.0031999936));
#484=CARTESIAN_POINT('',(-0.029191043227911,0.0222913417965174,0.));
#485=CARTESIAN_POINT('',(-0.026791048027911,0.0222913417965174,0.));
#486=CARTESIAN_POINT('',(-0.029191043227911,0.0222913417965174,0.0031999936));
#487=CARTESIAN_POINT('',(-0.029191043227911,0.0222913417965174,0.));
#488=CARTESIAN_POINT('',(0.,0.,0.));
#489=CARTESIAN_POINT('',(1.53416767716408E-5,-0.0060000007,0.02289998468));
#490=CARTESIAN_POINT('',(-0.00518128555268049,3.67394082606844E-19,0.02289998468));
#491=CARTESIAN_POINT('',(-0.00518128555268049,0.0060000007,0.02289998468));
#492=CARTESIAN_POINT('',(-0.00518128555268049,-0.0060000007,0.02289998468));
#493=CARTESIAN_POINT('',(1.53416767716408E-5,0.0060000007,0.02289998468));
#494=CARTESIAN_POINT('',(-0.011454114690423,0.0060000007,0.02289998468));
#495=CARTESIAN_POINT('',(-0.011454114690423,-0.0060000007,0.02289998468));
#496=CARTESIAN_POINT('',(-0.011454114690423,-0.0060000007,0.02289998468));
#497=CARTESIAN_POINT('',(1.53416767716408E-5,-0.0060000007,0.02289998468));
#498=CARTESIAN_POINT('',(0.,-0.0060000007,0.));
#499=CARTESIAN_POINT('',(0.,0.0060000007,0.));
#500=CARTESIAN_POINT('',(0.0115000024,0.0060000007,0.));
#501=CARTESIAN_POINT('',(-0.0115000024,0.0060000007,0.));
#502=CARTESIAN_POINT('',(0.0115000024,-0.0060000007,0.));
#503=CARTESIAN_POINT('',(0.0115000024,-0.0060000007,0.));
#504=CARTESIAN_POINT('',(0.,-0.0060000007,0.));
#505=CARTESIAN_POINT('',(-0.0115000024,-0.0060000007,0.));
#506=CARTESIAN_POINT('',(-0.0115000024,-0.0060000007,0.));
#507=CARTESIAN_POINT('',(0.0115000024,-0.0060000007,0.0079999967));
#508=CARTESIAN_POINT('',(0.0115000024,0.0060000007,0.0079999967));
#509=CARTESIAN_POINT('',(0.0115000024,0.0060000007,0.0159999934));
#510=CARTESIAN_POINT('',(0.0115000024,-0.0060000007,0.0159999934));
#511=CARTESIAN_POINT('',(0.0115000024,-0.0060000007,0.0159999934));
#512=CARTESIAN_POINT('',(0.0115000024,-0.0060000007,0.0079999967));
#513=CARTESIAN_POINT('',(0.0139999974,-0.0060000007,0.0159999934));
#514=CARTESIAN_POINT('',(0.0139999974,0.0060000007,0.0159999934));
#515=CARTESIAN_POINT('',(0.0164999924,0.0060000007,0.0159999934));
#516=CARTESIAN_POINT('',(0.0164999924,-0.0060000007,0.0159999934));
#517=CARTESIAN_POINT('',(0.0164999924,-0.0060000007,0.0159999934));
#518=CARTESIAN_POINT('',(0.0139999974,-0.0060000007,0.0159999934));
#519=CARTESIAN_POINT('',(0.0164999924,-0.0060000007,0.01724999344));
#520=CARTESIAN_POINT('',(0.0164999924,0.0060000007,0.01724999344));
#521=CARTESIAN_POINT('',(0.0164999924,0.0060000007,0.01849999348));
#522=CARTESIAN_POINT('',(0.0164999924,-0.0060000007,0.01849999348));
#523=CARTESIAN_POINT('',(0.0164999924,-0.0060000007,0.01849999348));
#524=CARTESIAN_POINT('',(0.0164999924,-0.0060000007,0.01724999344));
#525=CARTESIAN_POINT('',(0.0139923952219831,-0.0060000007,0.01849999348));
#526=CARTESIAN_POINT('',(0.0139923952219831,0.0060000007,0.01849999348));
#527=CARTESIAN_POINT('',(0.0114847980439663,0.0060000007,0.01849999348));
#528=CARTESIAN_POINT('',(0.0114847980439663,-0.0060000007,0.01849999348));
#529=CARTESIAN_POINT('',(0.0114847980439663,-0.0060000007,0.01849999348));
#530=CARTESIAN_POINT('',(0.0139923952219831,-0.0060000007,0.01849999348));
#531=CARTESIAN_POINT('',(0.0114847980439663,-0.0060000007,0.02069998908));
#532=CARTESIAN_POINT('',(0.0114847980439663,0.0060000007,0.02069998908));
#533=CARTESIAN_POINT('',(0.0114847980439663,0.0060000007,0.02289998468));
#534=CARTESIAN_POINT('',(0.0114847980439663,-0.0060000007,0.02289998468));
#535=CARTESIAN_POINT('',(0.0114847980439663,-0.0060000007,0.02289998468));
#536=CARTESIAN_POINT('',(0.0114847980439663,-0.0060000007,0.02069998908));
#537=CARTESIAN_POINT('',(1.53416767716408E-5,-0.0060000007,0.02289998468));
#538=CARTESIAN_POINT('',(-0.00518128555268049,3.67394082606844E-19,0.02289998468));
#539=CARTESIAN_POINT('',(1.53416767716408E-5,-0.0060000007,0.02289998468));
#540=CARTESIAN_POINT('',(1.53416767716408E-5,0.0060000007,0.02289998468));
#541=CARTESIAN_POINT('',(-0.011454114690423,-0.0060000007,0.02069998908));
#542=CARTESIAN_POINT('',(-0.011454114690423,0.0060000007,0.02069998908));
#543=CARTESIAN_POINT('',(-0.011454114690423,0.0060000007,0.01849999348));
#544=CARTESIAN_POINT('',(-0.011454114690423,-0.0060000007,0.01849999348));
#545=CARTESIAN_POINT('',(-0.011454114690423,-0.0060000007,0.01849999348));
#546=CARTESIAN_POINT('',(-0.011454114690423,-0.0060000007,0.02069998908));
#547=CARTESIAN_POINT('',(-0.0139770535452115,-0.0060000007,0.01849999348));
#548=CARTESIAN_POINT('',(-0.0139770535452115,0.0060000007,0.01849999348));
#549=CARTESIAN_POINT('',(-0.0164999924,0.0060000007,0.01849999348));
#550=CARTESIAN_POINT('',(-0.0164999924,-0.0060000007,0.01849999348));
#551=CARTESIAN_POINT('',(-0.0164999924,-0.0060000007,0.01849999348));
#552=CARTESIAN_POINT('',(-0.0139770535452115,-0.0060000007,0.01849999348));
#553=CARTESIAN_POINT('',(-0.0164999924,-0.0060000007,0.01724999344));
#554=CARTESIAN_POINT('',(-0.0164999924,0.0060000007,0.01724999344));
#555=CARTESIAN_POINT('',(-0.0164999924,0.0060000007,0.0159999934));
#556=CARTESIAN_POINT('',(-0.0164999924,-0.0060000007,0.0159999934));
#557=CARTESIAN_POINT('',(-0.0164999924,-0.0060000007,0.0159999934));
#558=CARTESIAN_POINT('',(-0.0164999924,-0.0060000007,0.01724999344));
#559=CARTESIAN_POINT('',(-0.0139999974,-0.0060000007,0.0159999934));
#560=CARTESIAN_POINT('',(-0.0139999974,0.0060000007,0.0159999934));
#561=CARTESIAN_POINT('',(-0.0115000024,0.0060000007,0.0159999934));
#562=CARTESIAN_POINT('',(-0.0115000024,-0.0060000007,0.0159999934));
#563=CARTESIAN_POINT('',(-0.0115000024,-0.0060000007,0.0159999934));
#564=CARTESIAN_POINT('',(-0.0139999974,-0.0060000007,0.0159999934));
#565=CARTESIAN_POINT('',(-0.0115000024,-0.0060000007,0.0079999967));
#566=CARTESIAN_POINT('',(-0.0115000024,0.0060000007,0.0079999967));
#567=CARTESIAN_POINT('',(-0.0115000024,-0.0060000007,0.0079999967));
#568=CARTESIAN_POINT('',(0.,-0.0060000007,0.01144999234));
#569=CARTESIAN_POINT('',(0.,0.0060000007,0.01144999234));
#570=CARTESIAN_POINT('',(-0.00518128555268049,3.67394082606844E-19,0.02739997568));
#571=CARTESIAN_POINT('',(-0.00518128555268049,3.67394082606844E-19,0.02739997568));
#572=CARTESIAN_POINT('',(0.000818715147319509,3.67394082606844E-19,0.02739997568));
#573=CARTESIAN_POINT('',(1.53416767716421E-5,0.,0.02739997568));
#574=MECHANICAL_DESIGN_GEOMETRIC_PRESENTATION_REPRESENTATION('',(#340),
#576);
#575=MECHANICAL_DESIGN_GEOMETRIC_PRESENTATION_REPRESENTATION('',(#341),
#577);
#576=(
GEOMETRIC_REPRESENTATION_CONTEXT(3)
GLOBAL_UNCERTAINTY_ASSIGNED_CONTEXT((#578))
GLOBAL_UNIT_ASSIGNED_CONTEXT((#584,#582,#580))
REPRESENTATION_CONTEXT('Part 2','TOP_LEVEL_ASSEMBLY_PART')
);
#577=(
GEOMETRIC_REPRESENTATION_CONTEXT(3)
GLOBAL_UNCERTAINTY_ASSIGNED_CONTEXT((#579))
GLOBAL_UNIT_ASSIGNED_CONTEXT((#585,#583,#581))
REPRESENTATION_CONTEXT('Part 1','TOP_LEVEL_ASSEMBLY_PART')
);
#578=UNCERTAINTY_MEASURE_WITH_UNIT(LENGTH_MEASURE(1.E-8),#584,
'DISTANCE_ACCURACY_VALUE','Maximum Tolerance applied to model');
#579=UNCERTAINTY_MEASURE_WITH_UNIT(LENGTH_MEASURE(1.E-8),#585,
'DISTANCE_ACCURACY_VALUE','Maximum Tolerance applied to model');
#580=(
NAMED_UNIT(*)
SI_UNIT($,.STERADIAN.)
SOLID_ANGLE_UNIT()
);
#581=(
NAMED_UNIT(*)
SI_UNIT($,.STERADIAN.)
SOLID_ANGLE_UNIT()
);
#582=(
NAMED_UNIT(*)
PLANE_ANGLE_UNIT()
SI_UNIT($,.RADIAN.)
);
#583=(
NAMED_UNIT(*)
PLANE_ANGLE_UNIT()
SI_UNIT($,.RADIAN.)
);
#584=(
LENGTH_UNIT()
NAMED_UNIT(*)
SI_UNIT($,.METRE.)
);
#585=(
LENGTH_UNIT()
NAMED_UNIT(*)
SI_UNIT($,.METRE.)
);
#586=PRODUCT_DEFINITION_SHAPE('','',#588);
#587=PRODUCT_DEFINITION_SHAPE('','',#589);
#588=PRODUCT_DEFINITION('','',#592,#590);
#589=PRODUCT_DEFINITION('','',#593,#591);
#590=PRODUCT_DEFINITION_CONTEXT('',#604,'design');
#591=PRODUCT_DEFINITION_CONTEXT('',#605,'design');
#592=PRODUCT_DEFINITION_FORMATION_WITH_SPECIFIED_SOURCE('','',#596,
 .NOT_KNOWN.);
#593=PRODUCT_DEFINITION_FORMATION_WITH_SPECIFIED_SOURCE('','',#597,
 .NOT_KNOWN.);
#594=PRODUCT_RELATED_PRODUCT_CATEGORY('','',(#596));
#595=PRODUCT_RELATED_PRODUCT_CATEGORY('','',(#597));
#596=PRODUCT('Part 2','Part 2','Part 2',(#600));
#597=PRODUCT('Part 1','Part 1','Part 1',(#601));
#598=PRODUCT_CATEGORY('','');
#599=PRODUCT_CATEGORY('','');
#600=PRODUCT_CONTEXT('',#604,'mechanical');
#601=PRODUCT_CONTEXT('',#605,'mechanical');
#602=APPLICATION_PROTOCOL_DEFINITION('international standard',
'ap242_managed_model_based_3d_engineering',2020,#604);
#603=APPLICATION_PROTOCOL_DEFINITION('international standard',
'ap242_managed_model_based_3d_engineering',2020,#605);
#604=APPLICATION_CONTEXT('managed model based 3d engineering');
#605=APPLICATION_CONTEXT('managed model based 3d engineering');
ENDSEC;
END-ISO-10303-21;
