ISO-10303-21;
HEADER;
/* Generated by software containing ST-Developer
 * from STEP Tools, Inc. (www.steptools.com) 
 */
/* OPTION: using custom renumber hook */

FILE_DESCRIPTION(
/* description */ ('STEP AP242 Edition 2',
'CAx-IF Rec.Pracs.---Representation and Presentation of Product Manufa
cturing Information (PMI)---4.0---2014-10-13',
'CAx-IF Rec.Pracs.---3D Tessellated Geometry---0.4---2014-09-14','2;1',
'CAx-IF Rec.Pracs.---User Defined Attributes---1.5---2016-08-15'),
/* implementation_level */ '2;1');

FILE_NAME(
/* name */ 'tvc build',
/* time_stamp */ '2026-08-03T01:30:05Z',
/* author */ (''),
/* organization */ (''),
/* preprocessor_version */ 'ST-DEVELOPER v20',
/* originating_system */ 'ONSHAPE BY PTC INC, 1.218',
/* authorisation */ '  ');

FILE_SCHEMA (('AP242_MANAGED_MODEL_BASED_3D_ENGINEERING_MIM_LF { 1 0 10303 442 3 1 4 }'));
ENDSEC;

DATA;
#10=SHAPE_REPRESENTATION_RELATIONSHIP('','',#159,#12);
#11=SHAPE_REPRESENTATION_RELATIONSHIP('','',#160,#13);
#12=ADVANCED_BREP_SHAPE_REPRESENTATION('',(#155),#272);
#13=ADVANCED_BREP_SHAPE_REPRESENTATION('',(#156),#273);
#14=CYLINDRICAL_SURFACE('',#166,0.00804280769079925);
#15=CYLINDRICAL_SURFACE('',#174,0.0118331059682431);
#16=CYLINDRICAL_SURFACE('',#179,0.065625585615635);
#17=CYLINDRICAL_SURFACE('',#184,0.051829781383276);
#18=PLANE('',#164);
#19=PLANE('',#170);
#20=PLANE('',#176);
#21=VERTEX_LOOP('',#55);
#22=VERTEX_LOOP('',#64);
#23=VERTEX_LOOP('',#66);
#24=ORIENTED_EDGE('',*,*,#44,.F.);
#25=ORIENTED_EDGE('',*,*,#45,.T.);
#26=ORIENTED_EDGE('',*,*,#45,.F.);
#27=ORIENTED_EDGE('',*,*,#46,.T.);
#28=ORIENTED_EDGE('',*,*,#46,.F.);
#29=ORIENTED_EDGE('',*,*,#47,.T.);
#30=ORIENTED_EDGE('',*,*,#47,.F.);
#31=ORIENTED_EDGE('',*,*,#48,.T.);
#32=ORIENTED_EDGE('',*,*,#48,.F.);
#33=ORIENTED_EDGE('',*,*,#49,.T.);
#34=ORIENTED_EDGE('',*,*,#49,.F.);
#35=ORIENTED_EDGE('',*,*,#44,.T.);
#36=ORIENTED_EDGE('',*,*,#50,.T.);
#37=ORIENTED_EDGE('',*,*,#51,.F.);
#38=ORIENTED_EDGE('',*,*,#52,.T.);
#39=ORIENTED_EDGE('',*,*,#50,.F.);
#40=ORIENTED_EDGE('',*,*,#52,.F.);
#41=ORIENTED_EDGE('',*,*,#53,.T.);
#42=ORIENTED_EDGE('',*,*,#51,.T.);
#43=ORIENTED_EDGE('',*,*,#53,.F.);
#44=EDGE_CURVE('',#54,#54,#67,.T.);
#45=EDGE_CURVE('',#56,#56,#68,.T.);
#46=EDGE_CURVE('',#57,#57,#69,.T.);
#47=EDGE_CURVE('',#58,#58,#70,.T.);
#48=EDGE_CURVE('',#59,#59,#71,.T.);
#49=EDGE_CURVE('',#60,#60,#72,.T.);
#50=EDGE_CURVE('',#61,#61,#73,.T.);
#51=EDGE_CURVE('',#62,#62,#74,.T.);
#52=EDGE_CURVE('',#63,#63,#75,.T.);
#53=EDGE_CURVE('',#65,#65,#76,.T.);
#54=VERTEX_POINT('',#236);
#55=VERTEX_POINT('',#237);
#56=VERTEX_POINT('',#240);
#57=VERTEX_POINT('',#243);
#58=VERTEX_POINT('',#246);
#59=VERTEX_POINT('',#249);
#60=VERTEX_POINT('',#252);
#61=VERTEX_POINT('',#257);
#62=VERTEX_POINT('',#259);
#63=VERTEX_POINT('',#262);
#64=VERTEX_POINT('',#264);
#65=VERTEX_POINT('',#267);
#66=VERTEX_POINT('',#268);
#67=CIRCLE('',#163,0.011833105968243);
#68=CIRCLE('',#165,0.00804280769079923);
#69=CIRCLE('',#167,0.00804280769079928);
#70=CIRCLE('',#169,0.0125350477173925);
#71=CIRCLE('',#171,0.0156461875885725);
#72=CIRCLE('',#173,0.0118331059682431);
#73=CIRCLE('',#177,0.0656255856156349);
#74=CIRCLE('',#178,0.051829781383276);
#75=CIRCLE('',#180,0.0656255856156351);
#76=CIRCLE('',#183,0.051829781383276);
#77=EDGE_LOOP('',(#24));
#78=EDGE_LOOP('',(#25));
#79=EDGE_LOOP('',(#26));
#80=EDGE_LOOP('',(#27));
#81=EDGE_LOOP('',(#28));
#82=EDGE_LOOP('',(#29));
#83=EDGE_LOOP('',(#30));
#84=EDGE_LOOP('',(#31));
#85=EDGE_LOOP('',(#32));
#86=EDGE_LOOP('',(#33));
#87=EDGE_LOOP('',(#34));
#88=EDGE_LOOP('',(#35));
#89=EDGE_LOOP('',(#36));
#90=EDGE_LOOP('',(#37));
#91=EDGE_LOOP('',(#38));
#92=EDGE_LOOP('',(#39));
#93=EDGE_LOOP('',(#40));
#94=EDGE_LOOP('',(#41));
#95=EDGE_LOOP('',(#42));
#96=EDGE_LOOP('',(#43));
#97=FACE_BOUND('',#77,.T.);
#98=FACE_BOUND('',#21,.T.);
#99=FACE_BOUND('',#78,.T.);
#100=FACE_BOUND('',#79,.T.);
#101=FACE_BOUND('',#80,.T.);
#102=FACE_BOUND('',#81,.T.);
#103=FACE_BOUND('',#82,.T.);
#104=FACE_BOUND('',#83,.T.);
#105=FACE_BOUND('',#84,.T.);
#106=FACE_BOUND('',#85,.T.);
#107=FACE_BOUND('',#86,.T.);
#108=FACE_BOUND('',#87,.T.);
#109=FACE_BOUND('',#88,.T.);
#110=FACE_BOUND('',#89,.T.);
#111=FACE_BOUND('',#90,.T.);
#112=FACE_BOUND('',#91,.T.);
#113=FACE_BOUND('',#92,.T.);
#114=FACE_BOUND('',#22,.T.);
#115=FACE_BOUND('',#93,.T.);
#116=FACE_BOUND('',#94,.T.);
#117=FACE_BOUND('',#23,.T.);
#118=FACE_BOUND('',#95,.T.);
#119=FACE_BOUND('',#96,.T.);
#120=CONICAL_SURFACE('',#162,0.,1.56457533599284);
#121=CONICAL_SURFACE('',#168,0.0125350477173925,0.376892038313949);
#122=CONICAL_SURFACE('',#172,0.0118331059682431,0.324123859599438);
#123=CONICAL_SURFACE('',#181,0.0656255856156351,0.46612979205025);
#124=CONICAL_SURFACE('',#182,9.71445146547012E-17,0.466129792050246);
#125=ADVANCED_FACE('',(#97,#98),#120,.F.);
#126=ADVANCED_FACE('',(#99),#18,.F.);
#127=ADVANCED_FACE('',(#100,#101),#14,.F.);
#128=ADVANCED_FACE('',(#102,#103),#121,.F.);
#129=ADVANCED_FACE('',(#104,#105),#19,.F.);
#130=ADVANCED_FACE('',(#106,#107),#122,.T.);
#131=ADVANCED_FACE('',(#108,#109),#15,.T.);
#132=ADVANCED_FACE('',(#110,#111),#20,.T.);
#133=ADVANCED_FACE('',(#112,#113),#16,.T.);
#134=ADVANCED_FACE('',(#114,#115),#123,.T.);
#135=ADVANCED_FACE('',(#116,#117),#124,.F.);
#136=ADVANCED_FACE('',(#118,#119),#17,.F.);
#137=CLOSED_SHELL('',(#125,#126,#127,#128,#129,#130,#131));
#138=CLOSED_SHELL('',(#132,#133,#134,#135,#136));
#139=STYLED_ITEM('',(#141),#155);
#140=STYLED_ITEM('',(#142),#156);
#141=PRESENTATION_STYLE_ASSIGNMENT((#143));
#142=PRESENTATION_STYLE_ASSIGNMENT((#144));
#143=SURFACE_STYLE_USAGE(.BOTH.,#145);
#144=SURFACE_STYLE_USAGE(.BOTH.,#146);
#145=SURFACE_SIDE_STYLE('',(#147));
#146=SURFACE_SIDE_STYLE('',(#148));
#147=SURFACE_STYLE_FILL_AREA(#149);
#148=SURFACE_STYLE_FILL_AREA(#150);
#149=FILL_AREA_STYLE('',(#151));
#150=FILL_AREA_STYLE('',(#152));
#151=FILL_AREA_STYLE_COLOUR('',#153);
#152=FILL_AREA_STYLE_COLOUR('',#154);
#153=COLOUR_RGB('',0.647058823529412,0.647058823529412,0.647058823529412);
#154=COLOUR_RGB('',0.615686274509804,0.811764705882353,0.929411764705882);
#155=MANIFOLD_SOLID_BREP('Part 2',#137);
#156=MANIFOLD_SOLID_BREP('Part 1',#138);
#157=SHAPE_DEFINITION_REPRESENTATION(#282,#159);
#158=SHAPE_DEFINITION_REPRESENTATION(#283,#160);
#159=SHAPE_REPRESENTATION('Part 2',(#161),#272);
#160=SHAPE_REPRESENTATION('Part 1',(#175),#273);
#161=AXIS2_PLACEMENT_3D('',#233,#185,#186);
#162=AXIS2_PLACEMENT_3D('',#234,#187,#188);
#163=AXIS2_PLACEMENT_3D('',#235,#189,#190);
#164=AXIS2_PLACEMENT_3D('',#238,#191,#192);
#165=AXIS2_PLACEMENT_3D('',#239,#193,#194);
#166=AXIS2_PLACEMENT_3D('',#241,#195,#196);
#167=AXIS2_PLACEMENT_3D('',#242,#197,#198);
#168=AXIS2_PLACEMENT_3D('',#244,#199,#200);
#169=AXIS2_PLACEMENT_3D('',#245,#201,#202);
#170=AXIS2_PLACEMENT_3D('',#247,#203,#204);
#171=AXIS2_PLACEMENT_3D('',#248,#205,#206);
#172=AXIS2_PLACEMENT_3D('',#250,#207,#208);
#173=AXIS2_PLACEMENT_3D('',#251,#209,#210);
#174=AXIS2_PLACEMENT_3D('',#253,#211,#212);
#175=AXIS2_PLACEMENT_3D('',#254,#213,#214);
#176=AXIS2_PLACEMENT_3D('',#255,#215,#216);
#177=AXIS2_PLACEMENT_3D('',#256,#217,#218);
#178=AXIS2_PLACEMENT_3D('',#258,#219,#220);
#179=AXIS2_PLACEMENT_3D('',#260,#221,#222);
#180=AXIS2_PLACEMENT_3D('',#261,#223,#224);
#181=AXIS2_PLACEMENT_3D('',#263,#225,#226);
#182=AXIS2_PLACEMENT_3D('',#265,#227,#228);
#183=AXIS2_PLACEMENT_3D('',#266,#229,#230);
#184=AXIS2_PLACEMENT_3D('',#269,#231,#232);
#185=DIRECTION('',(0.,0.,1.));
#186=DIRECTION('',(1.,0.,0.));
#187=DIRECTION('',(5.49079666572028E-16,0.,1.));
#188=DIRECTION('',(1.,0.,-5.49079666572028E-16));
#189=DIRECTION('',(-5.49079666572028E-16,0.,-1.));
#190=DIRECTION('',(-1.,0.,5.49079666572028E-16));
#191=DIRECTION('',(5.49079666572028E-16,0.,1.));
#192=DIRECTION('',(1.,0.,-5.49079666572028E-16));
#193=DIRECTION('',(-5.49079666572028E-16,0.,-1.));
#194=DIRECTION('',(-1.,0.,5.49079666572028E-16));
#195=DIRECTION('',(-5.49079666572028E-16,0.,-1.));
#196=DIRECTION('',(-1.,0.,5.49079666572028E-16));
#197=DIRECTION('',(-5.49079666572028E-16,0.,-1.));
#198=DIRECTION('',(-1.,0.,5.49079666572028E-16));
#199=DIRECTION('',(-5.49079666572028E-16,0.,-1.));
#200=DIRECTION('',(-1.,0.,5.49079666572028E-16));
#201=DIRECTION('',(-5.49079666572028E-16,0.,-1.));
#202=DIRECTION('',(-1.,0.,5.49079666572028E-16));
#203=DIRECTION('',(5.49079666572028E-16,0.,1.));
#204=DIRECTION('',(1.,0.,-5.49079666572028E-16));
#205=DIRECTION('',(-5.49079666572028E-16,0.,-1.));
#206=DIRECTION('',(-1.,0.,5.49079666572028E-16));
#207=DIRECTION('',(-5.49079666572028E-16,0.,-1.));
#208=DIRECTION('',(-1.,0.,5.49079666572028E-16));
#209=DIRECTION('',(-5.49079666572028E-16,0.,-1.));
#210=DIRECTION('',(-1.,0.,5.49079666572028E-16));
#211=DIRECTION('',(-5.49079666572028E-16,0.,-1.));
#212=DIRECTION('',(-1.,0.,5.49079666572028E-16));
#213=DIRECTION('',(0.,0.,1.));
#214=DIRECTION('',(1.,0.,0.));
#215=DIRECTION('',(0.,0.,-1.));
#216=DIRECTION('',(-1.,0.,0.));
#217=DIRECTION('',(0.,0.,-1.));
#218=DIRECTION('',(-1.,0.,0.));
#219=DIRECTION('',(0.,0.,-1.));
#220=DIRECTION('',(-1.,0.,0.));
#221=DIRECTION('',(0.,0.,-1.));
#222=DIRECTION('',(-1.,0.,0.));
#223=DIRECTION('',(0.,0.,-1.));
#224=DIRECTION('',(-1.,0.,0.));
#225=DIRECTION('',(0.,0.,-1.));
#226=DIRECTION('',(-1.,0.,0.));
#227=DIRECTION('',(0.,0.,-1.));
#228=DIRECTION('',(-1.,0.,0.));
#229=DIRECTION('',(0.,0.,-1.));
#230=DIRECTION('',(-1.,0.,0.));
#231=DIRECTION('',(0.,0.,-1.));
#232=DIRECTION('',(-1.,0.,0.));
#233=CARTESIAN_POINT('',(0.,0.,0.));
#234=CARTESIAN_POINT('',(1.00866550964737E-18,0.,0.0725921800182823));
#235=CARTESIAN_POINT('',(1.04908578584685E-18,0.,0.0726657946113191));
#236=CARTESIAN_POINT('',(-0.011833105968243,0.,0.0726657946113191));
#237=CARTESIAN_POINT('',(1.00866550964737E-18,0.,0.0725921800182823));
#238=CARTESIAN_POINT('',(0.00402140384539961,0.,0.0707551687955856));
#239=CARTESIAN_POINT('',(2.40741243048404E-33,0.,0.0707551687955856));
#240=CARTESIAN_POINT('',(-0.00804280769079923,0.,0.0707551687955856));
#241=CARTESIAN_POINT('',(5.04332754823687E-19,0.,0.071673674406934));
#242=CARTESIAN_POINT('',(-3.88502244905277E-17,0.,-1.38777878078145E-17));
#243=CARTESIAN_POINT('',(-0.00804280769079932,0.,-9.46164564264745E-18));
#244=CARTESIAN_POINT('',(-4.50819428880243E-17,0.,-0.0113493883982301));
#245=CARTESIAN_POINT('',(-4.50819428880243E-17,0.,-0.0113493883982301));
#246=CARTESIAN_POINT('',(-0.0125350477173925,0.,-0.0113493883982301));
#247=CARTESIAN_POINT('',(0.0140906176529825,0.,-0.0113493883982301));
#248=CARTESIAN_POINT('',(-4.50819428880243E-17,0.,-0.0113493883982301));
#249=CARTESIAN_POINT('',(-0.0156461875885726,0.,-0.0113493883982301));
#250=CARTESIAN_POINT('',(-3.88502244905277E-17,0.,0.));
#251=CARTESIAN_POINT('',(-3.88502244905277E-17,0.,0.));
#252=CARTESIAN_POINT('',(-0.0118331059682431,0.,6.4973178795544E-18));
#253=CARTESIAN_POINT('',(5.04332754823687E-19,0.,0.071673674406934));
#254=CARTESIAN_POINT('',(0.,0.,0.));
#255=CARTESIAN_POINT('',(0.0587276834994555,0.,0.));
#256=CARTESIAN_POINT('',(0.,0.,0.));
#257=CARTESIAN_POINT('',(-0.0656255856156349,0.,0.));
#258=CARTESIAN_POINT('',(0.,0.,0.));
#259=CARTESIAN_POINT('',(-0.051829781383276,0.,0.));
#260=CARTESIAN_POINT('',(0.,0.,0.0367704182863236));
#261=CARTESIAN_POINT('',(0.,0.,0.169851258397102));
#262=CARTESIAN_POINT('',(-0.0656255856156351,0.,0.169851258397102));
#263=CARTESIAN_POINT('',(0.,0.,0.169851258397102));
#264=CARTESIAN_POINT('',(0.,0.,0.300291977762554));
#265=CARTESIAN_POINT('',(0.,0.,0.284416437149048));
#266=CARTESIAN_POINT('',(0.,0.,0.18139695313582));
#267=CARTESIAN_POINT('',(-0.051829781383276,0.,0.18139695313582));
#268=CARTESIAN_POINT('',(9.71445146547012E-17,0.,0.284416437149048));
#269=CARTESIAN_POINT('',(0.,0.,0.0367704182863236));
#270=MECHANICAL_DESIGN_GEOMETRIC_PRESENTATION_REPRESENTATION('',(#139),
#272);
#271=MECHANICAL_DESIGN_GEOMETRIC_PRESENTATION_REPRESENTATION('',(#140),
#273);
#272=(
GEOMETRIC_REPRESENTATION_CONTEXT(3)
GLOBAL_UNCERTAINTY_ASSIGNED_CONTEXT((#274))
GLOBAL_UNIT_ASSIGNED_CONTEXT((#280,#278,#276))
REPRESENTATION_CONTEXT('Part 2','TOP_LEVEL_ASSEMBLY_PART')
);
#273=(
GEOMETRIC_REPRESENTATION_CONTEXT(3)
GLOBAL_UNCERTAINTY_ASSIGNED_CONTEXT((#275))
GLOBAL_UNIT_ASSIGNED_CONTEXT((#281,#279,#277))
REPRESENTATION_CONTEXT('Part 1','TOP_LEVEL_ASSEMBLY_PART')
);
#274=UNCERTAINTY_MEASURE_WITH_UNIT(LENGTH_MEASURE(1.E-8),#280,
'DISTANCE_ACCURACY_VALUE','Maximum Tolerance applied to model');
#275=UNCERTAINTY_MEASURE_WITH_UNIT(LENGTH_MEASURE(1.E-8),#281,
'DISTANCE_ACCURACY_VALUE','Maximum Tolerance applied to model');
#276=(
NAMED_UNIT(*)
SI_UNIT($,.STERADIAN.)
SOLID_ANGLE_UNIT()
);
#277=(
NAMED_UNIT(*)
SI_UNIT($,.STERADIAN.)
SOLID_ANGLE_UNIT()
);
#278=(
NAMED_UNIT(*)
PLANE_ANGLE_UNIT()
SI_UNIT($,.RADIAN.)
);
#279=(
NAMED_UNIT(*)
PLANE_ANGLE_UNIT()
SI_UNIT($,.RADIAN.)
);
#280=(
LENGTH_UNIT()
NAMED_UNIT(*)
SI_UNIT($,.METRE.)
);
#281=(
LENGTH_UNIT()
NAMED_UNIT(*)
SI_UNIT($,.METRE.)
);
#282=PRODUCT_DEFINITION_SHAPE('','',#284);
#283=PRODUCT_DEFINITION_SHAPE('','',#285);
#284=PRODUCT_DEFINITION('','',#288,#286);
#285=PRODUCT_DEFINITION('','',#289,#287);
#286=PRODUCT_DEFINITION_CONTEXT('',#300,'design');
#287=PRODUCT_DEFINITION_CONTEXT('',#301,'design');
#288=PRODUCT_DEFINITION_FORMATION_WITH_SPECIFIED_SOURCE('','',#292,
 .NOT_KNOWN.);
#289=PRODUCT_DEFINITION_FORMATION_WITH_SPECIFIED_SOURCE('','',#293,
 .NOT_KNOWN.);
#290=PRODUCT_RELATED_PRODUCT_CATEGORY('','',(#292));
#291=PRODUCT_RELATED_PRODUCT_CATEGORY('','',(#293));
#292=PRODUCT('Part 2','Part 2','Part 2',(#296));
#293=PRODUCT('Part 1','Part 1','Part 1',(#297));
#294=PRODUCT_CATEGORY('','');
#295=PRODUCT_CATEGORY('','');
#296=PRODUCT_CONTEXT('',#300,'mechanical');
#297=PRODUCT_CONTEXT('',#301,'mechanical');
#298=APPLICATION_PROTOCOL_DEFINITION('international standard',
'ap242_managed_model_based_3d_engineering',2020,#300);
#299=APPLICATION_PROTOCOL_DEFINITION('international standard',
'ap242_managed_model_based_3d_engineering',2020,#301);
#300=APPLICATION_CONTEXT('managed model based 3d engineering');
#301=APPLICATION_CONTEXT('managed model based 3d engineering');
ENDSEC;
END-ISO-10303-21;
